M48
; DRILL file {KiCad (5.1.6)-1} date 10/27/20 11:33:55
; FORMAT={-:-/ absolute / inch / decimal}
; #@! TF.CreationDate,2020-10-27T11:33:55-07:00
; #@! TF.GenerationSoftware,Kicad,Pcbnew,(5.1.6)-1
FMAT,2
INCH
T1C0.0157
T2C0.0197
T3C0.0248
T4C0.0315
T5C0.0394
T6C0.0402
T7C0.0669
T8C0.0937
T9C0.1244
T10C0.1433
%
G90
G05
T1
X3.862Y-3.7335
X4.132Y-3.74
X4.379Y-3.7405
X4.5815Y-3.739
X4.698Y-3.864
X4.6995Y-4.079
X5.0785Y-3.938
X5.1005Y-3.861
X5.1085Y-3.971
X5.188Y-3.795
X5.3465Y-3.9356
X5.3695Y-3.983
X5.3945Y-3.813
X5.397Y-3.768
X5.405Y-3.9365
X5.4515Y-3.5425
X5.494Y-3.645
X5.5821Y-3.9071
X5.5825Y-3.2225
X5.831Y-4.176
X6.101Y-3.9765
X6.1015Y-4.05
X6.1375Y-3.5275
X6.374Y-3.5385
X6.6725Y-3.534
X6.902Y-3.5305
X7.2825Y-3.5437
T2
X4.3585Y-3.1965
X4.4077Y-3.1965
X4.4569Y-3.1965
X3.8508Y-3.2015
X3.9Y-3.2015
X3.9492Y-3.2015
X6.8578Y-3.1975
X6.907Y-3.1975
X6.9562Y-3.1975
X6.325Y-3.2
X6.3742Y-3.2
X6.4234Y-3.2
T3
X4.958Y-3.7474
X4.958Y-3.9396
T4
X5.7746Y-3.7037
X5.7746Y-3.9163
X5.873Y-3.7037
X5.873Y-3.9163
X5.9714Y-3.7037
X5.9714Y-3.9163
T5
X3.7382Y-4.6737
X3.8366Y-4.6737
X3.9154Y-4.6737
X4.0138Y-4.6737
X7.1442Y-3.8732
X7.1442Y-3.9716
X7.1442Y-4.0504
X7.1442Y-4.1488
X5.7605Y-4.6737
X5.859Y-4.6737
X5.9377Y-4.6737
X6.0361Y-4.6737
X6.7717Y-4.6702
X6.8701Y-4.6702
X6.9489Y-4.6702
X7.0473Y-4.6702
X4.7494Y-4.6782
X4.8478Y-4.6782
X4.9265Y-4.6782
X5.025Y-4.6782
T6
X4.9345Y-3.276
X4.9345Y-3.376
X5.0345Y-3.276
X5.0345Y-3.376
X5.1345Y-3.276
X5.1345Y-3.376
X5.2345Y-3.276
X5.2345Y-3.376
X5.3345Y-3.276
X5.3345Y-3.376
X5.4345Y-3.276
X5.4345Y-3.376
X5.5345Y-3.276
X5.5345Y-3.376
X5.6345Y-3.276
X5.6345Y-3.376
X5.7345Y-3.276
X5.7345Y-3.376
X5.8345Y-3.276
X5.8345Y-3.376
T7
X3.1895Y-4.2835
X3.2863Y-4.3898
X3.3863Y-4.2835
T8
X3.5977Y-4.7804
X4.1543Y-4.7804
X7.2509Y-3.7327
X7.2509Y-4.2893
X5.62Y-4.7804
X6.1767Y-4.7804
X6.6312Y-4.7769
X7.1878Y-4.7769
X4.6088Y-4.7849
X5.1655Y-4.7849
T9
X3.2633Y-3.848
T10
X3.4995Y-3.848
T0
M30
