%TF.GenerationSoftware,KiCad,Pcbnew,(5.1.6)-1*%
%TF.CreationDate,2020-10-27T11:33:51-07:00*%
%TF.ProjectId,main,6d61696e-2e6b-4696-9361-645f70636258,rev?*%
%TF.SameCoordinates,Original*%
%TF.FileFunction,Copper,L1,Top*%
%TF.FilePolarity,Positive*%
%FSLAX46Y46*%
G04 Gerber Fmt 4.6, Leading zero omitted, Abs format (unit mm)*
G04 Created by KiCad (PCBNEW (5.1.6)-1) date 2020-10-27 11:33:51*
%MOMM*%
%LPD*%
G01*
G04 APERTURE LIST*
%TA.AperFunction,ComponentPad*%
%ADD10C,1.000000*%
%TD*%
%TA.AperFunction,ComponentPad*%
%ADD11C,1.300000*%
%TD*%
%TA.AperFunction,SMDPad,CuDef*%
%ADD12R,0.950000X1.400000*%
%TD*%
%TA.AperFunction,SMDPad,CuDef*%
%ADD13R,1.400000X0.950000*%
%TD*%
%TA.AperFunction,SMDPad,CuDef*%
%ADD14R,0.600000X1.200000*%
%TD*%
%TA.AperFunction,SMDPad,CuDef*%
%ADD15R,0.900000X1.400000*%
%TD*%
%TA.AperFunction,ComponentPad*%
%ADD16C,3.570000*%
%TD*%
%TA.AperFunction,ComponentPad*%
%ADD17C,1.500000*%
%TD*%
%TA.AperFunction,ComponentPad*%
%ADD18R,1.000000X1.000000*%
%TD*%
%TA.AperFunction,ComponentPad*%
%ADD19C,2.550000*%
%TD*%
%TA.AperFunction,ComponentPad*%
%ADD20C,1.550000*%
%TD*%
%TA.AperFunction,ComponentPad*%
%ADD21C,4.740000*%
%TD*%
%TA.AperFunction,ComponentPad*%
%ADD22C,5.460000*%
%TD*%
%TA.AperFunction,SMDPad,CuDef*%
%ADD23R,1.525000X0.440000*%
%TD*%
%TA.AperFunction,SMDPad,CuDef*%
%ADD24R,1.470000X0.970000*%
%TD*%
%TA.AperFunction,SMDPad,CuDef*%
%ADD25R,0.970000X1.470000*%
%TD*%
%TA.AperFunction,ViaPad*%
%ADD26C,0.800000*%
%TD*%
%TA.AperFunction,Conductor*%
%ADD27C,0.250000*%
%TD*%
G04 APERTURE END LIST*
D10*
%TO.P,Y101,2*%
%TO.N,Net-(IC101-Pad2)*%
X125933200Y-95184900D03*
%TO.P,Y101,1*%
%TO.N,Net-(IC101-Pad3)*%
X125933200Y-100064900D03*
%TD*%
D11*
%TO.P,S101,6*%
%TO.N,Net-(IC101-Pad17)*%
X146674200Y-99474000D03*
%TO.P,S101,5*%
%TO.N,GND*%
X149174200Y-99474000D03*
%TO.P,S101,4*%
%TO.N,Net-(S101-Pad4)*%
X151674200Y-99474000D03*
%TO.P,S101,3*%
%TO.N,Net-(S101-Pad3)*%
X146674200Y-94074000D03*
%TO.P,S101,2*%
%TO.N,Net-(S101-Pad2)*%
X149174200Y-94074000D03*
%TO.P,S101,1*%
%TO.N,Net-(S101-Pad1)*%
X151674200Y-94074000D03*
%TD*%
D12*
%TO.P,R902,2*%
%TO.N,Net-(LED901-Pad1)*%
X97450400Y-113715800D03*
%TO.P,R902,1*%
%TO.N,Net-(J901-Pad4)*%
X99450400Y-113715800D03*
%TD*%
%TO.P,R901,2*%
%TO.N,Net-(Q901-Pad1)*%
X107299000Y-106093900D03*
%TO.P,R901,1*%
%TO.N,/USB1*%
X105299000Y-106093900D03*
%TD*%
%TO.P,R802,2*%
%TO.N,Net-(LED801-Pad1)*%
X122968933Y-113830100D03*
%TO.P,R802,1*%
%TO.N,Net-(J801-Pad4)*%
X124968933Y-113830100D03*
%TD*%
%TO.P,R801,2*%
%TO.N,Net-(Q801-Pad1)*%
X132978400Y-106718100D03*
%TO.P,R801,1*%
%TO.N,/USB2*%
X130978400Y-106718100D03*
%TD*%
%TO.P,R702,2*%
%TO.N,Net-(LED701-Pad1)*%
X148919265Y-113715800D03*
%TO.P,R702,1*%
%TO.N,Net-(J701-Pad4)*%
X150919265Y-113715800D03*
%TD*%
%TO.P,R701,2*%
%TO.N,Net-(Q701-Pad1)*%
X158988000Y-106108500D03*
%TO.P,R701,1*%
%TO.N,/USB3*%
X156988000Y-106108500D03*
%TD*%
%TO.P,R602,2*%
%TO.N,Net-(LED601-Pad1)*%
X174501300Y-113626900D03*
%TO.P,R602,1*%
%TO.N,Net-(J601-Pad4)*%
X176501300Y-113626900D03*
%TD*%
%TO.P,R601,2*%
%TO.N,Net-(Q601-Pad1)*%
X168462200Y-107238800D03*
%TO.P,R601,1*%
%TO.N,/USB4*%
X166462200Y-107238800D03*
%TD*%
D13*
%TO.P,R502,2*%
%TO.N,Net-(Q502-Pad1)*%
X177375300Y-94643700D03*
%TO.P,R502,1*%
%TO.N,/L4R*%
X177375300Y-96643700D03*
%TD*%
%TO.P,R501,2*%
%TO.N,Net-(Q501-Pad1)*%
X171844600Y-94643700D03*
%TO.P,R501,1*%
%TO.N,/L4G*%
X171844600Y-96643700D03*
%TD*%
%TO.P,R402,2*%
%TO.N,Net-(Q402-Pad1)*%
X163753600Y-94707200D03*
%TO.P,R402,1*%
%TO.N,/L3R*%
X163753600Y-96707200D03*
%TD*%
%TO.P,R401,2*%
%TO.N,Net-(Q401-Pad1)*%
X158154000Y-94707200D03*
%TO.P,R401,1*%
%TO.N,/L3G*%
X158154000Y-96707200D03*
%TD*%
%TO.P,R302,2*%
%TO.N,Net-(Q302-Pad1)*%
X113983400Y-94618300D03*
%TO.P,R302,1*%
%TO.N,/L2R*%
X113983400Y-96618300D03*
%TD*%
%TO.P,R301,2*%
%TO.N,Net-(Q301-Pad1)*%
X108191400Y-94618300D03*
%TO.P,R301,1*%
%TO.N,/L2G*%
X108191400Y-96618300D03*
%TD*%
%TO.P,R202,2*%
%TO.N,Net-(Q202-Pad1)*%
X101092900Y-94745300D03*
%TO.P,R202,1*%
%TO.N,/L1R*%
X101092900Y-96745300D03*
%TD*%
%TO.P,R201,2*%
%TO.N,Net-(Q201-Pad1)*%
X95295500Y-94745300D03*
%TO.P,R201,1*%
%TO.N,/L1G*%
X95295500Y-96745300D03*
%TD*%
D12*
%TO.P,R103,2*%
%TO.N,Net-(IC101-Pad17)*%
X157026100Y-99923600D03*
%TO.P,R103,1*%
%TO.N,+5V*%
X159026100Y-99923600D03*
%TD*%
%TO.P,R102,2*%
%TO.N,Net-(IC101-Pad19)*%
X157089600Y-102946200D03*
%TO.P,R102,1*%
%TO.N,+5V*%
X159089600Y-102946200D03*
%TD*%
D13*
%TO.P,R101,2*%
%TO.N,GND*%
X136601200Y-110524800D03*
%TO.P,R101,1*%
%TO.N,Net-(IC101-Pad14)*%
X136601200Y-108524800D03*
%TD*%
D14*
%TO.P,Q901,3*%
%TO.N,Net-(J901-Pad4)*%
X106530400Y-111752700D03*
%TO.P,Q901,2*%
%TO.N,GND*%
X105580400Y-109252700D03*
%TO.P,Q901,1*%
%TO.N,Net-(Q901-Pad1)*%
X107480400Y-109252700D03*
%TD*%
%TO.P,Q801,3*%
%TO.N,Net-(J801-Pad4)*%
X132048933Y-112629000D03*
%TO.P,Q801,2*%
%TO.N,GND*%
X131098933Y-110129000D03*
%TO.P,Q801,1*%
%TO.N,Net-(Q801-Pad1)*%
X132998933Y-110129000D03*
%TD*%
%TO.P,Q701,3*%
%TO.N,Net-(J701-Pad4)*%
X157999265Y-112451200D03*
%TO.P,Q701,2*%
%TO.N,GND*%
X157049265Y-109951200D03*
%TO.P,Q701,1*%
%TO.N,Net-(Q701-Pad1)*%
X158949265Y-109951200D03*
%TD*%
%TO.P,Q601,3*%
%TO.N,Net-(J601-Pad4)*%
X167528500Y-112654400D03*
%TO.P,Q601,2*%
%TO.N,GND*%
X166578500Y-110154400D03*
%TO.P,Q601,1*%
%TO.N,Net-(Q601-Pad1)*%
X168478500Y-110154400D03*
%TD*%
%TO.P,Q502,3*%
%TO.N,Net-(J501-Pad3)*%
X178250700Y-86748300D03*
%TO.P,Q502,2*%
%TO.N,GND*%
X179200700Y-89248300D03*
%TO.P,Q502,1*%
%TO.N,Net-(Q502-Pad1)*%
X177300700Y-89248300D03*
%TD*%
%TO.P,Q501,3*%
%TO.N,Net-(J501-Pad2)*%
X172720000Y-86748300D03*
%TO.P,Q501,2*%
%TO.N,GND*%
X173670000Y-89248300D03*
%TO.P,Q501,1*%
%TO.N,Net-(Q501-Pad1)*%
X171770000Y-89248300D03*
%TD*%
%TO.P,Q402,3*%
%TO.N,Net-(J401-Pad3)*%
X164629000Y-86811800D03*
%TO.P,Q402,2*%
%TO.N,GND*%
X165579000Y-89311800D03*
%TO.P,Q402,1*%
%TO.N,Net-(Q402-Pad1)*%
X163679000Y-89311800D03*
%TD*%
%TO.P,Q401,3*%
%TO.N,Net-(J401-Pad2)*%
X159029400Y-86811800D03*
%TO.P,Q401,2*%
%TO.N,GND*%
X159979400Y-89311800D03*
%TO.P,Q401,1*%
%TO.N,Net-(Q401-Pad1)*%
X158079400Y-89311800D03*
%TD*%
%TO.P,Q302,3*%
%TO.N,Net-(J301-Pad3)*%
X114858800Y-86722900D03*
%TO.P,Q302,2*%
%TO.N,GND*%
X115808800Y-89222900D03*
%TO.P,Q302,1*%
%TO.N,Net-(Q302-Pad1)*%
X113908800Y-89222900D03*
%TD*%
%TO.P,Q301,3*%
%TO.N,Net-(J301-Pad2)*%
X109066800Y-86722900D03*
%TO.P,Q301,2*%
%TO.N,GND*%
X110016800Y-89222900D03*
%TO.P,Q301,1*%
%TO.N,Net-(Q301-Pad1)*%
X108116800Y-89222900D03*
%TD*%
%TO.P,Q202,3*%
%TO.N,Net-(J201-Pad3)*%
X101968300Y-86849900D03*
%TO.P,Q202,2*%
%TO.N,GND*%
X102918300Y-89349900D03*
%TO.P,Q202,1*%
%TO.N,Net-(Q202-Pad1)*%
X101018300Y-89349900D03*
%TD*%
%TO.P,Q201,3*%
%TO.N,Net-(J201-Pad2)*%
X96170900Y-86849900D03*
%TO.P,Q201,2*%
%TO.N,GND*%
X97120900Y-89349900D03*
%TO.P,Q201,1*%
%TO.N,Net-(Q201-Pad1)*%
X95220900Y-89349900D03*
%TD*%
D15*
%TO.P,LED901,2*%
%TO.N,+5V*%
X97500400Y-109169200D03*
%TO.P,LED901,1*%
%TO.N,Net-(LED901-Pad1)*%
X99400400Y-109169200D03*
%TD*%
%TO.P,LED801,2*%
%TO.N,+5V*%
X123018933Y-109283500D03*
%TO.P,LED801,1*%
%TO.N,Net-(LED801-Pad1)*%
X124918933Y-109283500D03*
%TD*%
%TO.P,LED701,2*%
%TO.N,+5V*%
X148969265Y-109169200D03*
%TO.P,LED701,1*%
%TO.N,Net-(LED701-Pad1)*%
X150869265Y-109169200D03*
%TD*%
%TO.P,LED601,2*%
%TO.N,+5V*%
X174551300Y-109080300D03*
%TO.P,LED601,1*%
%TO.N,Net-(LED601-Pad1)*%
X176451300Y-109080300D03*
%TD*%
D16*
%TO.P,J901,6*%
%TO.N,GND*%
X105520400Y-121421100D03*
%TO.P,J901,5*%
%TO.N,Net-(J901-Pad5)*%
X91380400Y-121421100D03*
D17*
%TO.P,J901,4*%
%TO.N,Net-(J901-Pad4)*%
X101950400Y-118711100D03*
%TO.P,J901,3*%
%TO.N,/D1+*%
X99450400Y-118711100D03*
%TO.P,J901,2*%
%TO.N,/D1-*%
X97450400Y-118711100D03*
%TO.P,J901,1*%
%TO.N,+5V*%
X94950400Y-118711100D03*
%TD*%
D16*
%TO.P,J801,6*%
%TO.N,GND*%
X131204033Y-121535400D03*
%TO.P,J801,5*%
%TO.N,Net-(J801-Pad5)*%
X117064033Y-121535400D03*
D17*
%TO.P,J801,4*%
%TO.N,Net-(J801-Pad4)*%
X127634033Y-118825400D03*
%TO.P,J801,3*%
%TO.N,/D2+*%
X125134033Y-118825400D03*
%TO.P,J801,2*%
%TO.N,/D2-*%
X123134033Y-118825400D03*
%TO.P,J801,1*%
%TO.N,+5V*%
X120634033Y-118825400D03*
%TD*%
D16*
%TO.P,J701,6*%
%TO.N,GND*%
X156887666Y-121421100D03*
%TO.P,J701,5*%
%TO.N,Net-(J701-Pad5)*%
X142747666Y-121421100D03*
D17*
%TO.P,J701,4*%
%TO.N,Net-(J701-Pad4)*%
X153317666Y-118711100D03*
%TO.P,J701,3*%
%TO.N,/D3+*%
X150817666Y-118711100D03*
%TO.P,J701,2*%
%TO.N,/D3-*%
X148817666Y-118711100D03*
%TO.P,J701,1*%
%TO.N,+5V*%
X146317666Y-118711100D03*
%TD*%
D16*
%TO.P,J601,6*%
%TO.N,GND*%
X182571300Y-121332200D03*
%TO.P,J601,5*%
%TO.N,Net-(J601-Pad5)*%
X168431300Y-121332200D03*
D17*
%TO.P,J601,4*%
%TO.N,Net-(J601-Pad4)*%
X179001300Y-118622200D03*
%TO.P,J601,3*%
%TO.N,/D4+*%
X176501300Y-118622200D03*
%TO.P,J601,2*%
%TO.N,/D4-*%
X174501300Y-118622200D03*
%TO.P,J601,1*%
%TO.N,+5V*%
X172001300Y-118622200D03*
%TD*%
D10*
%TO.P,J501,3*%
%TO.N,Net-(J501-Pad3)*%
X176687800Y-81216500D03*
%TO.P,J501,2*%
%TO.N,Net-(J501-Pad2)*%
X175437800Y-81216500D03*
D18*
%TO.P,J501,1*%
%TO.N,+12V*%
X174187800Y-81216500D03*
%TD*%
D10*
%TO.P,J401,3*%
%TO.N,Net-(J401-Pad3)*%
X163155000Y-81280000D03*
%TO.P,J401,2*%
%TO.N,Net-(J401-Pad2)*%
X161905000Y-81280000D03*
D18*
%TO.P,J401,1*%
%TO.N,+12V*%
X160655000Y-81280000D03*
%TD*%
D10*
%TO.P,J301,3*%
%TO.N,Net-(J301-Pad3)*%
X113205900Y-81191100D03*
%TO.P,J301,2*%
%TO.N,Net-(J301-Pad2)*%
X111955900Y-81191100D03*
D18*
%TO.P,J301,1*%
%TO.N,+12V*%
X110705900Y-81191100D03*
%TD*%
D10*
%TO.P,J201,3*%
%TO.N,Net-(J201-Pad3)*%
X100310000Y-81318100D03*
%TO.P,J201,2*%
%TO.N,Net-(J201-Pad2)*%
X99060000Y-81318100D03*
D18*
%TO.P,J201,1*%
%TO.N,+12V*%
X97810000Y-81318100D03*
%TD*%
D19*
%TO.P,J104,3*%
%TO.N,Net-(IC101-Pad19)*%
X83472400Y-111500900D03*
%TO.P,J104,2*%
%TO.N,GND*%
X81012400Y-108800900D03*
%TO.P,J104,1*%
%TO.N,+5V*%
X86012400Y-108800900D03*
%TD*%
D20*
%TO.P,J103,20*%
%TO.N,GND*%
X148196300Y-83210400D03*
%TO.P,J103,19*%
%TO.N,+5V*%
X148196300Y-85750400D03*
%TO.P,J103,18*%
%TO.N,GND*%
X145656300Y-83210400D03*
%TO.P,J103,17*%
%TO.N,+5V*%
X145656300Y-85750400D03*
%TO.P,J103,16*%
%TO.N,GND*%
X143116300Y-83210400D03*
%TO.P,J103,15*%
%TO.N,+5V*%
X143116300Y-85750400D03*
%TO.P,J103,14*%
%TO.N,GND*%
X140576300Y-83210400D03*
%TO.P,J103,13*%
%TO.N,+12V*%
X140576300Y-85750400D03*
%TO.P,J103,12*%
%TO.N,/L4R*%
X138036300Y-83210400D03*
%TO.P,J103,11*%
%TO.N,/L4G*%
X138036300Y-85750400D03*
%TO.P,J103,10*%
%TO.N,/L3R*%
X135496300Y-83210400D03*
%TO.P,J103,9*%
%TO.N,/L3G*%
X135496300Y-85750400D03*
%TO.P,J103,8*%
%TO.N,/L2R*%
X132956300Y-83210400D03*
%TO.P,J103,7*%
%TO.N,/L2G*%
X132956300Y-85750400D03*
%TO.P,J103,6*%
%TO.N,/L1R*%
X130416300Y-83210400D03*
%TO.P,J103,5*%
%TO.N,/L1G*%
X130416300Y-85750400D03*
%TO.P,J103,4*%
%TO.N,/USB4*%
X127876300Y-83210400D03*
%TO.P,J103,3*%
%TO.N,/USB3*%
X127876300Y-85750400D03*
%TO.P,J103,2*%
%TO.N,/USB2*%
X125336300Y-83210400D03*
%TO.P,J103,1*%
%TO.N,/USB1*%
X125336300Y-85750400D03*
%TD*%
D16*
%TO.P,J102,6*%
%TO.N,GND*%
X184171800Y-94809400D03*
%TO.P,J102,5*%
%TO.N,Net-(J102-Pad5)*%
X184171800Y-108949400D03*
D17*
%TO.P,J102,4*%
%TO.N,GND*%
X181461800Y-98379400D03*
%TO.P,J102,3*%
%TO.N,/D0+*%
X181461800Y-100879400D03*
%TO.P,J102,2*%
%TO.N,/DO-*%
X181461800Y-102879400D03*
%TO.P,J102,1*%
%TO.N,+5V*%
X181461800Y-105379400D03*
%TD*%
D21*
%TO.P,J101,2*%
%TO.N,GND*%
X82887300Y-97739200D03*
D22*
%TO.P,J101,1*%
%TO.N,+12V*%
X88887300Y-97739200D03*
%TD*%
D23*
%TO.P,IC101,28*%
%TO.N,/VD18*%
X139529100Y-94138000D03*
%TO.P,IC101,27*%
%TO.N,Net-(IC101-Pad27)*%
X139529100Y-94778000D03*
%TO.P,IC101,26*%
%TO.N,Net-(IC101-Pad26)*%
X139529100Y-95418000D03*
%TO.P,IC101,25*%
%TO.N,Net-(IC101-Pad25)*%
X139529100Y-96058000D03*
%TO.P,IC101,24*%
%TO.N,Net-(IC101-Pad24)*%
X139529100Y-96698000D03*
%TO.P,IC101,23*%
%TO.N,Net-(IC101-Pad23)*%
X139529100Y-97338000D03*
%TO.P,IC101,22*%
%TO.N,Net-(IC101-Pad22)*%
X139529100Y-97978000D03*
%TO.P,IC101,21*%
%TO.N,/VD33*%
X139529100Y-98618000D03*
%TO.P,IC101,20*%
%TO.N,+5V*%
X139529100Y-99258000D03*
%TO.P,IC101,19*%
%TO.N,Net-(IC101-Pad19)*%
X139529100Y-99898000D03*
%TO.P,IC101,18*%
%TO.N,/VD33*%
X139529100Y-100538000D03*
%TO.P,IC101,17*%
%TO.N,Net-(IC101-Pad17)*%
X139529100Y-101178000D03*
%TO.P,IC101,16*%
%TO.N,/D0+*%
X139529100Y-101818000D03*
%TO.P,IC101,15*%
%TO.N,/DO-*%
X139529100Y-102458000D03*
%TO.P,IC101,14*%
%TO.N,Net-(IC101-Pad14)*%
X134105100Y-102458000D03*
%TO.P,IC101,13*%
%TO.N,/VD33*%
X134105100Y-101818000D03*
%TO.P,IC101,12*%
%TO.N,/VD18*%
X134105100Y-101178000D03*
%TO.P,IC101,11*%
%TO.N,/D1+*%
X134105100Y-100538000D03*
%TO.P,IC101,10*%
%TO.N,/D1-*%
X134105100Y-99898000D03*
%TO.P,IC101,9*%
%TO.N,/D2+*%
X134105100Y-99258000D03*
%TO.P,IC101,8*%
%TO.N,/D2-*%
X134105100Y-98618000D03*
%TO.P,IC101,7*%
%TO.N,/D3+*%
X134105100Y-97978000D03*
%TO.P,IC101,6*%
%TO.N,/D3-*%
X134105100Y-97338000D03*
%TO.P,IC101,5*%
%TO.N,/D4+*%
X134105100Y-96698000D03*
%TO.P,IC101,4*%
%TO.N,/D4-*%
X134105100Y-96058000D03*
%TO.P,IC101,3*%
%TO.N,Net-(IC101-Pad3)*%
X134105100Y-95418000D03*
%TO.P,IC101,2*%
%TO.N,Net-(IC101-Pad2)*%
X134105100Y-94778000D03*
%TO.P,IC101,1*%
%TO.N,GND*%
X134105100Y-94138000D03*
%TD*%
D24*
%TO.P,C104,2*%
%TO.N,/VD33*%
X140970000Y-108585000D03*
%TO.P,C104,1*%
%TO.N,GND*%
X140970000Y-110245000D03*
%TD*%
D25*
%TO.P,C102,2*%
%TO.N,+5V*%
X131792400Y-91694000D03*
%TO.P,C102,1*%
%TO.N,GND*%
X130132400Y-91694000D03*
%TD*%
D24*
%TO.P,C101,2*%
%TO.N,/VD18*%
X127876300Y-104618100D03*
%TO.P,C101,1*%
%TO.N,GND*%
X127876300Y-106278100D03*
%TD*%
D26*
%TO.N,/D1+*%
X129755900Y-100863400D03*
%TO.N,/D1-*%
X128993900Y-100025200D03*
%TO.N,/D2+*%
X119367300Y-103606600D03*
X119329200Y-98145600D03*
X129552700Y-98069400D03*
%TO.N,/D2-*%
X135801100Y-99964899D03*
%TO.N,/D3+*%
X136385300Y-101168200D03*
%TO.N,/D3-*%
X137287000Y-99987100D03*
%TO.N,/D4+*%
X137020300Y-96850200D03*
%TO.N,/D4-*%
X137083800Y-95707200D03*
%TO.N,/USB3*%
X148107400Y-106070400D03*
X138468100Y-89979500D03*
%TO.N,/USB4*%
X184975500Y-90011002D03*
%TO.N,/L2R*%
X116370100Y-94970600D03*
%TO.N,/L2G*%
X111226600Y-95008700D03*
%TO.N,/L1R*%
X104952800Y-94996000D03*
%TO.N,/L1G*%
X98094800Y-94830900D03*
%TO.N,/L4R*%
X175310800Y-89674700D03*
%TO.N,/L4G*%
X169481500Y-89763600D03*
%TO.N,/L3R*%
X161899600Y-89877900D03*
X141795500Y-81851500D03*
%TO.N,/L3G*%
X155892500Y-89598500D03*
%TO.N,/VD18*%
X131775200Y-96393000D03*
X139547600Y-92583000D03*
%TO.N,Net-(IC101-Pad19)*%
X141784899Y-99239899D03*
%TO.N,/D0+*%
X154965400Y-101003100D03*
%TO.N,/DO-*%
X154978100Y-102870000D03*
%TD*%
D27*
%TO.N,GND*%
X158774264Y-111676199D02*
X157049265Y-109951200D01*
X158774264Y-119636101D02*
X158774264Y-111676199D01*
X156989265Y-121421100D02*
X158774264Y-119636101D01*
X132823932Y-111853999D02*
X131098933Y-110129000D01*
X132823932Y-119750401D02*
X132823932Y-111853999D01*
X131038933Y-121535400D02*
X132823932Y-119750401D01*
X107305399Y-110977699D02*
X105580400Y-109252700D01*
X107305399Y-119636101D02*
X107305399Y-110977699D01*
X105520400Y-121421100D02*
X107305399Y-119636101D01*
X153878000Y-83210400D02*
X148196300Y-83210400D01*
X159979400Y-89311800D02*
X153878000Y-83210400D01*
X164653999Y-88386799D02*
X165579000Y-89311800D01*
X160904401Y-88386799D02*
X164653999Y-88386799D01*
X159979400Y-89311800D02*
X160904401Y-88386799D01*
X172744999Y-88323299D02*
X173670000Y-89248300D01*
X166567501Y-88323299D02*
X172744999Y-88323299D01*
X165579000Y-89311800D02*
X166567501Y-88323299D01*
X174595001Y-88323299D02*
X178275699Y-88323299D01*
X178275699Y-88323299D02*
X179200700Y-89248300D01*
X173670000Y-89248300D02*
X174595001Y-88323299D01*
X179200700Y-89248300D02*
X181055600Y-89248300D01*
X101993299Y-88424899D02*
X102918300Y-89349900D01*
X98045901Y-88424899D02*
X101993299Y-88424899D01*
X97120900Y-89349900D02*
X98045901Y-88424899D01*
X103970301Y-88297899D02*
X109091799Y-88297899D01*
X109091799Y-88297899D02*
X110016800Y-89222900D01*
X102918300Y-89349900D02*
X103970301Y-88297899D01*
X114883799Y-88297899D02*
X115808800Y-89222900D01*
X110941801Y-88297899D02*
X114883799Y-88297899D01*
X110016800Y-89222900D02*
X110941801Y-88297899D01*
X134153131Y-110524800D02*
X132823932Y-111853999D01*
X136601200Y-110524800D02*
X134153131Y-110524800D01*
X128461301Y-105693099D02*
X127876300Y-106278100D01*
X131713401Y-105693099D02*
X128461301Y-105693099D01*
X131778401Y-109449532D02*
X131778401Y-105758099D01*
X131778401Y-105758099D02*
X131713401Y-105693099D01*
X131098933Y-110129000D02*
X131778401Y-109449532D01*
X131591400Y-94138000D02*
X134105100Y-94138000D01*
X130132400Y-92679000D02*
X131591400Y-94138000D01*
X130132400Y-91694000D02*
X130132400Y-92679000D01*
X134396299Y-83738401D02*
X134968299Y-84310401D01*
X134396299Y-82682399D02*
X134396299Y-83738401D01*
X134968299Y-84310401D02*
X139476299Y-84310401D01*
X133824299Y-82110399D02*
X134396299Y-82682399D01*
X122921301Y-82110399D02*
X133824299Y-82110399D01*
X115808800Y-89222900D02*
X122921301Y-82110399D01*
X181055600Y-91693200D02*
X181055600Y-89248300D01*
X184171800Y-94809400D02*
X181055600Y-91693200D01*
X184171800Y-95669400D02*
X184171800Y-94809400D01*
X181461800Y-98379400D02*
X184171800Y-95669400D01*
X160296063Y-110154400D02*
X158774264Y-111676199D01*
X166578500Y-110154400D02*
X160296063Y-110154400D01*
X139476299Y-84310401D02*
X140576300Y-83210400D01*
X139476299Y-90044303D02*
X139476299Y-84310401D01*
X138816101Y-90704501D02*
X139476299Y-90044303D01*
X138049597Y-90633999D02*
X138120099Y-90704501D01*
X130207401Y-90633999D02*
X138049597Y-90633999D01*
X130132400Y-90709000D02*
X130207401Y-90633999D01*
X138120099Y-90704501D02*
X138816101Y-90704501D01*
X130132400Y-91694000D02*
X130132400Y-90709000D01*
X96195899Y-88424899D02*
X97120900Y-89349900D01*
X92201601Y-88424899D02*
X96195899Y-88424899D01*
X82887300Y-97739200D02*
X92201601Y-88424899D01*
X140690200Y-110524800D02*
X140970000Y-110245000D01*
X136601200Y-110524800D02*
X140690200Y-110524800D01*
%TO.N,/D1+*%
X130081300Y-100538000D02*
X134105100Y-100538000D01*
X129755900Y-100863400D02*
X130081300Y-100538000D01*
%TO.N,/D1-*%
X129121100Y-99898000D02*
X134105100Y-99898000D01*
X128993900Y-100025200D02*
X129121100Y-99898000D01*
%TO.N,/D2+*%
X119367300Y-103606600D02*
X119367300Y-98183700D01*
X119367300Y-98183700D02*
X119329200Y-98145600D01*
X130741300Y-99258000D02*
X134105100Y-99258000D01*
X129552700Y-98069400D02*
X130741300Y-99258000D01*
%TO.N,/D2-*%
X135105100Y-98618000D02*
X134105100Y-98618000D01*
X135801100Y-99314000D02*
X135105100Y-98618000D01*
X135801100Y-99964899D02*
X135801100Y-99314000D01*
%TO.N,/D3+*%
X135101510Y-97978000D02*
X134105100Y-97978000D01*
X136526101Y-99402591D02*
X135101510Y-97978000D01*
X136526101Y-100312900D02*
X136526101Y-99402591D01*
X136385300Y-100453701D02*
X136526101Y-100312900D01*
X136385300Y-101168200D02*
X136385300Y-100453701D01*
%TO.N,/D3-*%
X135032602Y-97338000D02*
X134105100Y-97338000D01*
X135203585Y-97338000D02*
X134105100Y-97338000D01*
X137287000Y-99421415D02*
X135203585Y-97338000D01*
X137287000Y-99987100D02*
X137287000Y-99421415D01*
%TO.N,/D4+*%
X136868100Y-96698000D02*
X137020300Y-96850200D01*
X134105100Y-96698000D02*
X136868100Y-96698000D01*
%TO.N,/D4-*%
X136733000Y-96058000D02*
X134105100Y-96058000D01*
X137083800Y-95707200D02*
X136733000Y-96058000D01*
%TO.N,/USB1*%
X125336300Y-87077402D02*
X125336300Y-85750400D01*
X107344803Y-105068899D02*
X125336300Y-87077402D01*
X106324001Y-105068899D02*
X107344803Y-105068899D01*
X105299000Y-106093900D02*
X106324001Y-105068899D01*
%TO.N,/USB2*%
X126436301Y-84310401D02*
X125336300Y-83210400D01*
X125108199Y-87941913D02*
X126436301Y-86613811D01*
X126436301Y-86613811D02*
X126436301Y-84310401D01*
X130978400Y-106718100D02*
X130543300Y-106718100D01*
X125108199Y-105315001D02*
X125108199Y-101409999D01*
X126881299Y-107088101D02*
X125108199Y-105315001D01*
X130173299Y-107088101D02*
X126881299Y-107088101D01*
X130543300Y-106718100D02*
X130173299Y-107088101D01*
X125108199Y-101409999D02*
X125108199Y-87941913D01*
X125108199Y-101765599D02*
X125108199Y-101409999D01*
%TO.N,/USB3*%
X138441599Y-88494701D02*
X130620601Y-88494701D01*
X130620601Y-88494701D02*
X127876300Y-85750400D01*
X138468100Y-89979500D02*
X138468100Y-88521202D01*
X138468100Y-88521202D02*
X138441599Y-88494701D01*
X148145500Y-106108500D02*
X148107400Y-106070400D01*
X156988000Y-106108500D02*
X148145500Y-106108500D01*
%TO.N,/USB4*%
X169396601Y-104304399D02*
X183680801Y-104304399D01*
X166462200Y-107238800D02*
X169396601Y-104304399D01*
X186281801Y-91317303D02*
X184975500Y-90011002D01*
X186281801Y-101703399D02*
X186281801Y-91317303D01*
X183680801Y-104304399D02*
X186281801Y-101703399D01*
%TO.N,+12V*%
X109880899Y-80366099D02*
X110705900Y-81191100D01*
X98762001Y-80366099D02*
X109880899Y-80366099D01*
X97810000Y-81318100D02*
X98762001Y-80366099D01*
X143418698Y-81280000D02*
X160655000Y-81280000D01*
X141676301Y-84650399D02*
X141676301Y-83022397D01*
X141676301Y-83022397D02*
X143418698Y-81280000D01*
X140576300Y-85750400D02*
X141676301Y-84650399D01*
X111530901Y-80366099D02*
X110705900Y-81191100D01*
X142504797Y-80366099D02*
X111530901Y-80366099D01*
X143418698Y-81280000D02*
X142504797Y-80366099D01*
X173426299Y-80454999D02*
X174187800Y-81216500D01*
X161480001Y-80454999D02*
X173426299Y-80454999D01*
X160655000Y-81280000D02*
X161480001Y-80454999D01*
%TO.N,/L2R*%
X113983400Y-96618300D02*
X114722400Y-96618300D01*
X114722400Y-96618300D02*
X116370100Y-94970600D01*
%TO.N,/L2G*%
X108191400Y-96618300D02*
X109617000Y-96618300D01*
X109617000Y-96618300D02*
X111226600Y-95008700D01*
%TO.N,/L1R*%
X101092900Y-96745300D02*
X103203500Y-96745300D01*
X103203500Y-96745300D02*
X104952800Y-94996000D01*
%TO.N,/L1G*%
X95295500Y-96745300D02*
X96180400Y-96745300D01*
X96180400Y-96745300D02*
X98094800Y-94830900D01*
%TO.N,+5V*%
X146419265Y-111719200D02*
X148969265Y-109169200D01*
X146419265Y-118711100D02*
X146419265Y-111719200D01*
X94950400Y-111719200D02*
X97500400Y-109169200D01*
X94950400Y-118711100D02*
X94950400Y-111719200D01*
X116486131Y-118825400D02*
X120468933Y-118825400D01*
X94950400Y-118711100D02*
X99770401Y-123531101D01*
X142436463Y-118711100D02*
X146419265Y-118711100D01*
X120468933Y-118825400D02*
X125288934Y-123645401D01*
X168018498Y-118622200D02*
X172001300Y-118622200D01*
X146419265Y-118711100D02*
X151239266Y-123531101D01*
X120634033Y-111668400D02*
X123018933Y-109283500D01*
X120634033Y-118825400D02*
X120634033Y-111668400D01*
X163109597Y-123531101D02*
X163354599Y-123286099D01*
X151239266Y-123531101D02*
X163109597Y-123531101D01*
X163198497Y-123442201D02*
X163354599Y-123286099D01*
X163354599Y-123286099D02*
X168018498Y-118622200D01*
X137502163Y-123645401D02*
X137952482Y-123195082D01*
X125288934Y-123645401D02*
X137502163Y-123645401D01*
X137616462Y-123531101D02*
X137952482Y-123195082D01*
X137952482Y-123195082D02*
X142436463Y-118711100D01*
X111780429Y-123531101D02*
X112867865Y-122443665D01*
X99770401Y-123531101D02*
X111780429Y-123531101D01*
X112867865Y-122443665D02*
X116486131Y-118825400D01*
X96586000Y-110083600D02*
X97500400Y-109169200D01*
X139529100Y-99258000D02*
X140541600Y-99258000D01*
X143116300Y-85750400D02*
X145656300Y-85750400D01*
X145656300Y-85750400D02*
X148196300Y-85750400D01*
X159026100Y-102882700D02*
X159089600Y-102946200D01*
X159026100Y-99923600D02*
X159026100Y-102882700D01*
X158187999Y-106668503D02*
X156919202Y-107937300D01*
X159089600Y-102946200D02*
X158187999Y-103847801D01*
X158187999Y-103847801D02*
X158187999Y-106668503D01*
X150201165Y-107937300D02*
X148969265Y-109169200D01*
X156919202Y-107937300D02*
X150201165Y-107937300D01*
X172552199Y-111079401D02*
X174551300Y-109080300D01*
X167618497Y-111079401D02*
X172552199Y-111079401D01*
X166903499Y-111794399D02*
X167618497Y-111079401D01*
X166903499Y-113524399D02*
X166903499Y-111794399D01*
X172001300Y-118622200D02*
X166903499Y-113524399D01*
X178252200Y-105379400D02*
X181461800Y-105379400D01*
X174551300Y-109080300D02*
X178252200Y-105379400D01*
X167138501Y-109229399D02*
X167618497Y-109709395D01*
X165372799Y-109229399D02*
X167138501Y-109229399D01*
X167618497Y-109709395D02*
X167618497Y-111079401D01*
X159089600Y-102946200D02*
X165372799Y-109229399D01*
X140541600Y-99258000D02*
X143116300Y-96683300D01*
X143014700Y-91694000D02*
X143116300Y-91592400D01*
X143116300Y-96683300D02*
X143116300Y-91592400D01*
X131792400Y-91694000D02*
X143014700Y-91694000D01*
X143116300Y-91592400D02*
X143116300Y-85750400D01*
X156182212Y-96683300D02*
X143116300Y-96683300D01*
X158276110Y-98777198D02*
X156182212Y-96683300D01*
X158276111Y-99898611D02*
X158276110Y-98777198D01*
X158301100Y-99923600D02*
X158276111Y-99898611D01*
X159026100Y-99923600D02*
X158301100Y-99923600D01*
X86126700Y-108686600D02*
X86012400Y-108800900D01*
X97500400Y-109169200D02*
X97017800Y-108686600D01*
X97017800Y-108686600D02*
X86126700Y-108686600D01*
%TO.N,/L4R*%
X177375300Y-96643700D02*
X175310800Y-94579200D01*
X175310800Y-94579200D02*
X175310800Y-89674700D01*
%TO.N,/L4G*%
X171844600Y-96643700D02*
X169481500Y-94280600D01*
X169481500Y-94280600D02*
X169481500Y-89763600D01*
%TO.N,/L3R*%
X163753600Y-96707200D02*
X161899600Y-94853200D01*
X161899600Y-94853200D02*
X161899600Y-89877900D01*
X136855200Y-81851500D02*
X135496300Y-83210400D01*
X141795500Y-81851500D02*
X136855200Y-81851500D01*
%TO.N,/L3G*%
X158154000Y-96707200D02*
X155892500Y-94445700D01*
X155892500Y-94445700D02*
X155892500Y-89598500D01*
%TO.N,/VD18*%
X131316400Y-101178000D02*
X134105100Y-101178000D01*
X127876300Y-104618100D02*
X131316400Y-101178000D01*
X127876300Y-104618100D02*
X127876300Y-98672798D01*
X130156098Y-96393000D02*
X131775200Y-96393000D01*
X127876300Y-98672798D02*
X130156098Y-96393000D01*
X139547600Y-94119500D02*
X139529100Y-94138000D01*
X139547600Y-92583000D02*
X139547600Y-94119500D01*
%TO.N,/VD33*%
X138601598Y-98618000D02*
X139529100Y-98618000D01*
X138441599Y-98777999D02*
X138601598Y-98618000D01*
X138441599Y-100378001D02*
X138441599Y-98777999D01*
X138601598Y-100538000D02*
X138441599Y-100378001D01*
X139529100Y-100538000D02*
X138601598Y-100538000D01*
X134180301Y-101893201D02*
X134105100Y-101818000D01*
X136733301Y-101893201D02*
X134180301Y-101893201D01*
X138088502Y-100538000D02*
X136733301Y-101893201D01*
X139529100Y-100538000D02*
X138088502Y-100538000D01*
X140970000Y-106129900D02*
X136733301Y-101893201D01*
X140970000Y-108585000D02*
X140970000Y-106129900D01*
%TO.N,Net-(IC101-Pad19)*%
X141126798Y-99898000D02*
X139529100Y-99898000D01*
X141784899Y-99239899D02*
X141126798Y-99898000D01*
X157826101Y-102209699D02*
X157826101Y-98963599D01*
X155219400Y-97853500D02*
X144705902Y-97853500D01*
X157089600Y-102946200D02*
X157826101Y-102209699D01*
X156264499Y-98898599D02*
X155219400Y-97853500D01*
X157761101Y-98898599D02*
X156264499Y-98898599D01*
X157826101Y-98963599D02*
X157761101Y-98898599D01*
X143319503Y-99239899D02*
X144705902Y-97853500D01*
X141784899Y-99239899D02*
X143319503Y-99239899D01*
%TO.N,Net-(IC101-Pad17)*%
X147649201Y-98498999D02*
X146674200Y-99474000D01*
X144970200Y-101178000D02*
X139529100Y-101178000D01*
X146674200Y-99474000D02*
X144970200Y-101178000D01*
X156438600Y-99923600D02*
X155013999Y-98498999D01*
X157026100Y-99923600D02*
X156438600Y-99923600D01*
X155013999Y-98498999D02*
X147649201Y-98498999D01*
%TO.N,/D0+*%
X154150500Y-101818000D02*
X139529100Y-101818000D01*
X154965400Y-101003100D02*
X154150500Y-101818000D01*
%TO.N,/DO-*%
X154566100Y-102458000D02*
X139529100Y-102458000D01*
X154978100Y-102870000D02*
X154566100Y-102458000D01*
%TO.N,Net-(IC101-Pad14)*%
X134105100Y-106028700D02*
X136601200Y-108524800D01*
X134105100Y-102458000D02*
X134105100Y-106028700D01*
%TO.N,Net-(IC101-Pad3)*%
X125933200Y-99357794D02*
X129872994Y-95418000D01*
X129872994Y-95418000D02*
X130939900Y-95418000D01*
X130580100Y-95418000D02*
X130939900Y-95418000D01*
X125933200Y-100064900D02*
X125933200Y-99357794D01*
X130939900Y-95418000D02*
X134105100Y-95418000D01*
%TO.N,Net-(IC101-Pad2)*%
X126340100Y-94778000D02*
X134105100Y-94778000D01*
X125933200Y-95184900D02*
X126340100Y-94778000D01*
%TO.N,Net-(LED601-Pad1)*%
X174501300Y-111030300D02*
X176451300Y-109080300D01*
X174501300Y-113626900D02*
X174501300Y-111030300D01*
%TO.N,Net-(LED701-Pad1)*%
X148919265Y-111119200D02*
X150869265Y-109169200D01*
X148919265Y-113715800D02*
X148919265Y-111119200D01*
%TO.N,Net-(LED801-Pad1)*%
X122968933Y-111233500D02*
X124918933Y-109283500D01*
X122968933Y-113830100D02*
X122968933Y-111233500D01*
%TO.N,Net-(LED901-Pad1)*%
X97450400Y-111119200D02*
X99400400Y-109169200D01*
X97450400Y-113715800D02*
X97450400Y-111119200D01*
%TO.N,Net-(J201-Pad3)*%
X101968300Y-82976400D02*
X100310000Y-81318100D01*
X101968300Y-86849900D02*
X101968300Y-82976400D01*
%TO.N,Net-(J201-Pad2)*%
X99060000Y-83960800D02*
X99060000Y-81318100D01*
X96170900Y-86849900D02*
X99060000Y-83960800D01*
%TO.N,Net-(J301-Pad3)*%
X114858800Y-82844000D02*
X113205900Y-81191100D01*
X114858800Y-86722900D02*
X114858800Y-82844000D01*
%TO.N,Net-(J301-Pad2)*%
X111955900Y-83833800D02*
X111955900Y-81191100D01*
X109066800Y-86722900D02*
X111955900Y-83833800D01*
%TO.N,Net-(J401-Pad3)*%
X164629000Y-82754000D02*
X163155000Y-81280000D01*
X164629000Y-86811800D02*
X164629000Y-82754000D01*
%TO.N,Net-(J401-Pad2)*%
X161905000Y-83936200D02*
X161905000Y-81280000D01*
X159029400Y-86811800D02*
X161905000Y-83936200D01*
%TO.N,Net-(J501-Pad3)*%
X178250700Y-82779400D02*
X176687800Y-81216500D01*
X178250700Y-86748300D02*
X178250700Y-82779400D01*
%TO.N,Net-(J501-Pad2)*%
X175437800Y-84030500D02*
X175437800Y-81216500D01*
X172720000Y-86748300D02*
X175437800Y-84030500D01*
%TO.N,Net-(J601-Pad4)*%
X179001300Y-116126900D02*
X176501300Y-113626900D01*
X179001300Y-118622200D02*
X179001300Y-116126900D01*
X176501300Y-113626900D02*
X176501300Y-113681000D01*
X175530399Y-114651901D02*
X169526001Y-114651901D01*
X169526001Y-114651901D02*
X167528500Y-112654400D01*
X176501300Y-113681000D02*
X175530399Y-114651901D01*
%TO.N,Net-(J701-Pad4)*%
X153419265Y-116215800D02*
X150919265Y-113715800D01*
X153419265Y-118711100D02*
X153419265Y-116215800D01*
X153419265Y-118711100D02*
X153419265Y-117031200D01*
X154234665Y-116215800D02*
X157999265Y-112451200D01*
X153419265Y-116215800D02*
X154234665Y-116215800D01*
%TO.N,Net-(J801-Pad4)*%
X127468933Y-116330100D02*
X124968933Y-113830100D01*
X127635000Y-118825400D02*
X127635000Y-116330100D01*
X128347833Y-116330100D02*
X132048933Y-112629000D01*
X127468933Y-116330100D02*
X128347833Y-116330100D01*
%TO.N,Net-(J901-Pad4)*%
X101950400Y-116215800D02*
X99450400Y-113715800D01*
X101950400Y-118711100D02*
X101950400Y-116215800D01*
X102067300Y-116215800D02*
X106530400Y-111752700D01*
X101950400Y-116215800D02*
X102067300Y-116215800D01*
%TO.N,Net-(Q201-Pad1)*%
X95295500Y-89424500D02*
X95220900Y-89349900D01*
X95295500Y-94745300D02*
X95295500Y-89424500D01*
%TO.N,Net-(Q202-Pad1)*%
X101092900Y-89424500D02*
X101018300Y-89349900D01*
X101092900Y-94745300D02*
X101092900Y-89424500D01*
%TO.N,Net-(Q301-Pad1)*%
X108191400Y-89297500D02*
X108116800Y-89222900D01*
X108191400Y-94618300D02*
X108191400Y-89297500D01*
%TO.N,Net-(Q302-Pad1)*%
X113908800Y-94543700D02*
X113983400Y-94618300D01*
X113908800Y-89222900D02*
X113908800Y-94543700D01*
%TO.N,Net-(Q401-Pad1)*%
X158154000Y-89386400D02*
X158079400Y-89311800D01*
X158154000Y-94707200D02*
X158154000Y-89386400D01*
%TO.N,Net-(Q402-Pad1)*%
X163753600Y-89386400D02*
X163679000Y-89311800D01*
X163753600Y-94707200D02*
X163753600Y-89386400D01*
%TO.N,Net-(Q501-Pad1)*%
X171844600Y-89322900D02*
X171770000Y-89248300D01*
X171844600Y-94643700D02*
X171844600Y-89322900D01*
%TO.N,Net-(Q502-Pad1)*%
X177375300Y-89322900D02*
X177300700Y-89248300D01*
X177375300Y-94643700D02*
X177375300Y-89322900D01*
%TO.N,Net-(Q601-Pad1)*%
X168478500Y-107255100D02*
X168462200Y-107238800D01*
X168478500Y-110154400D02*
X168478500Y-107255100D01*
%TO.N,Net-(Q701-Pad1)*%
X158949265Y-106147235D02*
X158988000Y-106108500D01*
X158949265Y-109951200D02*
X158949265Y-106147235D01*
%TO.N,Net-(Q801-Pad1)*%
X132998933Y-106738633D02*
X132978400Y-106718100D01*
X132998933Y-110129000D02*
X132998933Y-106738633D01*
%TO.N,Net-(Q901-Pad1)*%
X107399000Y-105993900D02*
X107299000Y-106093900D01*
X107480400Y-106275300D02*
X107299000Y-106093900D01*
X107480400Y-109252700D02*
X107480400Y-106275300D01*
%TD*%
M02*
