%TF.GenerationSoftware,KiCad,Pcbnew,(5.1.6)-1*%
%TF.CreationDate,2020-10-27T11:33:51-07:00*%
%TF.ProjectId,main,6d61696e-2e6b-4696-9361-645f70636258,rev?*%
%TF.SameCoordinates,Original*%
%TF.FileFunction,Soldermask,Top*%
%TF.FilePolarity,Negative*%
%FSLAX46Y46*%
G04 Gerber Fmt 4.6, Leading zero omitted, Abs format (unit mm)*
G04 Created by KiCad (PCBNEW (5.1.6)-1) date 2020-10-27 11:33:51*
%MOMM*%
%LPD*%
G01*
G04 APERTURE LIST*
%ADD10C,1.100000*%
%ADD11C,1.400000*%
%ADD12R,1.050000X1.500000*%
%ADD13R,1.500000X1.050000*%
%ADD14R,0.700000X1.300000*%
%ADD15R,1.000000X1.500000*%
%ADD16C,3.670000*%
%ADD17C,1.600000*%
%ADD18R,1.100000X1.100000*%
%ADD19C,2.650000*%
%ADD20C,1.650000*%
%ADD21C,4.840000*%
%ADD22C,5.560000*%
%ADD23R,1.625000X0.540000*%
%ADD24R,1.570000X1.070000*%
%ADD25R,1.070000X1.570000*%
G04 APERTURE END LIST*
D10*
%TO.C,Y101*%
X125933200Y-95184900D03*
X125933200Y-100064900D03*
%TD*%
D11*
%TO.C,S101*%
X146674200Y-99474000D03*
X149174200Y-99474000D03*
X151674200Y-99474000D03*
X146674200Y-94074000D03*
X149174200Y-94074000D03*
X151674200Y-94074000D03*
%TD*%
D12*
%TO.C,R902*%
X97450400Y-113715800D03*
X99450400Y-113715800D03*
%TD*%
%TO.C,R901*%
X107299000Y-106093900D03*
X105299000Y-106093900D03*
%TD*%
%TO.C,R802*%
X122968933Y-113830100D03*
X124968933Y-113830100D03*
%TD*%
%TO.C,R801*%
X132978400Y-106718100D03*
X130978400Y-106718100D03*
%TD*%
%TO.C,R702*%
X148919265Y-113715800D03*
X150919265Y-113715800D03*
%TD*%
%TO.C,R701*%
X158988000Y-106108500D03*
X156988000Y-106108500D03*
%TD*%
%TO.C,R602*%
X174501300Y-113626900D03*
X176501300Y-113626900D03*
%TD*%
%TO.C,R601*%
X168462200Y-107238800D03*
X166462200Y-107238800D03*
%TD*%
D13*
%TO.C,R502*%
X177375300Y-94643700D03*
X177375300Y-96643700D03*
%TD*%
%TO.C,R501*%
X171844600Y-94643700D03*
X171844600Y-96643700D03*
%TD*%
%TO.C,R402*%
X163753600Y-94707200D03*
X163753600Y-96707200D03*
%TD*%
%TO.C,R401*%
X158154000Y-94707200D03*
X158154000Y-96707200D03*
%TD*%
%TO.C,R302*%
X113983400Y-94618300D03*
X113983400Y-96618300D03*
%TD*%
%TO.C,R301*%
X108191400Y-94618300D03*
X108191400Y-96618300D03*
%TD*%
%TO.C,R202*%
X101092900Y-94745300D03*
X101092900Y-96745300D03*
%TD*%
%TO.C,R201*%
X95295500Y-94745300D03*
X95295500Y-96745300D03*
%TD*%
D12*
%TO.C,R103*%
X157026100Y-99923600D03*
X159026100Y-99923600D03*
%TD*%
%TO.C,R102*%
X157089600Y-102946200D03*
X159089600Y-102946200D03*
%TD*%
D13*
%TO.C,R101*%
X136601200Y-110524800D03*
X136601200Y-108524800D03*
%TD*%
D14*
%TO.C,Q901*%
X106530400Y-111752700D03*
X105580400Y-109252700D03*
X107480400Y-109252700D03*
%TD*%
%TO.C,Q801*%
X132048933Y-112629000D03*
X131098933Y-110129000D03*
X132998933Y-110129000D03*
%TD*%
%TO.C,Q701*%
X157999265Y-112451200D03*
X157049265Y-109951200D03*
X158949265Y-109951200D03*
%TD*%
%TO.C,Q601*%
X167528500Y-112654400D03*
X166578500Y-110154400D03*
X168478500Y-110154400D03*
%TD*%
%TO.C,Q502*%
X178250700Y-86748300D03*
X179200700Y-89248300D03*
X177300700Y-89248300D03*
%TD*%
%TO.C,Q501*%
X172720000Y-86748300D03*
X173670000Y-89248300D03*
X171770000Y-89248300D03*
%TD*%
%TO.C,Q402*%
X164629000Y-86811800D03*
X165579000Y-89311800D03*
X163679000Y-89311800D03*
%TD*%
%TO.C,Q401*%
X159029400Y-86811800D03*
X159979400Y-89311800D03*
X158079400Y-89311800D03*
%TD*%
%TO.C,Q302*%
X114858800Y-86722900D03*
X115808800Y-89222900D03*
X113908800Y-89222900D03*
%TD*%
%TO.C,Q301*%
X109066800Y-86722900D03*
X110016800Y-89222900D03*
X108116800Y-89222900D03*
%TD*%
%TO.C,Q202*%
X101968300Y-86849900D03*
X102918300Y-89349900D03*
X101018300Y-89349900D03*
%TD*%
%TO.C,Q201*%
X96170900Y-86849900D03*
X97120900Y-89349900D03*
X95220900Y-89349900D03*
%TD*%
D15*
%TO.C,LED901*%
X97500400Y-109169200D03*
X99400400Y-109169200D03*
%TD*%
%TO.C,LED801*%
X123018933Y-109283500D03*
X124918933Y-109283500D03*
%TD*%
%TO.C,LED701*%
X148969265Y-109169200D03*
X150869265Y-109169200D03*
%TD*%
%TO.C,LED601*%
X174551300Y-109080300D03*
X176451300Y-109080300D03*
%TD*%
D16*
%TO.C,J901*%
X105520400Y-121421100D03*
X91380400Y-121421100D03*
D17*
X101950400Y-118711100D03*
X99450400Y-118711100D03*
X97450400Y-118711100D03*
X94950400Y-118711100D03*
%TD*%
D16*
%TO.C,J801*%
X131204033Y-121535400D03*
X117064033Y-121535400D03*
D17*
X127634033Y-118825400D03*
X125134033Y-118825400D03*
X123134033Y-118825400D03*
X120634033Y-118825400D03*
%TD*%
D16*
%TO.C,J701*%
X156887666Y-121421100D03*
X142747666Y-121421100D03*
D17*
X153317666Y-118711100D03*
X150817666Y-118711100D03*
X148817666Y-118711100D03*
X146317666Y-118711100D03*
%TD*%
D16*
%TO.C,J601*%
X182571300Y-121332200D03*
X168431300Y-121332200D03*
D17*
X179001300Y-118622200D03*
X176501300Y-118622200D03*
X174501300Y-118622200D03*
X172001300Y-118622200D03*
%TD*%
D10*
%TO.C,J501*%
X176687800Y-81216500D03*
X175437800Y-81216500D03*
D18*
X174187800Y-81216500D03*
%TD*%
D10*
%TO.C,J401*%
X163155000Y-81280000D03*
X161905000Y-81280000D03*
D18*
X160655000Y-81280000D03*
%TD*%
D10*
%TO.C,J301*%
X113205900Y-81191100D03*
X111955900Y-81191100D03*
D18*
X110705900Y-81191100D03*
%TD*%
D10*
%TO.C,J201*%
X100310000Y-81318100D03*
X99060000Y-81318100D03*
D18*
X97810000Y-81318100D03*
%TD*%
D19*
%TO.C,J104*%
X83472400Y-111500900D03*
X81012400Y-108800900D03*
X86012400Y-108800900D03*
%TD*%
D20*
%TO.C,J103*%
X148196300Y-83210400D03*
X148196300Y-85750400D03*
X145656300Y-83210400D03*
X145656300Y-85750400D03*
X143116300Y-83210400D03*
X143116300Y-85750400D03*
X140576300Y-83210400D03*
X140576300Y-85750400D03*
X138036300Y-83210400D03*
X138036300Y-85750400D03*
X135496300Y-83210400D03*
X135496300Y-85750400D03*
X132956300Y-83210400D03*
X132956300Y-85750400D03*
X130416300Y-83210400D03*
X130416300Y-85750400D03*
X127876300Y-83210400D03*
X127876300Y-85750400D03*
X125336300Y-83210400D03*
X125336300Y-85750400D03*
%TD*%
D16*
%TO.C,J102*%
X184171800Y-94809400D03*
X184171800Y-108949400D03*
D17*
X181461800Y-98379400D03*
X181461800Y-100879400D03*
X181461800Y-102879400D03*
X181461800Y-105379400D03*
%TD*%
D21*
%TO.C,J101*%
X82887300Y-97739200D03*
D22*
X88887300Y-97739200D03*
%TD*%
D23*
%TO.C,IC101*%
X139529100Y-94138000D03*
X139529100Y-94778000D03*
X139529100Y-95418000D03*
X139529100Y-96058000D03*
X139529100Y-96698000D03*
X139529100Y-97338000D03*
X139529100Y-97978000D03*
X139529100Y-98618000D03*
X139529100Y-99258000D03*
X139529100Y-99898000D03*
X139529100Y-100538000D03*
X139529100Y-101178000D03*
X139529100Y-101818000D03*
X139529100Y-102458000D03*
X134105100Y-102458000D03*
X134105100Y-101818000D03*
X134105100Y-101178000D03*
X134105100Y-100538000D03*
X134105100Y-99898000D03*
X134105100Y-99258000D03*
X134105100Y-98618000D03*
X134105100Y-97978000D03*
X134105100Y-97338000D03*
X134105100Y-96698000D03*
X134105100Y-96058000D03*
X134105100Y-95418000D03*
X134105100Y-94778000D03*
X134105100Y-94138000D03*
%TD*%
D24*
%TO.C,C104*%
X140970000Y-108585000D03*
X140970000Y-110245000D03*
%TD*%
D25*
%TO.C,C102*%
X131792400Y-91694000D03*
X130132400Y-91694000D03*
%TD*%
D24*
%TO.C,C101*%
X127876300Y-104618100D03*
X127876300Y-106278100D03*
%TD*%
M02*
