%TF.GenerationSoftware,KiCad,Pcbnew,(5.1.6)-1*%
%TF.CreationDate,2020-10-27T11:33:51-07:00*%
%TF.ProjectId,main,6d61696e-2e6b-4696-9361-645f70636258,rev?*%
%TF.SameCoordinates,Original*%
%TF.FileFunction,Soldermask,Bot*%
%TF.FilePolarity,Negative*%
%FSLAX46Y46*%
G04 Gerber Fmt 4.6, Leading zero omitted, Abs format (unit mm)*
G04 Created by KiCad (PCBNEW (5.1.6)-1) date 2020-10-27 11:33:51*
%MOMM*%
%LPD*%
G01*
G04 APERTURE LIST*
%ADD10C,1.100000*%
%ADD11C,1.400000*%
%ADD12C,3.670000*%
%ADD13C,1.600000*%
%ADD14R,1.100000X1.100000*%
%ADD15C,2.650000*%
%ADD16C,1.650000*%
%ADD17C,4.840000*%
%ADD18C,5.560000*%
G04 APERTURE END LIST*
D10*
%TO.C,Y101*%
X125933200Y-95184900D03*
X125933200Y-100064900D03*
%TD*%
D11*
%TO.C,S101*%
X146674200Y-99474000D03*
X149174200Y-99474000D03*
X151674200Y-99474000D03*
X146674200Y-94074000D03*
X149174200Y-94074000D03*
X151674200Y-94074000D03*
%TD*%
D12*
%TO.C,J901*%
X105520400Y-121421100D03*
X91380400Y-121421100D03*
D13*
X101950400Y-118711100D03*
X99450400Y-118711100D03*
X97450400Y-118711100D03*
X94950400Y-118711100D03*
%TD*%
D12*
%TO.C,J801*%
X131204033Y-121535400D03*
X117064033Y-121535400D03*
D13*
X127634033Y-118825400D03*
X125134033Y-118825400D03*
X123134033Y-118825400D03*
X120634033Y-118825400D03*
%TD*%
D12*
%TO.C,J701*%
X156887666Y-121421100D03*
X142747666Y-121421100D03*
D13*
X153317666Y-118711100D03*
X150817666Y-118711100D03*
X148817666Y-118711100D03*
X146317666Y-118711100D03*
%TD*%
D12*
%TO.C,J601*%
X182571300Y-121332200D03*
X168431300Y-121332200D03*
D13*
X179001300Y-118622200D03*
X176501300Y-118622200D03*
X174501300Y-118622200D03*
X172001300Y-118622200D03*
%TD*%
D10*
%TO.C,J501*%
X176687800Y-81216500D03*
X175437800Y-81216500D03*
D14*
X174187800Y-81216500D03*
%TD*%
D10*
%TO.C,J401*%
X163155000Y-81280000D03*
X161905000Y-81280000D03*
D14*
X160655000Y-81280000D03*
%TD*%
D10*
%TO.C,J301*%
X113205900Y-81191100D03*
X111955900Y-81191100D03*
D14*
X110705900Y-81191100D03*
%TD*%
D10*
%TO.C,J201*%
X100310000Y-81318100D03*
X99060000Y-81318100D03*
D14*
X97810000Y-81318100D03*
%TD*%
D15*
%TO.C,J104*%
X83472400Y-111500900D03*
X81012400Y-108800900D03*
X86012400Y-108800900D03*
%TD*%
D16*
%TO.C,J103*%
X148196300Y-83210400D03*
X148196300Y-85750400D03*
X145656300Y-83210400D03*
X145656300Y-85750400D03*
X143116300Y-83210400D03*
X143116300Y-85750400D03*
X140576300Y-83210400D03*
X140576300Y-85750400D03*
X138036300Y-83210400D03*
X138036300Y-85750400D03*
X135496300Y-83210400D03*
X135496300Y-85750400D03*
X132956300Y-83210400D03*
X132956300Y-85750400D03*
X130416300Y-83210400D03*
X130416300Y-85750400D03*
X127876300Y-83210400D03*
X127876300Y-85750400D03*
X125336300Y-83210400D03*
X125336300Y-85750400D03*
%TD*%
D12*
%TO.C,J102*%
X184171800Y-94809400D03*
X184171800Y-108949400D03*
D13*
X181461800Y-98379400D03*
X181461800Y-100879400D03*
X181461800Y-102879400D03*
X181461800Y-105379400D03*
%TD*%
D17*
%TO.C,J101*%
X82887300Y-97739200D03*
D18*
X88887300Y-97739200D03*
%TD*%
M02*
