%TF.GenerationSoftware,KiCad,Pcbnew,(5.1.6)-1*%
%TF.CreationDate,2020-10-27T11:33:51-07:00*%
%TF.ProjectId,main,6d61696e-2e6b-4696-9361-645f70636258,rev?*%
%TF.SameCoordinates,Original*%
%TF.FileFunction,Copper,L2,Bot*%
%TF.FilePolarity,Positive*%
%FSLAX46Y46*%
G04 Gerber Fmt 4.6, Leading zero omitted, Abs format (unit mm)*
G04 Created by KiCad (PCBNEW (5.1.6)-1) date 2020-10-27 11:33:51*
%MOMM*%
%LPD*%
G01*
G04 APERTURE LIST*
%TA.AperFunction,ComponentPad*%
%ADD10C,1.000000*%
%TD*%
%TA.AperFunction,ComponentPad*%
%ADD11C,1.300000*%
%TD*%
%TA.AperFunction,ComponentPad*%
%ADD12C,3.570000*%
%TD*%
%TA.AperFunction,ComponentPad*%
%ADD13C,1.500000*%
%TD*%
%TA.AperFunction,ComponentPad*%
%ADD14R,1.000000X1.000000*%
%TD*%
%TA.AperFunction,ComponentPad*%
%ADD15C,2.550000*%
%TD*%
%TA.AperFunction,ComponentPad*%
%ADD16C,1.550000*%
%TD*%
%TA.AperFunction,ComponentPad*%
%ADD17C,4.740000*%
%TD*%
%TA.AperFunction,ComponentPad*%
%ADD18C,5.460000*%
%TD*%
%TA.AperFunction,ViaPad*%
%ADD19C,0.800000*%
%TD*%
%TA.AperFunction,Conductor*%
%ADD20C,0.250000*%
%TD*%
%TA.AperFunction,Conductor*%
%ADD21C,0.254000*%
%TD*%
G04 APERTURE END LIST*
D10*
%TO.P,Y101,2*%
%TO.N,Net-(IC101-Pad2)*%
X125933200Y-95184900D03*
%TO.P,Y101,1*%
%TO.N,Net-(IC101-Pad3)*%
X125933200Y-100064900D03*
%TD*%
D11*
%TO.P,S101,6*%
%TO.N,Net-(IC101-Pad17)*%
X146674200Y-99474000D03*
%TO.P,S101,5*%
%TO.N,GND*%
X149174200Y-99474000D03*
%TO.P,S101,4*%
%TO.N,Net-(S101-Pad4)*%
X151674200Y-99474000D03*
%TO.P,S101,3*%
%TO.N,Net-(S101-Pad3)*%
X146674200Y-94074000D03*
%TO.P,S101,2*%
%TO.N,Net-(S101-Pad2)*%
X149174200Y-94074000D03*
%TO.P,S101,1*%
%TO.N,Net-(S101-Pad1)*%
X151674200Y-94074000D03*
%TD*%
D12*
%TO.P,J901,6*%
%TO.N,GND*%
X105520400Y-121421100D03*
%TO.P,J901,5*%
%TO.N,Net-(J901-Pad5)*%
X91380400Y-121421100D03*
D13*
%TO.P,J901,4*%
%TO.N,Net-(J901-Pad4)*%
X101950400Y-118711100D03*
%TO.P,J901,3*%
%TO.N,/D1+*%
X99450400Y-118711100D03*
%TO.P,J901,2*%
%TO.N,/D1-*%
X97450400Y-118711100D03*
%TO.P,J901,1*%
%TO.N,+5V*%
X94950400Y-118711100D03*
%TD*%
D12*
%TO.P,J801,6*%
%TO.N,GND*%
X131204033Y-121535400D03*
%TO.P,J801,5*%
%TO.N,Net-(J801-Pad5)*%
X117064033Y-121535400D03*
D13*
%TO.P,J801,4*%
%TO.N,Net-(J801-Pad4)*%
X127634033Y-118825400D03*
%TO.P,J801,3*%
%TO.N,/D2+*%
X125134033Y-118825400D03*
%TO.P,J801,2*%
%TO.N,/D2-*%
X123134033Y-118825400D03*
%TO.P,J801,1*%
%TO.N,+5V*%
X120634033Y-118825400D03*
%TD*%
D12*
%TO.P,J701,6*%
%TO.N,GND*%
X156887666Y-121421100D03*
%TO.P,J701,5*%
%TO.N,Net-(J701-Pad5)*%
X142747666Y-121421100D03*
D13*
%TO.P,J701,4*%
%TO.N,Net-(J701-Pad4)*%
X153317666Y-118711100D03*
%TO.P,J701,3*%
%TO.N,/D3+*%
X150817666Y-118711100D03*
%TO.P,J701,2*%
%TO.N,/D3-*%
X148817666Y-118711100D03*
%TO.P,J701,1*%
%TO.N,+5V*%
X146317666Y-118711100D03*
%TD*%
D12*
%TO.P,J601,6*%
%TO.N,GND*%
X182571300Y-121332200D03*
%TO.P,J601,5*%
%TO.N,Net-(J601-Pad5)*%
X168431300Y-121332200D03*
D13*
%TO.P,J601,4*%
%TO.N,Net-(J601-Pad4)*%
X179001300Y-118622200D03*
%TO.P,J601,3*%
%TO.N,/D4+*%
X176501300Y-118622200D03*
%TO.P,J601,2*%
%TO.N,/D4-*%
X174501300Y-118622200D03*
%TO.P,J601,1*%
%TO.N,+5V*%
X172001300Y-118622200D03*
%TD*%
D10*
%TO.P,J501,3*%
%TO.N,Net-(J501-Pad3)*%
X176687800Y-81216500D03*
%TO.P,J501,2*%
%TO.N,Net-(J501-Pad2)*%
X175437800Y-81216500D03*
D14*
%TO.P,J501,1*%
%TO.N,+12V*%
X174187800Y-81216500D03*
%TD*%
D10*
%TO.P,J401,3*%
%TO.N,Net-(J401-Pad3)*%
X163155000Y-81280000D03*
%TO.P,J401,2*%
%TO.N,Net-(J401-Pad2)*%
X161905000Y-81280000D03*
D14*
%TO.P,J401,1*%
%TO.N,+12V*%
X160655000Y-81280000D03*
%TD*%
D10*
%TO.P,J301,3*%
%TO.N,Net-(J301-Pad3)*%
X113205900Y-81191100D03*
%TO.P,J301,2*%
%TO.N,Net-(J301-Pad2)*%
X111955900Y-81191100D03*
D14*
%TO.P,J301,1*%
%TO.N,+12V*%
X110705900Y-81191100D03*
%TD*%
D10*
%TO.P,J201,3*%
%TO.N,Net-(J201-Pad3)*%
X100310000Y-81318100D03*
%TO.P,J201,2*%
%TO.N,Net-(J201-Pad2)*%
X99060000Y-81318100D03*
D14*
%TO.P,J201,1*%
%TO.N,+12V*%
X97810000Y-81318100D03*
%TD*%
D15*
%TO.P,J104,3*%
%TO.N,Net-(IC101-Pad19)*%
X83472400Y-111500900D03*
%TO.P,J104,2*%
%TO.N,GND*%
X81012400Y-108800900D03*
%TO.P,J104,1*%
%TO.N,+5V*%
X86012400Y-108800900D03*
%TD*%
D16*
%TO.P,J103,20*%
%TO.N,GND*%
X148196300Y-83210400D03*
%TO.P,J103,19*%
%TO.N,+5V*%
X148196300Y-85750400D03*
%TO.P,J103,18*%
%TO.N,GND*%
X145656300Y-83210400D03*
%TO.P,J103,17*%
%TO.N,+5V*%
X145656300Y-85750400D03*
%TO.P,J103,16*%
%TO.N,GND*%
X143116300Y-83210400D03*
%TO.P,J103,15*%
%TO.N,+5V*%
X143116300Y-85750400D03*
%TO.P,J103,14*%
%TO.N,GND*%
X140576300Y-83210400D03*
%TO.P,J103,13*%
%TO.N,+12V*%
X140576300Y-85750400D03*
%TO.P,J103,12*%
%TO.N,/L4R*%
X138036300Y-83210400D03*
%TO.P,J103,11*%
%TO.N,/L4G*%
X138036300Y-85750400D03*
%TO.P,J103,10*%
%TO.N,/L3R*%
X135496300Y-83210400D03*
%TO.P,J103,9*%
%TO.N,/L3G*%
X135496300Y-85750400D03*
%TO.P,J103,8*%
%TO.N,/L2R*%
X132956300Y-83210400D03*
%TO.P,J103,7*%
%TO.N,/L2G*%
X132956300Y-85750400D03*
%TO.P,J103,6*%
%TO.N,/L1R*%
X130416300Y-83210400D03*
%TO.P,J103,5*%
%TO.N,/L1G*%
X130416300Y-85750400D03*
%TO.P,J103,4*%
%TO.N,/USB4*%
X127876300Y-83210400D03*
%TO.P,J103,3*%
%TO.N,/USB3*%
X127876300Y-85750400D03*
%TO.P,J103,2*%
%TO.N,/USB2*%
X125336300Y-83210400D03*
%TO.P,J103,1*%
%TO.N,/USB1*%
X125336300Y-85750400D03*
%TD*%
D12*
%TO.P,J102,6*%
%TO.N,GND*%
X184171800Y-94809400D03*
%TO.P,J102,5*%
%TO.N,Net-(J102-Pad5)*%
X184171800Y-108949400D03*
D13*
%TO.P,J102,4*%
%TO.N,GND*%
X181461800Y-98379400D03*
%TO.P,J102,3*%
%TO.N,/D0+*%
X181461800Y-100879400D03*
%TO.P,J102,2*%
%TO.N,/DO-*%
X181461800Y-102879400D03*
%TO.P,J102,1*%
%TO.N,+5V*%
X181461800Y-105379400D03*
%TD*%
D17*
%TO.P,J101,2*%
%TO.N,GND*%
X82887300Y-97739200D03*
D18*
%TO.P,J101,1*%
%TO.N,+12V*%
X88887300Y-97739200D03*
%TD*%
D19*
%TO.N,/D1+*%
X129755900Y-100863400D03*
%TO.N,/D1-*%
X128993900Y-100025200D03*
%TO.N,/D2+*%
X119367300Y-103606600D03*
X119329200Y-98145600D03*
X129552700Y-98069400D03*
%TO.N,/D2-*%
X135801100Y-99964899D03*
%TO.N,/D3+*%
X136385300Y-101168200D03*
%TO.N,/D3-*%
X137287000Y-99987100D03*
%TO.N,/D4+*%
X137020300Y-96850200D03*
%TO.N,/D4-*%
X137083800Y-95707200D03*
%TO.N,/USB3*%
X148107400Y-106070400D03*
X138468100Y-89979500D03*
%TO.N,/USB4*%
X184975500Y-90011002D03*
%TO.N,/L2R*%
X116370100Y-94970600D03*
%TO.N,/L2G*%
X111226600Y-95008700D03*
%TO.N,/L1R*%
X104952800Y-94996000D03*
%TO.N,/L1G*%
X98094800Y-94830900D03*
%TO.N,/L4R*%
X175310800Y-89674700D03*
%TO.N,/L4G*%
X169481500Y-89763600D03*
%TO.N,/L3R*%
X161899600Y-89877900D03*
X141795500Y-81851500D03*
%TO.N,/L3G*%
X155892500Y-89598500D03*
%TO.N,/VD18*%
X131775200Y-96393000D03*
X139547600Y-92583000D03*
%TO.N,Net-(IC101-Pad19)*%
X141784899Y-99239899D03*
%TO.N,/D0+*%
X154965400Y-101003100D03*
%TO.N,/DO-*%
X154978100Y-102870000D03*
%TD*%
D20*
%TO.N,GND*%
X140576300Y-83210400D02*
X148196300Y-83210400D01*
%TO.N,/D1+*%
X99450400Y-118711100D02*
X115799500Y-102362000D01*
X115799500Y-102362000D02*
X128257300Y-102362000D01*
X128257300Y-102362000D02*
X129755900Y-100863400D01*
%TO.N,/D1-*%
X97450400Y-118711100D02*
X114764700Y-101396800D01*
X114764700Y-101396800D02*
X127622300Y-101396800D01*
X127622300Y-101396800D02*
X128993900Y-100025200D01*
%TO.N,/D2+*%
X125134033Y-118825400D02*
X124059032Y-119900401D01*
X120118032Y-119900401D02*
X119367300Y-119149669D01*
X124059032Y-119900401D02*
X120118032Y-119900401D01*
X119367300Y-119149669D02*
X119367300Y-103606600D01*
X119329200Y-98145600D02*
X129476500Y-98145600D01*
X129476500Y-98145600D02*
X129552700Y-98069400D01*
%TO.N,/D2-*%
X122059032Y-117750399D02*
X122059032Y-109817568D01*
X123134033Y-118825400D02*
X122059032Y-117750399D01*
X122059032Y-109817568D02*
X131911701Y-99964899D01*
X131911701Y-99964899D02*
X135801100Y-99964899D01*
%TO.N,/D3+*%
X149742665Y-119786101D02*
X148301665Y-119786101D01*
X147742665Y-119227101D02*
X147742665Y-112525565D01*
X147742665Y-112525565D02*
X136385300Y-101168200D01*
X150817666Y-118711100D02*
X149742665Y-119786101D01*
X148301665Y-119786101D02*
X147742665Y-119227101D01*
%TO.N,/D3-*%
X148652566Y-111352666D02*
X137287000Y-99987100D01*
X148817666Y-118711100D02*
X148817666Y-111352666D01*
X148817666Y-111352666D02*
X148652566Y-111352666D01*
%TO.N,/D4+*%
X161124900Y-114617500D02*
X153263600Y-106756200D01*
X153263600Y-96850200D02*
X137020300Y-96850200D01*
X176501300Y-118622200D02*
X176501300Y-116722400D01*
X176501300Y-116722400D02*
X174396400Y-114617500D01*
X153263600Y-106756200D02*
X153263600Y-96850200D01*
X174396400Y-114617500D02*
X161124900Y-114617500D01*
%TO.N,/D4-*%
X177576301Y-119138201D02*
X177576301Y-117160991D01*
X177017301Y-119697201D02*
X177576301Y-119138201D01*
X177576301Y-117160991D02*
X174575610Y-114160300D01*
X174501300Y-118622200D02*
X175576301Y-119697201D01*
X175576301Y-119697201D02*
X177017301Y-119697201D01*
X174575610Y-114160300D02*
X161455100Y-114160300D01*
X153713610Y-106418810D02*
X153713610Y-96081010D01*
X161455100Y-114160300D02*
X153713610Y-106418810D01*
X153713610Y-96081010D02*
X153339800Y-95707200D01*
X153339800Y-95707200D02*
X137083800Y-95707200D01*
%TO.N,/USB3*%
X136295299Y-92152301D02*
X138468100Y-89979500D01*
X148107400Y-98971100D02*
X146711501Y-97575201D01*
X136295299Y-97198201D02*
X136295299Y-92152301D01*
X148107400Y-106070400D02*
X148107400Y-98971100D01*
X146711501Y-97575201D02*
X136672299Y-97575201D01*
X136672299Y-97575201D02*
X136295299Y-97198201D01*
%TO.N,/USB4*%
X131081710Y-80004990D02*
X177604490Y-80004990D01*
X127876300Y-83210400D02*
X131081710Y-80004990D01*
X177604490Y-80004990D02*
X177604490Y-82639992D01*
X177604490Y-82639992D02*
X184975500Y-90011002D01*
%TO.N,+12V*%
X88887300Y-97739200D02*
X97802700Y-88823800D01*
X97802700Y-83731100D02*
X97810000Y-83723800D01*
X97802700Y-88823800D02*
X97802700Y-83731100D01*
X97810000Y-83863500D02*
X97810000Y-83723800D01*
X97810000Y-83723800D02*
X97810000Y-81318100D01*
%TO.N,/L2R*%
X116370100Y-94970600D02*
X121043700Y-90297000D01*
X134056301Y-84310401D02*
X132956300Y-83210400D01*
X134056301Y-86278401D02*
X134056301Y-84310401D01*
X130037702Y-90297000D02*
X134056301Y-86278401D01*
X121043700Y-90297000D02*
X130037702Y-90297000D01*
%TO.N,/L2G*%
X111226600Y-95008700D02*
X116776500Y-89458800D01*
X129247900Y-89458800D02*
X132956300Y-85750400D01*
X116776500Y-89458800D02*
X129247900Y-89458800D01*
%TO.N,/L1R*%
X104952800Y-94996000D02*
X104952800Y-88849200D01*
X104952800Y-88849200D02*
X105092500Y-88709500D01*
X131516301Y-84310401D02*
X130416300Y-83210400D01*
X131516301Y-86278401D02*
X131516301Y-84310401D01*
X129085202Y-88709500D02*
X131516301Y-86278401D01*
X105092500Y-88709500D02*
X129085202Y-88709500D01*
%TO.N,/L1G*%
X98094800Y-94830900D02*
X104952800Y-87972900D01*
X128193800Y-87972900D02*
X130416300Y-85750400D01*
X104952800Y-87972900D02*
X128193800Y-87972900D01*
%TO.N,/L4R*%
X139136301Y-82110399D02*
X138036300Y-83210400D01*
X166954699Y-80454999D02*
X140791701Y-80454999D01*
X140791701Y-80454999D02*
X139136301Y-82110399D01*
X175310800Y-88811100D02*
X166954699Y-80454999D01*
X175310800Y-89674700D02*
X175310800Y-88811100D01*
%TO.N,/L4G*%
X169481500Y-89763600D02*
X169481500Y-84315300D01*
X169481500Y-84315300D02*
X167906700Y-82740500D01*
X167906700Y-82740500D02*
X159766000Y-82740500D01*
X159766000Y-82740500D02*
X158115000Y-81089500D01*
X139136301Y-83022397D02*
X139136301Y-84650399D01*
X141069198Y-81089500D02*
X139136301Y-83022397D01*
X139136301Y-84650399D02*
X138036300Y-85750400D01*
X158115000Y-81089500D02*
X141069198Y-81089500D01*
%TO.N,/L3R*%
X161899600Y-89877900D02*
X161899600Y-86804500D01*
X161899600Y-86804500D02*
X156946600Y-81851500D01*
X156946600Y-81851500D02*
X141795500Y-81851500D01*
%TO.N,/L3G*%
X155892500Y-89598500D02*
X155892500Y-87985600D01*
X137731500Y-87985600D02*
X135496300Y-85750400D01*
X155892500Y-87985600D02*
X137731500Y-87985600D01*
%TO.N,/VD18*%
X131775200Y-95599398D02*
X138120099Y-89254499D01*
X138120099Y-89254499D02*
X138816101Y-89254499D01*
X138816101Y-89254499D02*
X139547600Y-89985998D01*
X131775200Y-96393000D02*
X131775200Y-95599398D01*
X139547600Y-89985998D02*
X139547600Y-92583000D01*
%TO.N,Net-(IC101-Pad19)*%
X141784899Y-99239899D02*
X108722601Y-99239899D01*
X83586700Y-111386600D02*
X83472400Y-111500900D01*
X95178900Y-112783600D02*
X93781900Y-111386600D01*
X108722601Y-99239899D02*
X95178900Y-112783600D01*
X93781900Y-111386600D02*
X83586700Y-111386600D01*
%TO.N,/D0+*%
X181461800Y-100879400D02*
X155089100Y-100879400D01*
X155089100Y-100879400D02*
X154965400Y-101003100D01*
%TO.N,/DO-*%
X181461800Y-102879400D02*
X154987500Y-102879400D01*
X154987500Y-102879400D02*
X154978100Y-102870000D01*
%TD*%
D21*
%TO.N,GND*%
G36*
X128178926Y-81832973D02*
G01*
X128015173Y-81800400D01*
X127737427Y-81800400D01*
X127465018Y-81854586D01*
X127208415Y-81960875D01*
X126977478Y-82115182D01*
X126781082Y-82311578D01*
X126626775Y-82542515D01*
X126606300Y-82591946D01*
X126585825Y-82542515D01*
X126431518Y-82311578D01*
X126235122Y-82115182D01*
X126004185Y-81960875D01*
X125747582Y-81854586D01*
X125475173Y-81800400D01*
X125197427Y-81800400D01*
X124925018Y-81854586D01*
X124668415Y-81960875D01*
X124437478Y-82115182D01*
X124241082Y-82311578D01*
X124086775Y-82542515D01*
X123980486Y-82799118D01*
X123926300Y-83071527D01*
X123926300Y-83349273D01*
X123980486Y-83621682D01*
X124086775Y-83878285D01*
X124241082Y-84109222D01*
X124437478Y-84305618D01*
X124668415Y-84459925D01*
X124717846Y-84480400D01*
X124668415Y-84500875D01*
X124437478Y-84655182D01*
X124241082Y-84851578D01*
X124086775Y-85082515D01*
X123980486Y-85339118D01*
X123926300Y-85611527D01*
X123926300Y-85889273D01*
X123980486Y-86161682D01*
X124086775Y-86418285D01*
X124241082Y-86649222D01*
X124437478Y-86845618D01*
X124668415Y-86999925D01*
X124925018Y-87106214D01*
X125197427Y-87160400D01*
X125475173Y-87160400D01*
X125747582Y-87106214D01*
X126004185Y-86999925D01*
X126235122Y-86845618D01*
X126431518Y-86649222D01*
X126585825Y-86418285D01*
X126606300Y-86368854D01*
X126626775Y-86418285D01*
X126781082Y-86649222D01*
X126977478Y-86845618D01*
X127208415Y-86999925D01*
X127465018Y-87106214D01*
X127737427Y-87160400D01*
X127931499Y-87160400D01*
X127878999Y-87212900D01*
X104990133Y-87212900D01*
X104952800Y-87209223D01*
X104915467Y-87212900D01*
X104803814Y-87223897D01*
X104660553Y-87267354D01*
X104528524Y-87337926D01*
X104412799Y-87432899D01*
X104389001Y-87461897D01*
X98054999Y-93795900D01*
X97992861Y-93795900D01*
X97792902Y-93835674D01*
X97604544Y-93913695D01*
X97435026Y-94026963D01*
X97290863Y-94171126D01*
X97177595Y-94340644D01*
X97099574Y-94529002D01*
X97059800Y-94728961D01*
X97059800Y-94932839D01*
X97099574Y-95132798D01*
X97177595Y-95321156D01*
X97290863Y-95490674D01*
X97435026Y-95634837D01*
X97604544Y-95748105D01*
X97792902Y-95826126D01*
X97992861Y-95865900D01*
X98196739Y-95865900D01*
X98396698Y-95826126D01*
X98585056Y-95748105D01*
X98754574Y-95634837D01*
X98898737Y-95490674D01*
X99012005Y-95321156D01*
X99090026Y-95132798D01*
X99129800Y-94932839D01*
X99129800Y-94870701D01*
X104192801Y-89807701D01*
X104192800Y-94292289D01*
X104148863Y-94336226D01*
X104035595Y-94505744D01*
X103957574Y-94694102D01*
X103917800Y-94894061D01*
X103917800Y-95097939D01*
X103957574Y-95297898D01*
X104035595Y-95486256D01*
X104148863Y-95655774D01*
X104293026Y-95799937D01*
X104462544Y-95913205D01*
X104650902Y-95991226D01*
X104850861Y-96031000D01*
X105054739Y-96031000D01*
X105254698Y-95991226D01*
X105443056Y-95913205D01*
X105612574Y-95799937D01*
X105756737Y-95655774D01*
X105870005Y-95486256D01*
X105948026Y-95297898D01*
X105987800Y-95097939D01*
X105987800Y-94894061D01*
X105948026Y-94694102D01*
X105870005Y-94505744D01*
X105756737Y-94336226D01*
X105712800Y-94292289D01*
X105712800Y-89469500D01*
X115690998Y-89469500D01*
X111186799Y-93973700D01*
X111124661Y-93973700D01*
X110924702Y-94013474D01*
X110736344Y-94091495D01*
X110566826Y-94204763D01*
X110422663Y-94348926D01*
X110309395Y-94518444D01*
X110231374Y-94706802D01*
X110191600Y-94906761D01*
X110191600Y-95110639D01*
X110231374Y-95310598D01*
X110309395Y-95498956D01*
X110422663Y-95668474D01*
X110566826Y-95812637D01*
X110736344Y-95925905D01*
X110924702Y-96003926D01*
X111124661Y-96043700D01*
X111328539Y-96043700D01*
X111528498Y-96003926D01*
X111716856Y-95925905D01*
X111886374Y-95812637D01*
X112030537Y-95668474D01*
X112143805Y-95498956D01*
X112221826Y-95310598D01*
X112261600Y-95110639D01*
X112261600Y-95048501D01*
X117091302Y-90218800D01*
X120047098Y-90218800D01*
X116330299Y-93935600D01*
X116268161Y-93935600D01*
X116068202Y-93975374D01*
X115879844Y-94053395D01*
X115710326Y-94166663D01*
X115566163Y-94310826D01*
X115452895Y-94480344D01*
X115374874Y-94668702D01*
X115335100Y-94868661D01*
X115335100Y-95072539D01*
X115374874Y-95272498D01*
X115452895Y-95460856D01*
X115566163Y-95630374D01*
X115710326Y-95774537D01*
X115879844Y-95887805D01*
X116068202Y-95965826D01*
X116268161Y-96005600D01*
X116472039Y-96005600D01*
X116671998Y-95965826D01*
X116860356Y-95887805D01*
X117029874Y-95774537D01*
X117174037Y-95630374D01*
X117287305Y-95460856D01*
X117365326Y-95272498D01*
X117404986Y-95073112D01*
X124798200Y-95073112D01*
X124798200Y-95296688D01*
X124841817Y-95515967D01*
X124927376Y-95722524D01*
X125051588Y-95908420D01*
X125209680Y-96066512D01*
X125395576Y-96190724D01*
X125602133Y-96276283D01*
X125821412Y-96319900D01*
X126044988Y-96319900D01*
X126264267Y-96276283D01*
X126470824Y-96190724D01*
X126656720Y-96066512D01*
X126814812Y-95908420D01*
X126939024Y-95722524D01*
X127024583Y-95515967D01*
X127068200Y-95296688D01*
X127068200Y-95073112D01*
X127024583Y-94853833D01*
X126939024Y-94647276D01*
X126814812Y-94461380D01*
X126656720Y-94303288D01*
X126470824Y-94179076D01*
X126264267Y-94093517D01*
X126044988Y-94049900D01*
X125821412Y-94049900D01*
X125602133Y-94093517D01*
X125395576Y-94179076D01*
X125209680Y-94303288D01*
X125051588Y-94461380D01*
X124927376Y-94647276D01*
X124841817Y-94853833D01*
X124798200Y-95073112D01*
X117404986Y-95073112D01*
X117405100Y-95072539D01*
X117405100Y-95010401D01*
X121358502Y-91057000D01*
X130000380Y-91057000D01*
X130037702Y-91060676D01*
X130075024Y-91057000D01*
X130075035Y-91057000D01*
X130186688Y-91046003D01*
X130329949Y-91002546D01*
X130461978Y-90931974D01*
X130577703Y-90837001D01*
X130601506Y-90807997D01*
X134567305Y-86842199D01*
X134582000Y-86830140D01*
X134597478Y-86845618D01*
X134828415Y-86999925D01*
X135085018Y-87106214D01*
X135357427Y-87160400D01*
X135635173Y-87160400D01*
X135798926Y-87127827D01*
X137167701Y-88496603D01*
X137191499Y-88525601D01*
X137220497Y-88549399D01*
X137307223Y-88620574D01*
X137420823Y-88681295D01*
X137439253Y-88691146D01*
X137567369Y-88730009D01*
X137556300Y-88743496D01*
X131264198Y-95035599D01*
X131235200Y-95059397D01*
X131211402Y-95088395D01*
X131211401Y-95088396D01*
X131140226Y-95175122D01*
X131069654Y-95307152D01*
X131062115Y-95332007D01*
X131026197Y-95450412D01*
X131015200Y-95562065D01*
X131015200Y-95562076D01*
X131011524Y-95599398D01*
X131015200Y-95636720D01*
X131015200Y-95689289D01*
X130971263Y-95733226D01*
X130857995Y-95902744D01*
X130779974Y-96091102D01*
X130740200Y-96291061D01*
X130740200Y-96494939D01*
X130779974Y-96694898D01*
X130857995Y-96883256D01*
X130971263Y-97052774D01*
X131115426Y-97196937D01*
X131284944Y-97310205D01*
X131473302Y-97388226D01*
X131673261Y-97428000D01*
X131877139Y-97428000D01*
X132077098Y-97388226D01*
X132265456Y-97310205D01*
X132434974Y-97196937D01*
X132579137Y-97052774D01*
X132692405Y-96883256D01*
X132770426Y-96694898D01*
X132810200Y-96494939D01*
X132810200Y-96291061D01*
X132770426Y-96091102D01*
X132692405Y-95902744D01*
X132634026Y-95815373D01*
X135535300Y-92914100D01*
X135535299Y-97160878D01*
X135531623Y-97198201D01*
X135535299Y-97235523D01*
X135535299Y-97235533D01*
X135546296Y-97347186D01*
X135588351Y-97485826D01*
X135589753Y-97490447D01*
X135660325Y-97622477D01*
X135686308Y-97654137D01*
X135755298Y-97738202D01*
X135784302Y-97762005D01*
X136108495Y-98086198D01*
X136132298Y-98115202D01*
X136248023Y-98210175D01*
X136377160Y-98279201D01*
X136380052Y-98280747D01*
X136523313Y-98324204D01*
X136672299Y-98338878D01*
X136709632Y-98335201D01*
X141275925Y-98335201D01*
X141125125Y-98435962D01*
X141081188Y-98479899D01*
X130502942Y-98479899D01*
X130547926Y-98371298D01*
X130587700Y-98171339D01*
X130587700Y-97967461D01*
X130547926Y-97767502D01*
X130469905Y-97579144D01*
X130356637Y-97409626D01*
X130212474Y-97265463D01*
X130042956Y-97152195D01*
X129854598Y-97074174D01*
X129654639Y-97034400D01*
X129450761Y-97034400D01*
X129250802Y-97074174D01*
X129062444Y-97152195D01*
X128892926Y-97265463D01*
X128772789Y-97385600D01*
X120032911Y-97385600D01*
X119988974Y-97341663D01*
X119819456Y-97228395D01*
X119631098Y-97150374D01*
X119431139Y-97110600D01*
X119227261Y-97110600D01*
X119027302Y-97150374D01*
X118838944Y-97228395D01*
X118669426Y-97341663D01*
X118525263Y-97485826D01*
X118411995Y-97655344D01*
X118333974Y-97843702D01*
X118294200Y-98043661D01*
X118294200Y-98247539D01*
X118333974Y-98447498D01*
X118347395Y-98479899D01*
X108759926Y-98479899D01*
X108722601Y-98476223D01*
X108685276Y-98479899D01*
X108685268Y-98479899D01*
X108573615Y-98490896D01*
X108430354Y-98534353D01*
X108298325Y-98604925D01*
X108182600Y-98699898D01*
X108158802Y-98728896D01*
X95178900Y-111708799D01*
X94345704Y-110875603D01*
X94321901Y-110846599D01*
X94206176Y-110751626D01*
X94074147Y-110681054D01*
X93930886Y-110637597D01*
X93819233Y-110626600D01*
X93819222Y-110626600D01*
X93781900Y-110622924D01*
X93744578Y-110626600D01*
X86595842Y-110626600D01*
X86917124Y-110493520D01*
X87229954Y-110284494D01*
X87495994Y-110018454D01*
X87705020Y-109705624D01*
X87849000Y-109358027D01*
X87922400Y-108989019D01*
X87922400Y-108612781D01*
X87849000Y-108243773D01*
X87705020Y-107896176D01*
X87495994Y-107583346D01*
X87229954Y-107317306D01*
X86917124Y-107108280D01*
X86569527Y-106964300D01*
X86200519Y-106890900D01*
X85824281Y-106890900D01*
X85455273Y-106964300D01*
X85107676Y-107108280D01*
X84794846Y-107317306D01*
X84528806Y-107583346D01*
X84319780Y-107896176D01*
X84175800Y-108243773D01*
X84102400Y-108612781D01*
X84102400Y-108989019D01*
X84175800Y-109358027D01*
X84319780Y-109705624D01*
X84397445Y-109821858D01*
X84377124Y-109808280D01*
X84029527Y-109664300D01*
X83660519Y-109590900D01*
X83284281Y-109590900D01*
X82915273Y-109664300D01*
X82664083Y-109768347D01*
X82804696Y-109487314D01*
X82904171Y-109124465D01*
X82930945Y-108749182D01*
X82883991Y-108375885D01*
X82765113Y-108018922D01*
X82636345Y-107778016D01*
X82343815Y-107649090D01*
X81192005Y-108800900D01*
X81206148Y-108815043D01*
X81026543Y-108994648D01*
X81012400Y-108980505D01*
X79860590Y-110132315D01*
X79989516Y-110424845D01*
X80325986Y-110593196D01*
X80688835Y-110692671D01*
X81064118Y-110719445D01*
X81437415Y-110672491D01*
X81794378Y-110553613D01*
X81815910Y-110542104D01*
X81779780Y-110596176D01*
X81635800Y-110943773D01*
X81562400Y-111312781D01*
X81562400Y-111689019D01*
X81635800Y-112058027D01*
X81779780Y-112405624D01*
X81988806Y-112718454D01*
X82254846Y-112984494D01*
X82567676Y-113193520D01*
X82915273Y-113337500D01*
X83284281Y-113410900D01*
X83660519Y-113410900D01*
X84029527Y-113337500D01*
X84377124Y-113193520D01*
X84689954Y-112984494D01*
X84955994Y-112718454D01*
X85165020Y-112405624D01*
X85272312Y-112146600D01*
X93467099Y-112146600D01*
X94615101Y-113294603D01*
X94638899Y-113323601D01*
X94754624Y-113418574D01*
X94886654Y-113489146D01*
X94963229Y-113512374D01*
X95029913Y-113532602D01*
X95178899Y-113547276D01*
X95178900Y-113547276D01*
X95327885Y-113532602D01*
X95471146Y-113489146D01*
X95603176Y-113418574D01*
X95689902Y-113347399D01*
X95689907Y-113347394D01*
X95718900Y-113323600D01*
X95742694Y-113294607D01*
X109037403Y-99999899D01*
X124798200Y-99999899D01*
X124798200Y-100176688D01*
X124841817Y-100395967D01*
X124927376Y-100602524D01*
X124950279Y-100636800D01*
X114802023Y-100636800D01*
X114764700Y-100633124D01*
X114727377Y-100636800D01*
X114727367Y-100636800D01*
X114615714Y-100647797D01*
X114493156Y-100684974D01*
X114472453Y-100691254D01*
X114340423Y-100761826D01*
X114304830Y-100791037D01*
X114224699Y-100856799D01*
X114200901Y-100885797D01*
X97731765Y-117354933D01*
X97586811Y-117326100D01*
X97313989Y-117326100D01*
X97046411Y-117379325D01*
X96794357Y-117483729D01*
X96567514Y-117635301D01*
X96374601Y-117828214D01*
X96223029Y-118055057D01*
X96200400Y-118109688D01*
X96177771Y-118055057D01*
X96026199Y-117828214D01*
X95833286Y-117635301D01*
X95606443Y-117483729D01*
X95354389Y-117379325D01*
X95086811Y-117326100D01*
X94813989Y-117326100D01*
X94546411Y-117379325D01*
X94294357Y-117483729D01*
X94067514Y-117635301D01*
X93874601Y-117828214D01*
X93723029Y-118055057D01*
X93618625Y-118307111D01*
X93565400Y-118574689D01*
X93565400Y-118847511D01*
X93618625Y-119115089D01*
X93723029Y-119367143D01*
X93874601Y-119593986D01*
X94067514Y-119786899D01*
X94294357Y-119938471D01*
X94546411Y-120042875D01*
X94813989Y-120096100D01*
X95086811Y-120096100D01*
X95354389Y-120042875D01*
X95606443Y-119938471D01*
X95833286Y-119786899D01*
X96026199Y-119593986D01*
X96177771Y-119367143D01*
X96200400Y-119312512D01*
X96223029Y-119367143D01*
X96374601Y-119593986D01*
X96567514Y-119786899D01*
X96794357Y-119938471D01*
X97046411Y-120042875D01*
X97313989Y-120096100D01*
X97586811Y-120096100D01*
X97854389Y-120042875D01*
X98106443Y-119938471D01*
X98333286Y-119786899D01*
X98450400Y-119669785D01*
X98567514Y-119786899D01*
X98794357Y-119938471D01*
X99046411Y-120042875D01*
X99313989Y-120096100D01*
X99586811Y-120096100D01*
X99854389Y-120042875D01*
X100106443Y-119938471D01*
X100333286Y-119786899D01*
X100526199Y-119593986D01*
X100677771Y-119367143D01*
X100700400Y-119312512D01*
X100723029Y-119367143D01*
X100874601Y-119593986D01*
X101067514Y-119786899D01*
X101294357Y-119938471D01*
X101546411Y-120042875D01*
X101813989Y-120096100D01*
X102086811Y-120096100D01*
X102354389Y-120042875D01*
X102606443Y-119938471D01*
X102833286Y-119786899D01*
X102893601Y-119726584D01*
X104005489Y-119726584D01*
X105520400Y-121241495D01*
X107035311Y-119726584D01*
X106845027Y-119381843D01*
X106421735Y-119162605D01*
X105963805Y-119030160D01*
X105488836Y-118989597D01*
X105015080Y-119042476D01*
X104560744Y-119186763D01*
X104195773Y-119381843D01*
X104005489Y-119726584D01*
X102893601Y-119726584D01*
X103026199Y-119593986D01*
X103177771Y-119367143D01*
X103282175Y-119115089D01*
X103335400Y-118847511D01*
X103335400Y-118574689D01*
X103282175Y-118307111D01*
X103177771Y-118055057D01*
X103026199Y-117828214D01*
X102833286Y-117635301D01*
X102606443Y-117483729D01*
X102354389Y-117379325D01*
X102086811Y-117326100D01*
X101910201Y-117326100D01*
X116114302Y-103122000D01*
X118447752Y-103122000D01*
X118372074Y-103304702D01*
X118332300Y-103504661D01*
X118332300Y-103708539D01*
X118372074Y-103908498D01*
X118450095Y-104096856D01*
X118563363Y-104266374D01*
X118607301Y-104310312D01*
X118607300Y-119112347D01*
X118603624Y-119149669D01*
X118607300Y-119186991D01*
X118607300Y-119187001D01*
X118618297Y-119298654D01*
X118654089Y-119416646D01*
X118661754Y-119441915D01*
X118732326Y-119573945D01*
X118760401Y-119608154D01*
X118827299Y-119689670D01*
X118856302Y-119713472D01*
X119554237Y-120411409D01*
X119578031Y-120440402D01*
X119607024Y-120464196D01*
X119607028Y-120464200D01*
X119640472Y-120491646D01*
X119693756Y-120535375D01*
X119825785Y-120605947D01*
X119969046Y-120649404D01*
X120080699Y-120660401D01*
X120080708Y-120660401D01*
X120118031Y-120664077D01*
X120155354Y-120660401D01*
X124021710Y-120660401D01*
X124059032Y-120664077D01*
X124096354Y-120660401D01*
X124096365Y-120660401D01*
X124208018Y-120649404D01*
X124351279Y-120605947D01*
X124483308Y-120535375D01*
X124599033Y-120440402D01*
X124622836Y-120411399D01*
X124852668Y-120181567D01*
X124997622Y-120210400D01*
X125270444Y-120210400D01*
X125538022Y-120157175D01*
X125790076Y-120052771D01*
X126016919Y-119901199D01*
X126209832Y-119708286D01*
X126361404Y-119481443D01*
X126384033Y-119426812D01*
X126406662Y-119481443D01*
X126558234Y-119708286D01*
X126751147Y-119901199D01*
X126977990Y-120052771D01*
X127230044Y-120157175D01*
X127497622Y-120210400D01*
X127770444Y-120210400D01*
X128038022Y-120157175D01*
X128290076Y-120052771D01*
X128516919Y-119901199D01*
X128577234Y-119840884D01*
X129689122Y-119840884D01*
X131204033Y-121355795D01*
X132718944Y-119840884D01*
X132528660Y-119496143D01*
X132105368Y-119276905D01*
X131647438Y-119144460D01*
X131172469Y-119103897D01*
X130698713Y-119156776D01*
X130244377Y-119301063D01*
X129879406Y-119496143D01*
X129689122Y-119840884D01*
X128577234Y-119840884D01*
X128709832Y-119708286D01*
X128861404Y-119481443D01*
X128965808Y-119229389D01*
X129019033Y-118961811D01*
X129019033Y-118688989D01*
X128965808Y-118421411D01*
X128861404Y-118169357D01*
X128709832Y-117942514D01*
X128516919Y-117749601D01*
X128290076Y-117598029D01*
X128038022Y-117493625D01*
X127770444Y-117440400D01*
X127497622Y-117440400D01*
X127230044Y-117493625D01*
X126977990Y-117598029D01*
X126751147Y-117749601D01*
X126558234Y-117942514D01*
X126406662Y-118169357D01*
X126384033Y-118223988D01*
X126361404Y-118169357D01*
X126209832Y-117942514D01*
X126016919Y-117749601D01*
X125790076Y-117598029D01*
X125538022Y-117493625D01*
X125270444Y-117440400D01*
X124997622Y-117440400D01*
X124730044Y-117493625D01*
X124477990Y-117598029D01*
X124251147Y-117749601D01*
X124134033Y-117866715D01*
X124016919Y-117749601D01*
X123790076Y-117598029D01*
X123538022Y-117493625D01*
X123270444Y-117440400D01*
X122997622Y-117440400D01*
X122852668Y-117469233D01*
X122819032Y-117435598D01*
X122819032Y-110132369D01*
X132226503Y-100724899D01*
X135097389Y-100724899D01*
X135141326Y-100768836D01*
X135310844Y-100882104D01*
X135381139Y-100911221D01*
X135350300Y-101066261D01*
X135350300Y-101270139D01*
X135390074Y-101470098D01*
X135468095Y-101658456D01*
X135581363Y-101827974D01*
X135725526Y-101972137D01*
X135895044Y-102085405D01*
X136083402Y-102163426D01*
X136283361Y-102203200D01*
X136345499Y-102203200D01*
X146982666Y-112840368D01*
X146982665Y-117489713D01*
X146973709Y-117483729D01*
X146721655Y-117379325D01*
X146454077Y-117326100D01*
X146181255Y-117326100D01*
X145913677Y-117379325D01*
X145661623Y-117483729D01*
X145434780Y-117635301D01*
X145241867Y-117828214D01*
X145090295Y-118055057D01*
X144985891Y-118307111D01*
X144932666Y-118574689D01*
X144932666Y-118847511D01*
X144985891Y-119115089D01*
X145090295Y-119367143D01*
X145241867Y-119593986D01*
X145434780Y-119786899D01*
X145661623Y-119938471D01*
X145913677Y-120042875D01*
X146181255Y-120096100D01*
X146454077Y-120096100D01*
X146721655Y-120042875D01*
X146973709Y-119938471D01*
X147200552Y-119786899D01*
X147212377Y-119775074D01*
X147231667Y-119790904D01*
X147737870Y-120297108D01*
X147761664Y-120326102D01*
X147790657Y-120349896D01*
X147790661Y-120349900D01*
X147838427Y-120389100D01*
X147877389Y-120421075D01*
X148009418Y-120491647D01*
X148152679Y-120535104D01*
X148264332Y-120546101D01*
X148264341Y-120546101D01*
X148301664Y-120549777D01*
X148338987Y-120546101D01*
X149705343Y-120546101D01*
X149742665Y-120549777D01*
X149779987Y-120546101D01*
X149779998Y-120546101D01*
X149891651Y-120535104D01*
X150034912Y-120491647D01*
X150166941Y-120421075D01*
X150282666Y-120326102D01*
X150306469Y-120297099D01*
X150536301Y-120067267D01*
X150681255Y-120096100D01*
X150954077Y-120096100D01*
X151221655Y-120042875D01*
X151473709Y-119938471D01*
X151700552Y-119786899D01*
X151893465Y-119593986D01*
X152045037Y-119367143D01*
X152067666Y-119312512D01*
X152090295Y-119367143D01*
X152241867Y-119593986D01*
X152434780Y-119786899D01*
X152661623Y-119938471D01*
X152913677Y-120042875D01*
X153181255Y-120096100D01*
X153454077Y-120096100D01*
X153721655Y-120042875D01*
X153973709Y-119938471D01*
X154200552Y-119786899D01*
X154260867Y-119726584D01*
X155372755Y-119726584D01*
X156887666Y-121241495D01*
X158402577Y-119726584D01*
X158212293Y-119381843D01*
X157789001Y-119162605D01*
X157331071Y-119030160D01*
X156856102Y-118989597D01*
X156382346Y-119042476D01*
X155928010Y-119186763D01*
X155563039Y-119381843D01*
X155372755Y-119726584D01*
X154260867Y-119726584D01*
X154393465Y-119593986D01*
X154545037Y-119367143D01*
X154649441Y-119115089D01*
X154702666Y-118847511D01*
X154702666Y-118574689D01*
X154649441Y-118307111D01*
X154545037Y-118055057D01*
X154393465Y-117828214D01*
X154200552Y-117635301D01*
X153973709Y-117483729D01*
X153721655Y-117379325D01*
X153454077Y-117326100D01*
X153181255Y-117326100D01*
X152913677Y-117379325D01*
X152661623Y-117483729D01*
X152434780Y-117635301D01*
X152241867Y-117828214D01*
X152090295Y-118055057D01*
X152067666Y-118109688D01*
X152045037Y-118055057D01*
X151893465Y-117828214D01*
X151700552Y-117635301D01*
X151473709Y-117483729D01*
X151221655Y-117379325D01*
X150954077Y-117326100D01*
X150681255Y-117326100D01*
X150413677Y-117379325D01*
X150161623Y-117483729D01*
X149934780Y-117635301D01*
X149817666Y-117752415D01*
X149700552Y-117635301D01*
X149577666Y-117553191D01*
X149577666Y-111389999D01*
X149581343Y-111352666D01*
X149566669Y-111203680D01*
X149523212Y-111060419D01*
X149452640Y-110928390D01*
X149357667Y-110812665D01*
X149241942Y-110717692D01*
X149109913Y-110647120D01*
X148983465Y-110608763D01*
X138374600Y-99999899D01*
X141081188Y-99999899D01*
X141125125Y-100043836D01*
X141294643Y-100157104D01*
X141483001Y-100235125D01*
X141682960Y-100274899D01*
X141886838Y-100274899D01*
X142086797Y-100235125D01*
X142275155Y-100157104D01*
X142444673Y-100043836D01*
X142588836Y-99899673D01*
X142702104Y-99730155D01*
X142780125Y-99541797D01*
X142819899Y-99341838D01*
X142819899Y-99137960D01*
X142780125Y-98938001D01*
X142702104Y-98749643D01*
X142588836Y-98580125D01*
X142444673Y-98435962D01*
X142293873Y-98335201D01*
X146065635Y-98335201D01*
X146065524Y-98335247D01*
X145855060Y-98475875D01*
X145676075Y-98654860D01*
X145535447Y-98865324D01*
X145438581Y-99099179D01*
X145389200Y-99347439D01*
X145389200Y-99600561D01*
X145438581Y-99848821D01*
X145535447Y-100082676D01*
X145676075Y-100293140D01*
X145855060Y-100472125D01*
X146065524Y-100612753D01*
X146299379Y-100709619D01*
X146547639Y-100759000D01*
X146800761Y-100759000D01*
X147049021Y-100709619D01*
X147282876Y-100612753D01*
X147347401Y-100569639D01*
X147347400Y-105366689D01*
X147303463Y-105410626D01*
X147190195Y-105580144D01*
X147112174Y-105768502D01*
X147072400Y-105968461D01*
X147072400Y-106172339D01*
X147112174Y-106372298D01*
X147190195Y-106560656D01*
X147303463Y-106730174D01*
X147447626Y-106874337D01*
X147617144Y-106987605D01*
X147805502Y-107065626D01*
X148005461Y-107105400D01*
X148209339Y-107105400D01*
X148409298Y-107065626D01*
X148597656Y-106987605D01*
X148767174Y-106874337D01*
X148911337Y-106730174D01*
X149024605Y-106560656D01*
X149102626Y-106372298D01*
X149142400Y-106172339D01*
X149142400Y-105968461D01*
X149102626Y-105768502D01*
X149024605Y-105580144D01*
X148911337Y-105410626D01*
X148867400Y-105366689D01*
X148867400Y-100721861D01*
X148997724Y-100753102D01*
X149250655Y-100762952D01*
X149500649Y-100723270D01*
X149738096Y-100635578D01*
X149826734Y-100588201D01*
X149880122Y-100359527D01*
X149174200Y-99653605D01*
X149160058Y-99667748D01*
X148980453Y-99488143D01*
X148994595Y-99474000D01*
X148980453Y-99459858D01*
X149160058Y-99280253D01*
X149174200Y-99294395D01*
X149880122Y-98588473D01*
X149826734Y-98359799D01*
X149596826Y-98253905D01*
X149350676Y-98194898D01*
X149097745Y-98185048D01*
X148847751Y-98224730D01*
X148610304Y-98312422D01*
X148553751Y-98342649D01*
X147821301Y-97610200D01*
X152503601Y-97610200D01*
X152503601Y-98486136D01*
X152493340Y-98475875D01*
X152282876Y-98335247D01*
X152049021Y-98238381D01*
X151800761Y-98189000D01*
X151547639Y-98189000D01*
X151299379Y-98238381D01*
X151065524Y-98335247D01*
X150855060Y-98475875D01*
X150676075Y-98654860D01*
X150535447Y-98865324D01*
X150438581Y-99099179D01*
X150425906Y-99162900D01*
X150423470Y-99147551D01*
X150335778Y-98910104D01*
X150288401Y-98821466D01*
X150059727Y-98768078D01*
X149353805Y-99474000D01*
X150059727Y-100179922D01*
X150288401Y-100126534D01*
X150394295Y-99896626D01*
X150423695Y-99773983D01*
X150438581Y-99848821D01*
X150535447Y-100082676D01*
X150676075Y-100293140D01*
X150855060Y-100472125D01*
X151065524Y-100612753D01*
X151299379Y-100709619D01*
X151547639Y-100759000D01*
X151800761Y-100759000D01*
X152049021Y-100709619D01*
X152282876Y-100612753D01*
X152493340Y-100472125D01*
X152503601Y-100461864D01*
X152503600Y-106718878D01*
X152499924Y-106756200D01*
X152503600Y-106793522D01*
X152503600Y-106793532D01*
X152514597Y-106905185D01*
X152557975Y-107048187D01*
X152558054Y-107048446D01*
X152628626Y-107180476D01*
X152668471Y-107229026D01*
X152723599Y-107296201D01*
X152752603Y-107320004D01*
X160561100Y-115128502D01*
X160584899Y-115157501D01*
X160613897Y-115181299D01*
X160700623Y-115252474D01*
X160832653Y-115323046D01*
X160975914Y-115366503D01*
X161087567Y-115377500D01*
X161087576Y-115377500D01*
X161124899Y-115381176D01*
X161162222Y-115377500D01*
X174081599Y-115377500D01*
X175741301Y-117037203D01*
X175741301Y-117464291D01*
X175618414Y-117546401D01*
X175501300Y-117663515D01*
X175384186Y-117546401D01*
X175157343Y-117394829D01*
X174905289Y-117290425D01*
X174637711Y-117237200D01*
X174364889Y-117237200D01*
X174097311Y-117290425D01*
X173845257Y-117394829D01*
X173618414Y-117546401D01*
X173425501Y-117739314D01*
X173273929Y-117966157D01*
X173251300Y-118020788D01*
X173228671Y-117966157D01*
X173077099Y-117739314D01*
X172884186Y-117546401D01*
X172657343Y-117394829D01*
X172405289Y-117290425D01*
X172137711Y-117237200D01*
X171864889Y-117237200D01*
X171597311Y-117290425D01*
X171345257Y-117394829D01*
X171118414Y-117546401D01*
X170925501Y-117739314D01*
X170773929Y-117966157D01*
X170669525Y-118218211D01*
X170616300Y-118485789D01*
X170616300Y-118758611D01*
X170669525Y-119026189D01*
X170773929Y-119278243D01*
X170925501Y-119505086D01*
X171118414Y-119697999D01*
X171345257Y-119849571D01*
X171597311Y-119953975D01*
X171864889Y-120007200D01*
X172137711Y-120007200D01*
X172405289Y-119953975D01*
X172657343Y-119849571D01*
X172884186Y-119697999D01*
X173077099Y-119505086D01*
X173228671Y-119278243D01*
X173251300Y-119223612D01*
X173273929Y-119278243D01*
X173425501Y-119505086D01*
X173618414Y-119697999D01*
X173845257Y-119849571D01*
X174097311Y-119953975D01*
X174364889Y-120007200D01*
X174637711Y-120007200D01*
X174782665Y-119978367D01*
X175012502Y-120208204D01*
X175036300Y-120237202D01*
X175065298Y-120261000D01*
X175152024Y-120332175D01*
X175284054Y-120402747D01*
X175427315Y-120446204D01*
X175538968Y-120457201D01*
X175538978Y-120457201D01*
X175576301Y-120460877D01*
X175613623Y-120457201D01*
X176979979Y-120457201D01*
X177017301Y-120460877D01*
X177054623Y-120457201D01*
X177054634Y-120457201D01*
X177166287Y-120446204D01*
X177309548Y-120402747D01*
X177441577Y-120332175D01*
X177557302Y-120237202D01*
X177581104Y-120208199D01*
X178087310Y-119701995D01*
X178106589Y-119686174D01*
X178118414Y-119697999D01*
X178345257Y-119849571D01*
X178597311Y-119953975D01*
X178864889Y-120007200D01*
X179137711Y-120007200D01*
X179405289Y-119953975D01*
X179657343Y-119849571D01*
X179884186Y-119697999D01*
X179944501Y-119637684D01*
X181056389Y-119637684D01*
X182571300Y-121152595D01*
X184086211Y-119637684D01*
X183895927Y-119292943D01*
X183472635Y-119073705D01*
X183014705Y-118941260D01*
X182539736Y-118900697D01*
X182065980Y-118953576D01*
X181611644Y-119097863D01*
X181246673Y-119292943D01*
X181056389Y-119637684D01*
X179944501Y-119637684D01*
X180077099Y-119505086D01*
X180228671Y-119278243D01*
X180333075Y-119026189D01*
X180386300Y-118758611D01*
X180386300Y-118485789D01*
X180333075Y-118218211D01*
X180228671Y-117966157D01*
X180077099Y-117739314D01*
X179884186Y-117546401D01*
X179657343Y-117394829D01*
X179405289Y-117290425D01*
X179137711Y-117237200D01*
X178864889Y-117237200D01*
X178597311Y-117290425D01*
X178345257Y-117394829D01*
X178336301Y-117400813D01*
X178336301Y-117198314D01*
X178339977Y-117160991D01*
X178336301Y-117123668D01*
X178336301Y-117123658D01*
X178325304Y-117012005D01*
X178281847Y-116868744D01*
X178211275Y-116736714D01*
X178140100Y-116649988D01*
X178116302Y-116620990D01*
X178087304Y-116597192D01*
X175139414Y-113649303D01*
X175115611Y-113620299D01*
X174999886Y-113525326D01*
X174867857Y-113454754D01*
X174724596Y-113411297D01*
X174612943Y-113400300D01*
X174612932Y-113400300D01*
X174575610Y-113396624D01*
X174538288Y-113400300D01*
X161769902Y-113400300D01*
X157080653Y-108711051D01*
X181751800Y-108711051D01*
X181751800Y-109187749D01*
X181844800Y-109655288D01*
X182027224Y-110095700D01*
X182292064Y-110492060D01*
X182629140Y-110829136D01*
X183025500Y-111093976D01*
X183465912Y-111276400D01*
X183933451Y-111369400D01*
X184410149Y-111369400D01*
X184877688Y-111276400D01*
X185318100Y-111093976D01*
X185714460Y-110829136D01*
X186051536Y-110492060D01*
X186316376Y-110095700D01*
X186498800Y-109655288D01*
X186591800Y-109187749D01*
X186591800Y-108711051D01*
X186498800Y-108243512D01*
X186316376Y-107803100D01*
X186051536Y-107406740D01*
X185714460Y-107069664D01*
X185318100Y-106804824D01*
X184877688Y-106622400D01*
X184410149Y-106529400D01*
X183933451Y-106529400D01*
X183465912Y-106622400D01*
X183025500Y-106804824D01*
X182629140Y-107069664D01*
X182292064Y-107406740D01*
X182027224Y-107803100D01*
X181844800Y-108243512D01*
X181751800Y-108711051D01*
X157080653Y-108711051D01*
X154473610Y-106104009D01*
X154473610Y-103777694D01*
X154487844Y-103787205D01*
X154676202Y-103865226D01*
X154876161Y-103905000D01*
X155080039Y-103905000D01*
X155279998Y-103865226D01*
X155468356Y-103787205D01*
X155637874Y-103673937D01*
X155672411Y-103639400D01*
X180303891Y-103639400D01*
X180386001Y-103762286D01*
X180578914Y-103955199D01*
X180805757Y-104106771D01*
X180860388Y-104129400D01*
X180805757Y-104152029D01*
X180578914Y-104303601D01*
X180386001Y-104496514D01*
X180234429Y-104723357D01*
X180130025Y-104975411D01*
X180076800Y-105242989D01*
X180076800Y-105515811D01*
X180130025Y-105783389D01*
X180234429Y-106035443D01*
X180386001Y-106262286D01*
X180578914Y-106455199D01*
X180805757Y-106606771D01*
X181057811Y-106711175D01*
X181325389Y-106764400D01*
X181598211Y-106764400D01*
X181865789Y-106711175D01*
X182117843Y-106606771D01*
X182344686Y-106455199D01*
X182537599Y-106262286D01*
X182689171Y-106035443D01*
X182793575Y-105783389D01*
X182846800Y-105515811D01*
X182846800Y-105242989D01*
X182793575Y-104975411D01*
X182689171Y-104723357D01*
X182537599Y-104496514D01*
X182344686Y-104303601D01*
X182117843Y-104152029D01*
X182063212Y-104129400D01*
X182117843Y-104106771D01*
X182344686Y-103955199D01*
X182537599Y-103762286D01*
X182689171Y-103535443D01*
X182793575Y-103283389D01*
X182846800Y-103015811D01*
X182846800Y-102742989D01*
X182793575Y-102475411D01*
X182689171Y-102223357D01*
X182537599Y-101996514D01*
X182420485Y-101879400D01*
X182537599Y-101762286D01*
X182689171Y-101535443D01*
X182793575Y-101283389D01*
X182846800Y-101015811D01*
X182846800Y-100742989D01*
X182793575Y-100475411D01*
X182689171Y-100223357D01*
X182537599Y-99996514D01*
X182344686Y-99803601D01*
X182117843Y-99652029D01*
X182068374Y-99631539D01*
X182173663Y-99575260D01*
X182239188Y-99336393D01*
X181461800Y-98559005D01*
X180684412Y-99336393D01*
X180749937Y-99575260D01*
X180863001Y-99628318D01*
X180805757Y-99652029D01*
X180578914Y-99803601D01*
X180386001Y-99996514D01*
X180303891Y-100119400D01*
X155505800Y-100119400D01*
X155455656Y-100085895D01*
X155267298Y-100007874D01*
X155067339Y-99968100D01*
X154863461Y-99968100D01*
X154663502Y-100007874D01*
X154475144Y-100085895D01*
X154473610Y-100086920D01*
X154473610Y-98451892D01*
X180071988Y-98451892D01*
X180112835Y-98721638D01*
X180205523Y-98978232D01*
X180265940Y-99091263D01*
X180504807Y-99156788D01*
X181282195Y-98379400D01*
X181641405Y-98379400D01*
X182418793Y-99156788D01*
X182657660Y-99091263D01*
X182773560Y-98844284D01*
X182839050Y-98579440D01*
X182851612Y-98306908D01*
X182810765Y-98037162D01*
X182718077Y-97780568D01*
X182657660Y-97667537D01*
X182418793Y-97602012D01*
X181641405Y-98379400D01*
X181282195Y-98379400D01*
X180504807Y-97602012D01*
X180265940Y-97667537D01*
X180150040Y-97914516D01*
X180084550Y-98179360D01*
X180071988Y-98451892D01*
X154473610Y-98451892D01*
X154473610Y-97422407D01*
X180684412Y-97422407D01*
X181461800Y-98199795D01*
X182239188Y-97422407D01*
X182173663Y-97183540D01*
X181926684Y-97067640D01*
X181661840Y-97002150D01*
X181389308Y-96989588D01*
X181119562Y-97030435D01*
X180862968Y-97123123D01*
X180749937Y-97183540D01*
X180684412Y-97422407D01*
X154473610Y-97422407D01*
X154473610Y-96503916D01*
X182656889Y-96503916D01*
X182847173Y-96848657D01*
X183270465Y-97067895D01*
X183728395Y-97200340D01*
X184203364Y-97240903D01*
X184677120Y-97188024D01*
X185131456Y-97043737D01*
X185496427Y-96848657D01*
X185686711Y-96503916D01*
X184171800Y-94989005D01*
X182656889Y-96503916D01*
X154473610Y-96503916D01*
X154473610Y-96118332D01*
X154477286Y-96081009D01*
X154473610Y-96043686D01*
X154473610Y-96043677D01*
X154462613Y-95932024D01*
X154419156Y-95788763D01*
X154348584Y-95656734D01*
X154253611Y-95541009D01*
X154224607Y-95517206D01*
X153903604Y-95196203D01*
X153879801Y-95167199D01*
X153764076Y-95072226D01*
X153632047Y-95001654D01*
X153488786Y-94958197D01*
X153377133Y-94947200D01*
X153377122Y-94947200D01*
X153339800Y-94943524D01*
X153302478Y-94947200D01*
X152618265Y-94947200D01*
X152672325Y-94893140D01*
X152707188Y-94840964D01*
X181740297Y-94840964D01*
X181793176Y-95314720D01*
X181937463Y-95769056D01*
X182132543Y-96134027D01*
X182477284Y-96324311D01*
X183992195Y-94809400D01*
X184351405Y-94809400D01*
X185866316Y-96324311D01*
X186211057Y-96134027D01*
X186430295Y-95710735D01*
X186562740Y-95252805D01*
X186603303Y-94777836D01*
X186550424Y-94304080D01*
X186406137Y-93849744D01*
X186211057Y-93484773D01*
X185866316Y-93294489D01*
X184351405Y-94809400D01*
X183992195Y-94809400D01*
X182477284Y-93294489D01*
X182132543Y-93484773D01*
X181913305Y-93908065D01*
X181780860Y-94365995D01*
X181740297Y-94840964D01*
X152707188Y-94840964D01*
X152812953Y-94682676D01*
X152909819Y-94448821D01*
X152959200Y-94200561D01*
X152959200Y-93947439D01*
X152909819Y-93699179D01*
X152812953Y-93465324D01*
X152672325Y-93254860D01*
X152532349Y-93114884D01*
X182656889Y-93114884D01*
X184171800Y-94629795D01*
X185686711Y-93114884D01*
X185496427Y-92770143D01*
X185073135Y-92550905D01*
X184615205Y-92418460D01*
X184140236Y-92377897D01*
X183666480Y-92430776D01*
X183212144Y-92575063D01*
X182847173Y-92770143D01*
X182656889Y-93114884D01*
X152532349Y-93114884D01*
X152493340Y-93075875D01*
X152282876Y-92935247D01*
X152049021Y-92838381D01*
X151800761Y-92789000D01*
X151547639Y-92789000D01*
X151299379Y-92838381D01*
X151065524Y-92935247D01*
X150855060Y-93075875D01*
X150676075Y-93254860D01*
X150535447Y-93465324D01*
X150438581Y-93699179D01*
X150424200Y-93771479D01*
X150409819Y-93699179D01*
X150312953Y-93465324D01*
X150172325Y-93254860D01*
X149993340Y-93075875D01*
X149782876Y-92935247D01*
X149549021Y-92838381D01*
X149300761Y-92789000D01*
X149047639Y-92789000D01*
X148799379Y-92838381D01*
X148565524Y-92935247D01*
X148355060Y-93075875D01*
X148176075Y-93254860D01*
X148035447Y-93465324D01*
X147938581Y-93699179D01*
X147924200Y-93771479D01*
X147909819Y-93699179D01*
X147812953Y-93465324D01*
X147672325Y-93254860D01*
X147493340Y-93075875D01*
X147282876Y-92935247D01*
X147049021Y-92838381D01*
X146800761Y-92789000D01*
X146547639Y-92789000D01*
X146299379Y-92838381D01*
X146065524Y-92935247D01*
X145855060Y-93075875D01*
X145676075Y-93254860D01*
X145535447Y-93465324D01*
X145438581Y-93699179D01*
X145389200Y-93947439D01*
X145389200Y-94200561D01*
X145438581Y-94448821D01*
X145535447Y-94682676D01*
X145676075Y-94893140D01*
X145730135Y-94947200D01*
X137787511Y-94947200D01*
X137743574Y-94903263D01*
X137574056Y-94789995D01*
X137385698Y-94711974D01*
X137185739Y-94672200D01*
X137055299Y-94672200D01*
X137055299Y-92467102D01*
X138507902Y-91014500D01*
X138570039Y-91014500D01*
X138769998Y-90974726D01*
X138787600Y-90967435D01*
X138787601Y-91879288D01*
X138743663Y-91923226D01*
X138630395Y-92092744D01*
X138552374Y-92281102D01*
X138512600Y-92481061D01*
X138512600Y-92684939D01*
X138552374Y-92884898D01*
X138630395Y-93073256D01*
X138743663Y-93242774D01*
X138887826Y-93386937D01*
X139057344Y-93500205D01*
X139245702Y-93578226D01*
X139445661Y-93618000D01*
X139649539Y-93618000D01*
X139849498Y-93578226D01*
X140037856Y-93500205D01*
X140207374Y-93386937D01*
X140351537Y-93242774D01*
X140464805Y-93073256D01*
X140542826Y-92884898D01*
X140582600Y-92684939D01*
X140582600Y-92481061D01*
X140542826Y-92281102D01*
X140464805Y-92092744D01*
X140351537Y-91923226D01*
X140307600Y-91879289D01*
X140307600Y-90023321D01*
X140311276Y-89985998D01*
X140307600Y-89948675D01*
X140307600Y-89948665D01*
X140296603Y-89837012D01*
X140253146Y-89693751D01*
X140182574Y-89561722D01*
X140087601Y-89445997D01*
X140058604Y-89422200D01*
X139382003Y-88745600D01*
X155132501Y-88745600D01*
X155132500Y-88894789D01*
X155088563Y-88938726D01*
X154975295Y-89108244D01*
X154897274Y-89296602D01*
X154857500Y-89496561D01*
X154857500Y-89700439D01*
X154897274Y-89900398D01*
X154975295Y-90088756D01*
X155088563Y-90258274D01*
X155232726Y-90402437D01*
X155402244Y-90515705D01*
X155590602Y-90593726D01*
X155790561Y-90633500D01*
X155994439Y-90633500D01*
X156194398Y-90593726D01*
X156382756Y-90515705D01*
X156552274Y-90402437D01*
X156696437Y-90258274D01*
X156809705Y-90088756D01*
X156887726Y-89900398D01*
X156927500Y-89700439D01*
X156927500Y-89496561D01*
X156887726Y-89296602D01*
X156809705Y-89108244D01*
X156696437Y-88938726D01*
X156652500Y-88894789D01*
X156652500Y-88022933D01*
X156656177Y-87985600D01*
X156641503Y-87836614D01*
X156598046Y-87693353D01*
X156527474Y-87561324D01*
X156432501Y-87445599D01*
X156316776Y-87350626D01*
X156184747Y-87280054D01*
X156041486Y-87236597D01*
X155929833Y-87225600D01*
X155892500Y-87221923D01*
X155855167Y-87225600D01*
X138046302Y-87225600D01*
X137981102Y-87160400D01*
X138175173Y-87160400D01*
X138447582Y-87106214D01*
X138704185Y-86999925D01*
X138935122Y-86845618D01*
X139131518Y-86649222D01*
X139285825Y-86418285D01*
X139306300Y-86368854D01*
X139326775Y-86418285D01*
X139481082Y-86649222D01*
X139677478Y-86845618D01*
X139908415Y-86999925D01*
X140165018Y-87106214D01*
X140437427Y-87160400D01*
X140715173Y-87160400D01*
X140987582Y-87106214D01*
X141244185Y-86999925D01*
X141475122Y-86845618D01*
X141671518Y-86649222D01*
X141825825Y-86418285D01*
X141846300Y-86368854D01*
X141866775Y-86418285D01*
X142021082Y-86649222D01*
X142217478Y-86845618D01*
X142448415Y-86999925D01*
X142705018Y-87106214D01*
X142977427Y-87160400D01*
X143255173Y-87160400D01*
X143527582Y-87106214D01*
X143784185Y-86999925D01*
X144015122Y-86845618D01*
X144211518Y-86649222D01*
X144365825Y-86418285D01*
X144386300Y-86368854D01*
X144406775Y-86418285D01*
X144561082Y-86649222D01*
X144757478Y-86845618D01*
X144988415Y-86999925D01*
X145245018Y-87106214D01*
X145517427Y-87160400D01*
X145795173Y-87160400D01*
X146067582Y-87106214D01*
X146324185Y-86999925D01*
X146555122Y-86845618D01*
X146751518Y-86649222D01*
X146905825Y-86418285D01*
X146926300Y-86368854D01*
X146946775Y-86418285D01*
X147101082Y-86649222D01*
X147297478Y-86845618D01*
X147528415Y-86999925D01*
X147785018Y-87106214D01*
X148057427Y-87160400D01*
X148335173Y-87160400D01*
X148607582Y-87106214D01*
X148864185Y-86999925D01*
X149095122Y-86845618D01*
X149291518Y-86649222D01*
X149445825Y-86418285D01*
X149552114Y-86161682D01*
X149606300Y-85889273D01*
X149606300Y-85611527D01*
X149552114Y-85339118D01*
X149445825Y-85082515D01*
X149291518Y-84851578D01*
X149095122Y-84655182D01*
X148864185Y-84500875D01*
X148819098Y-84482199D01*
X148922990Y-84426668D01*
X148991544Y-84185249D01*
X148196300Y-83390005D01*
X147401056Y-84185249D01*
X147469610Y-84426668D01*
X147580924Y-84479125D01*
X147528415Y-84500875D01*
X147297478Y-84655182D01*
X147101082Y-84851578D01*
X146946775Y-85082515D01*
X146926300Y-85131946D01*
X146905825Y-85082515D01*
X146751518Y-84851578D01*
X146555122Y-84655182D01*
X146324185Y-84500875D01*
X146279098Y-84482199D01*
X146382990Y-84426668D01*
X146451544Y-84185249D01*
X145656300Y-83390005D01*
X144861056Y-84185249D01*
X144929610Y-84426668D01*
X145040924Y-84479125D01*
X144988415Y-84500875D01*
X144757478Y-84655182D01*
X144561082Y-84851578D01*
X144406775Y-85082515D01*
X144386300Y-85131946D01*
X144365825Y-85082515D01*
X144211518Y-84851578D01*
X144015122Y-84655182D01*
X143784185Y-84500875D01*
X143739098Y-84482199D01*
X143842990Y-84426668D01*
X143911544Y-84185249D01*
X143116300Y-83390005D01*
X142321056Y-84185249D01*
X142389610Y-84426668D01*
X142500924Y-84479125D01*
X142448415Y-84500875D01*
X142217478Y-84655182D01*
X142021082Y-84851578D01*
X141866775Y-85082515D01*
X141846300Y-85131946D01*
X141825825Y-85082515D01*
X141671518Y-84851578D01*
X141475122Y-84655182D01*
X141244185Y-84500875D01*
X141199098Y-84482199D01*
X141302990Y-84426668D01*
X141371544Y-84185249D01*
X140576300Y-83390005D01*
X140562158Y-83404148D01*
X140382553Y-83224543D01*
X140396695Y-83210400D01*
X140382553Y-83196258D01*
X140562158Y-83016653D01*
X140576300Y-83030795D01*
X140590443Y-83016653D01*
X140770048Y-83196258D01*
X140755905Y-83210400D01*
X141551149Y-84005644D01*
X141792568Y-83937090D01*
X141842920Y-83830241D01*
X141900032Y-83937090D01*
X142141451Y-84005644D01*
X142936695Y-83210400D01*
X142922553Y-83196258D01*
X143102158Y-83016653D01*
X143116300Y-83030795D01*
X143130443Y-83016653D01*
X143310048Y-83196258D01*
X143295905Y-83210400D01*
X144091149Y-84005644D01*
X144332568Y-83937090D01*
X144382920Y-83830241D01*
X144440032Y-83937090D01*
X144681451Y-84005644D01*
X145476695Y-83210400D01*
X145462553Y-83196258D01*
X145642158Y-83016653D01*
X145656300Y-83030795D01*
X145670443Y-83016653D01*
X145850048Y-83196258D01*
X145835905Y-83210400D01*
X146631149Y-84005644D01*
X146872568Y-83937090D01*
X146922920Y-83830241D01*
X146980032Y-83937090D01*
X147221451Y-84005644D01*
X148016695Y-83210400D01*
X148002553Y-83196258D01*
X148182158Y-83016653D01*
X148196300Y-83030795D01*
X148210443Y-83016653D01*
X148390048Y-83196258D01*
X148375905Y-83210400D01*
X149171149Y-84005644D01*
X149412568Y-83937090D01*
X149530968Y-83685844D01*
X149598078Y-83416329D01*
X149611318Y-83138898D01*
X149570179Y-82864216D01*
X149479356Y-82611500D01*
X156631799Y-82611500D01*
X161139601Y-87119303D01*
X161139600Y-89174189D01*
X161095663Y-89218126D01*
X160982395Y-89387644D01*
X160904374Y-89576002D01*
X160864600Y-89775961D01*
X160864600Y-89979839D01*
X160904374Y-90179798D01*
X160982395Y-90368156D01*
X161095663Y-90537674D01*
X161239826Y-90681837D01*
X161409344Y-90795105D01*
X161597702Y-90873126D01*
X161797661Y-90912900D01*
X162001539Y-90912900D01*
X162201498Y-90873126D01*
X162389856Y-90795105D01*
X162559374Y-90681837D01*
X162703537Y-90537674D01*
X162816805Y-90368156D01*
X162894826Y-90179798D01*
X162934600Y-89979839D01*
X162934600Y-89775961D01*
X162894826Y-89576002D01*
X162816805Y-89387644D01*
X162703537Y-89218126D01*
X162659600Y-89174189D01*
X162659600Y-86841825D01*
X162663276Y-86804500D01*
X162659600Y-86767175D01*
X162659600Y-86767167D01*
X162648603Y-86655514D01*
X162605146Y-86512253D01*
X162534574Y-86380224D01*
X162439601Y-86264499D01*
X162410603Y-86240701D01*
X159664036Y-83494134D01*
X159766000Y-83504177D01*
X159803333Y-83500500D01*
X167591899Y-83500500D01*
X168721501Y-84630103D01*
X168721500Y-89059889D01*
X168677563Y-89103826D01*
X168564295Y-89273344D01*
X168486274Y-89461702D01*
X168446500Y-89661661D01*
X168446500Y-89865539D01*
X168486274Y-90065498D01*
X168564295Y-90253856D01*
X168677563Y-90423374D01*
X168821726Y-90567537D01*
X168991244Y-90680805D01*
X169179602Y-90758826D01*
X169379561Y-90798600D01*
X169583439Y-90798600D01*
X169783398Y-90758826D01*
X169971756Y-90680805D01*
X170141274Y-90567537D01*
X170285437Y-90423374D01*
X170398705Y-90253856D01*
X170476726Y-90065498D01*
X170516500Y-89865539D01*
X170516500Y-89661661D01*
X170476726Y-89461702D01*
X170398705Y-89273344D01*
X170285437Y-89103826D01*
X170241500Y-89059889D01*
X170241500Y-84816601D01*
X174480011Y-89055113D01*
X174393595Y-89184444D01*
X174315574Y-89372802D01*
X174275800Y-89572761D01*
X174275800Y-89776639D01*
X174315574Y-89976598D01*
X174393595Y-90164956D01*
X174506863Y-90334474D01*
X174651026Y-90478637D01*
X174820544Y-90591905D01*
X175008902Y-90669926D01*
X175208861Y-90709700D01*
X175412739Y-90709700D01*
X175612698Y-90669926D01*
X175801056Y-90591905D01*
X175970574Y-90478637D01*
X176114737Y-90334474D01*
X176228005Y-90164956D01*
X176306026Y-89976598D01*
X176345800Y-89776639D01*
X176345800Y-89572761D01*
X176306026Y-89372802D01*
X176228005Y-89184444D01*
X176114737Y-89014926D01*
X176070800Y-88970989D01*
X176070800Y-88848422D01*
X176074476Y-88811099D01*
X176070800Y-88773776D01*
X176070800Y-88773767D01*
X176059803Y-88662114D01*
X176016346Y-88518853D01*
X175945774Y-88386824D01*
X175850801Y-88271099D01*
X175821803Y-88247301D01*
X168339491Y-80764990D01*
X173049728Y-80764990D01*
X173049728Y-81716500D01*
X173061988Y-81840982D01*
X173098298Y-81960680D01*
X173157263Y-82070994D01*
X173236615Y-82167685D01*
X173333306Y-82247037D01*
X173443620Y-82306002D01*
X173563318Y-82342312D01*
X173687800Y-82354572D01*
X174687800Y-82354572D01*
X174812282Y-82342312D01*
X174931980Y-82306002D01*
X175006294Y-82266280D01*
X175106733Y-82307883D01*
X175326012Y-82351500D01*
X175549588Y-82351500D01*
X175768867Y-82307883D01*
X175975424Y-82222324D01*
X176062800Y-82163941D01*
X176150176Y-82222324D01*
X176356733Y-82307883D01*
X176576012Y-82351500D01*
X176799588Y-82351500D01*
X176844491Y-82342568D01*
X176844491Y-82602660D01*
X176840814Y-82639992D01*
X176855488Y-82788977D01*
X176898944Y-82932238D01*
X176969516Y-83064268D01*
X177030764Y-83138898D01*
X177064490Y-83179993D01*
X177093488Y-83203791D01*
X183940500Y-90050804D01*
X183940500Y-90112941D01*
X183980274Y-90312900D01*
X184058295Y-90501258D01*
X184171563Y-90670776D01*
X184315726Y-90814939D01*
X184485244Y-90928207D01*
X184673602Y-91006228D01*
X184873561Y-91046002D01*
X185077439Y-91046002D01*
X185277398Y-91006228D01*
X185465756Y-90928207D01*
X185635274Y-90814939D01*
X185779437Y-90670776D01*
X185892705Y-90501258D01*
X185970726Y-90312900D01*
X186010500Y-90112941D01*
X186010500Y-89909063D01*
X185970726Y-89709104D01*
X185892705Y-89520746D01*
X185779437Y-89351228D01*
X185635274Y-89207065D01*
X185465756Y-89093797D01*
X185277398Y-89015776D01*
X185077439Y-88976002D01*
X185015302Y-88976002D01*
X178364490Y-82325191D01*
X178364490Y-80042323D01*
X178368167Y-80004990D01*
X178353493Y-79856004D01*
X178310036Y-79712743D01*
X178239464Y-79580714D01*
X178174865Y-79502000D01*
X185390020Y-79502000D01*
X186595340Y-80104660D01*
X187198000Y-81309980D01*
X187198000Y-123160020D01*
X186595340Y-124365340D01*
X185390020Y-124968000D01*
X80039980Y-124968000D01*
X78834660Y-124365340D01*
X78232000Y-123160020D01*
X78232000Y-121182751D01*
X88960400Y-121182751D01*
X88960400Y-121659449D01*
X89053400Y-122126988D01*
X89235824Y-122567400D01*
X89500664Y-122963760D01*
X89837740Y-123300836D01*
X90234100Y-123565676D01*
X90674512Y-123748100D01*
X91142051Y-123841100D01*
X91618749Y-123841100D01*
X92086288Y-123748100D01*
X92526700Y-123565676D01*
X92923060Y-123300836D01*
X93108280Y-123115616D01*
X104005489Y-123115616D01*
X104195773Y-123460357D01*
X104619065Y-123679595D01*
X105076995Y-123812040D01*
X105551964Y-123852603D01*
X106025720Y-123799724D01*
X106480056Y-123655437D01*
X106845027Y-123460357D01*
X107035311Y-123115616D01*
X105520400Y-121600705D01*
X104005489Y-123115616D01*
X93108280Y-123115616D01*
X93260136Y-122963760D01*
X93524976Y-122567400D01*
X93707400Y-122126988D01*
X93800400Y-121659449D01*
X93800400Y-121452664D01*
X103088897Y-121452664D01*
X103141776Y-121926420D01*
X103286063Y-122380756D01*
X103481143Y-122745727D01*
X103825884Y-122936011D01*
X105340795Y-121421100D01*
X105700005Y-121421100D01*
X107214916Y-122936011D01*
X107559657Y-122745727D01*
X107778895Y-122322435D01*
X107911340Y-121864505D01*
X107951903Y-121389536D01*
X107941581Y-121297051D01*
X114644033Y-121297051D01*
X114644033Y-121773749D01*
X114737033Y-122241288D01*
X114919457Y-122681700D01*
X115184297Y-123078060D01*
X115521373Y-123415136D01*
X115917733Y-123679976D01*
X116358145Y-123862400D01*
X116825684Y-123955400D01*
X117302382Y-123955400D01*
X117769921Y-123862400D01*
X118210333Y-123679976D01*
X118606693Y-123415136D01*
X118791913Y-123229916D01*
X129689122Y-123229916D01*
X129879406Y-123574657D01*
X130302698Y-123793895D01*
X130760628Y-123926340D01*
X131235597Y-123966903D01*
X131709353Y-123914024D01*
X132163689Y-123769737D01*
X132528660Y-123574657D01*
X132718944Y-123229916D01*
X131204033Y-121715005D01*
X129689122Y-123229916D01*
X118791913Y-123229916D01*
X118943769Y-123078060D01*
X119208609Y-122681700D01*
X119391033Y-122241288D01*
X119484033Y-121773749D01*
X119484033Y-121566964D01*
X128772530Y-121566964D01*
X128825409Y-122040720D01*
X128969696Y-122495056D01*
X129164776Y-122860027D01*
X129509517Y-123050311D01*
X131024428Y-121535400D01*
X131383638Y-121535400D01*
X132898549Y-123050311D01*
X133243290Y-122860027D01*
X133462528Y-122436735D01*
X133594973Y-121978805D01*
X133635536Y-121503836D01*
X133599698Y-121182751D01*
X140327666Y-121182751D01*
X140327666Y-121659449D01*
X140420666Y-122126988D01*
X140603090Y-122567400D01*
X140867930Y-122963760D01*
X141205006Y-123300836D01*
X141601366Y-123565676D01*
X142041778Y-123748100D01*
X142509317Y-123841100D01*
X142986015Y-123841100D01*
X143453554Y-123748100D01*
X143893966Y-123565676D01*
X144290326Y-123300836D01*
X144475546Y-123115616D01*
X155372755Y-123115616D01*
X155563039Y-123460357D01*
X155986331Y-123679595D01*
X156444261Y-123812040D01*
X156919230Y-123852603D01*
X157392986Y-123799724D01*
X157847322Y-123655437D01*
X158212293Y-123460357D01*
X158402577Y-123115616D01*
X156887666Y-121600705D01*
X155372755Y-123115616D01*
X144475546Y-123115616D01*
X144627402Y-122963760D01*
X144892242Y-122567400D01*
X145074666Y-122126988D01*
X145167666Y-121659449D01*
X145167666Y-121452664D01*
X154456163Y-121452664D01*
X154509042Y-121926420D01*
X154653329Y-122380756D01*
X154848409Y-122745727D01*
X155193150Y-122936011D01*
X156708061Y-121421100D01*
X157067271Y-121421100D01*
X158582182Y-122936011D01*
X158926923Y-122745727D01*
X159146161Y-122322435D01*
X159278606Y-121864505D01*
X159319169Y-121389536D01*
X159286166Y-121093851D01*
X166011300Y-121093851D01*
X166011300Y-121570549D01*
X166104300Y-122038088D01*
X166286724Y-122478500D01*
X166551564Y-122874860D01*
X166888640Y-123211936D01*
X167285000Y-123476776D01*
X167725412Y-123659200D01*
X168192951Y-123752200D01*
X168669649Y-123752200D01*
X169137188Y-123659200D01*
X169577600Y-123476776D01*
X169973960Y-123211936D01*
X170159180Y-123026716D01*
X181056389Y-123026716D01*
X181246673Y-123371457D01*
X181669965Y-123590695D01*
X182127895Y-123723140D01*
X182602864Y-123763703D01*
X183076620Y-123710824D01*
X183530956Y-123566537D01*
X183895927Y-123371457D01*
X184086211Y-123026716D01*
X182571300Y-121511805D01*
X181056389Y-123026716D01*
X170159180Y-123026716D01*
X170311036Y-122874860D01*
X170575876Y-122478500D01*
X170758300Y-122038088D01*
X170851300Y-121570549D01*
X170851300Y-121363764D01*
X180139797Y-121363764D01*
X180192676Y-121837520D01*
X180336963Y-122291856D01*
X180532043Y-122656827D01*
X180876784Y-122847111D01*
X182391695Y-121332200D01*
X182750905Y-121332200D01*
X184265816Y-122847111D01*
X184610557Y-122656827D01*
X184829795Y-122233535D01*
X184962240Y-121775605D01*
X185002803Y-121300636D01*
X184949924Y-120826880D01*
X184805637Y-120372544D01*
X184610557Y-120007573D01*
X184265816Y-119817289D01*
X182750905Y-121332200D01*
X182391695Y-121332200D01*
X180876784Y-119817289D01*
X180532043Y-120007573D01*
X180312805Y-120430865D01*
X180180360Y-120888795D01*
X180139797Y-121363764D01*
X170851300Y-121363764D01*
X170851300Y-121093851D01*
X170758300Y-120626312D01*
X170575876Y-120185900D01*
X170311036Y-119789540D01*
X169973960Y-119452464D01*
X169577600Y-119187624D01*
X169137188Y-119005200D01*
X168669649Y-118912200D01*
X168192951Y-118912200D01*
X167725412Y-119005200D01*
X167285000Y-119187624D01*
X166888640Y-119452464D01*
X166551564Y-119789540D01*
X166286724Y-120185900D01*
X166104300Y-120626312D01*
X166011300Y-121093851D01*
X159286166Y-121093851D01*
X159266290Y-120915780D01*
X159122003Y-120461444D01*
X158926923Y-120096473D01*
X158582182Y-119906189D01*
X157067271Y-121421100D01*
X156708061Y-121421100D01*
X155193150Y-119906189D01*
X154848409Y-120096473D01*
X154629171Y-120519765D01*
X154496726Y-120977695D01*
X154456163Y-121452664D01*
X145167666Y-121452664D01*
X145167666Y-121182751D01*
X145074666Y-120715212D01*
X144892242Y-120274800D01*
X144627402Y-119878440D01*
X144290326Y-119541364D01*
X143893966Y-119276524D01*
X143453554Y-119094100D01*
X142986015Y-119001100D01*
X142509317Y-119001100D01*
X142041778Y-119094100D01*
X141601366Y-119276524D01*
X141205006Y-119541364D01*
X140867930Y-119878440D01*
X140603090Y-120274800D01*
X140420666Y-120715212D01*
X140327666Y-121182751D01*
X133599698Y-121182751D01*
X133582657Y-121030080D01*
X133438370Y-120575744D01*
X133243290Y-120210773D01*
X132898549Y-120020489D01*
X131383638Y-121535400D01*
X131024428Y-121535400D01*
X129509517Y-120020489D01*
X129164776Y-120210773D01*
X128945538Y-120634065D01*
X128813093Y-121091995D01*
X128772530Y-121566964D01*
X119484033Y-121566964D01*
X119484033Y-121297051D01*
X119391033Y-120829512D01*
X119208609Y-120389100D01*
X118943769Y-119992740D01*
X118606693Y-119655664D01*
X118210333Y-119390824D01*
X117769921Y-119208400D01*
X117302382Y-119115400D01*
X116825684Y-119115400D01*
X116358145Y-119208400D01*
X115917733Y-119390824D01*
X115521373Y-119655664D01*
X115184297Y-119992740D01*
X114919457Y-120389100D01*
X114737033Y-120829512D01*
X114644033Y-121297051D01*
X107941581Y-121297051D01*
X107899024Y-120915780D01*
X107754737Y-120461444D01*
X107559657Y-120096473D01*
X107214916Y-119906189D01*
X105700005Y-121421100D01*
X105340795Y-121421100D01*
X103825884Y-119906189D01*
X103481143Y-120096473D01*
X103261905Y-120519765D01*
X103129460Y-120977695D01*
X103088897Y-121452664D01*
X93800400Y-121452664D01*
X93800400Y-121182751D01*
X93707400Y-120715212D01*
X93524976Y-120274800D01*
X93260136Y-119878440D01*
X92923060Y-119541364D01*
X92526700Y-119276524D01*
X92086288Y-119094100D01*
X91618749Y-119001100D01*
X91142051Y-119001100D01*
X90674512Y-119094100D01*
X90234100Y-119276524D01*
X89837740Y-119541364D01*
X89500664Y-119878440D01*
X89235824Y-120274800D01*
X89053400Y-120715212D01*
X88960400Y-121182751D01*
X78232000Y-121182751D01*
X78232000Y-108852618D01*
X79093855Y-108852618D01*
X79140809Y-109225915D01*
X79259687Y-109582878D01*
X79388455Y-109823784D01*
X79680985Y-109952710D01*
X80832795Y-108800900D01*
X79680985Y-107649090D01*
X79388455Y-107778016D01*
X79220104Y-108114486D01*
X79120629Y-108477335D01*
X79093855Y-108852618D01*
X78232000Y-108852618D01*
X78232000Y-107469485D01*
X79860590Y-107469485D01*
X81012400Y-108621295D01*
X82164210Y-107469485D01*
X82035284Y-107176955D01*
X81698814Y-107008604D01*
X81335965Y-106909129D01*
X80960682Y-106882355D01*
X80587385Y-106929309D01*
X80230422Y-107048187D01*
X79989516Y-107176955D01*
X79860590Y-107469485D01*
X78232000Y-107469485D01*
X78232000Y-99849893D01*
X80956213Y-99849893D01*
X81216775Y-100254546D01*
X81739594Y-100532118D01*
X82306518Y-100702359D01*
X82895761Y-100758728D01*
X83484679Y-100699058D01*
X84050641Y-100525643D01*
X84557825Y-100254546D01*
X84818387Y-99849893D01*
X82887300Y-97918805D01*
X80956213Y-99849893D01*
X78232000Y-99849893D01*
X78232000Y-97747661D01*
X79867772Y-97747661D01*
X79927442Y-98336579D01*
X80100857Y-98902541D01*
X80371954Y-99409725D01*
X80776607Y-99670287D01*
X82707695Y-97739200D01*
X83066905Y-97739200D01*
X84997993Y-99670287D01*
X85402646Y-99409725D01*
X85680218Y-98886906D01*
X85697125Y-98830604D01*
X85905276Y-99333125D01*
X86273534Y-99884263D01*
X86742237Y-100352966D01*
X87293375Y-100721224D01*
X87905766Y-100974885D01*
X88555876Y-101104200D01*
X89218724Y-101104200D01*
X89868834Y-100974885D01*
X90481225Y-100721224D01*
X91032363Y-100352966D01*
X91501066Y-99884263D01*
X91869324Y-99333125D01*
X92122985Y-98720734D01*
X92252300Y-98070624D01*
X92252300Y-97407776D01*
X92122985Y-96757666D01*
X91869324Y-96145275D01*
X91743835Y-95957467D01*
X98313704Y-89387598D01*
X98342701Y-89363801D01*
X98437674Y-89248076D01*
X98508246Y-89116047D01*
X98551703Y-88972786D01*
X98562700Y-88861133D01*
X98562700Y-88861132D01*
X98566377Y-88823800D01*
X98562700Y-88786467D01*
X98562700Y-83974950D01*
X98570000Y-83900833D01*
X98570000Y-83761125D01*
X98573676Y-83723800D01*
X98570000Y-83686475D01*
X98570000Y-82399146D01*
X98628494Y-82367880D01*
X98728933Y-82409483D01*
X98948212Y-82453100D01*
X99171788Y-82453100D01*
X99391067Y-82409483D01*
X99597624Y-82323924D01*
X99685000Y-82265541D01*
X99772376Y-82323924D01*
X99978933Y-82409483D01*
X100198212Y-82453100D01*
X100421788Y-82453100D01*
X100641067Y-82409483D01*
X100847624Y-82323924D01*
X101033520Y-82199712D01*
X101191612Y-82041620D01*
X101315824Y-81855724D01*
X101401383Y-81649167D01*
X101445000Y-81429888D01*
X101445000Y-81206312D01*
X101401383Y-80987033D01*
X101315824Y-80780476D01*
X101256105Y-80691100D01*
X109567828Y-80691100D01*
X109567828Y-81691100D01*
X109580088Y-81815582D01*
X109616398Y-81935280D01*
X109675363Y-82045594D01*
X109754715Y-82142285D01*
X109851406Y-82221637D01*
X109961720Y-82280602D01*
X110081418Y-82316912D01*
X110205900Y-82329172D01*
X111205900Y-82329172D01*
X111330382Y-82316912D01*
X111450080Y-82280602D01*
X111524394Y-82240880D01*
X111624833Y-82282483D01*
X111844112Y-82326100D01*
X112067688Y-82326100D01*
X112286967Y-82282483D01*
X112493524Y-82196924D01*
X112580900Y-82138541D01*
X112668276Y-82196924D01*
X112874833Y-82282483D01*
X113094112Y-82326100D01*
X113317688Y-82326100D01*
X113536967Y-82282483D01*
X113743524Y-82196924D01*
X113929420Y-82072712D01*
X114087512Y-81914620D01*
X114211724Y-81728724D01*
X114297283Y-81522167D01*
X114340900Y-81302888D01*
X114340900Y-81079312D01*
X114297283Y-80860033D01*
X114211724Y-80653476D01*
X114087512Y-80467580D01*
X113929420Y-80309488D01*
X113743524Y-80185276D01*
X113536967Y-80099717D01*
X113317688Y-80056100D01*
X113094112Y-80056100D01*
X112874833Y-80099717D01*
X112668276Y-80185276D01*
X112580900Y-80243659D01*
X112493524Y-80185276D01*
X112286967Y-80099717D01*
X112067688Y-80056100D01*
X111844112Y-80056100D01*
X111624833Y-80099717D01*
X111524394Y-80141320D01*
X111450080Y-80101598D01*
X111330382Y-80065288D01*
X111205900Y-80053028D01*
X110205900Y-80053028D01*
X110081418Y-80065288D01*
X109961720Y-80101598D01*
X109851406Y-80160563D01*
X109754715Y-80239915D01*
X109675363Y-80336606D01*
X109616398Y-80446920D01*
X109580088Y-80566618D01*
X109567828Y-80691100D01*
X101256105Y-80691100D01*
X101191612Y-80594580D01*
X101033520Y-80436488D01*
X100847624Y-80312276D01*
X100641067Y-80226717D01*
X100421788Y-80183100D01*
X100198212Y-80183100D01*
X99978933Y-80226717D01*
X99772376Y-80312276D01*
X99685000Y-80370659D01*
X99597624Y-80312276D01*
X99391067Y-80226717D01*
X99171788Y-80183100D01*
X98948212Y-80183100D01*
X98728933Y-80226717D01*
X98628494Y-80268320D01*
X98554180Y-80228598D01*
X98434482Y-80192288D01*
X98310000Y-80180028D01*
X97310000Y-80180028D01*
X97185518Y-80192288D01*
X97065820Y-80228598D01*
X96955506Y-80287563D01*
X96858815Y-80366915D01*
X96779463Y-80463606D01*
X96720498Y-80573920D01*
X96684188Y-80693618D01*
X96671928Y-80818100D01*
X96671928Y-81818100D01*
X96684188Y-81942582D01*
X96720498Y-82062280D01*
X96779463Y-82172594D01*
X96858815Y-82269285D01*
X96955506Y-82348637D01*
X97050001Y-82399146D01*
X97050000Y-83619660D01*
X97039024Y-83731100D01*
X97042701Y-83768432D01*
X97042700Y-88508998D01*
X90669033Y-94882665D01*
X90481225Y-94757176D01*
X89868834Y-94503515D01*
X89218724Y-94374200D01*
X88555876Y-94374200D01*
X87905766Y-94503515D01*
X87293375Y-94757176D01*
X86742237Y-95125434D01*
X86273534Y-95594137D01*
X85905276Y-96145275D01*
X85696355Y-96649655D01*
X85673743Y-96575859D01*
X85402646Y-96068675D01*
X84997993Y-95808113D01*
X83066905Y-97739200D01*
X82707695Y-97739200D01*
X80776607Y-95808113D01*
X80371954Y-96068675D01*
X80094382Y-96591494D01*
X79924141Y-97158418D01*
X79867772Y-97747661D01*
X78232000Y-97747661D01*
X78232000Y-95628507D01*
X80956213Y-95628507D01*
X82887300Y-97559595D01*
X84818387Y-95628507D01*
X84557825Y-95223854D01*
X84035006Y-94946282D01*
X83468082Y-94776041D01*
X82878839Y-94719672D01*
X82289921Y-94779342D01*
X81723959Y-94952757D01*
X81216775Y-95223854D01*
X80956213Y-95628507D01*
X78232000Y-95628507D01*
X78232000Y-81309980D01*
X78834660Y-80104660D01*
X80039980Y-79502000D01*
X130509898Y-79502000D01*
X128178926Y-81832973D01*
G37*
X128178926Y-81832973D02*
X128015173Y-81800400D01*
X127737427Y-81800400D01*
X127465018Y-81854586D01*
X127208415Y-81960875D01*
X126977478Y-82115182D01*
X126781082Y-82311578D01*
X126626775Y-82542515D01*
X126606300Y-82591946D01*
X126585825Y-82542515D01*
X126431518Y-82311578D01*
X126235122Y-82115182D01*
X126004185Y-81960875D01*
X125747582Y-81854586D01*
X125475173Y-81800400D01*
X125197427Y-81800400D01*
X124925018Y-81854586D01*
X124668415Y-81960875D01*
X124437478Y-82115182D01*
X124241082Y-82311578D01*
X124086775Y-82542515D01*
X123980486Y-82799118D01*
X123926300Y-83071527D01*
X123926300Y-83349273D01*
X123980486Y-83621682D01*
X124086775Y-83878285D01*
X124241082Y-84109222D01*
X124437478Y-84305618D01*
X124668415Y-84459925D01*
X124717846Y-84480400D01*
X124668415Y-84500875D01*
X124437478Y-84655182D01*
X124241082Y-84851578D01*
X124086775Y-85082515D01*
X123980486Y-85339118D01*
X123926300Y-85611527D01*
X123926300Y-85889273D01*
X123980486Y-86161682D01*
X124086775Y-86418285D01*
X124241082Y-86649222D01*
X124437478Y-86845618D01*
X124668415Y-86999925D01*
X124925018Y-87106214D01*
X125197427Y-87160400D01*
X125475173Y-87160400D01*
X125747582Y-87106214D01*
X126004185Y-86999925D01*
X126235122Y-86845618D01*
X126431518Y-86649222D01*
X126585825Y-86418285D01*
X126606300Y-86368854D01*
X126626775Y-86418285D01*
X126781082Y-86649222D01*
X126977478Y-86845618D01*
X127208415Y-86999925D01*
X127465018Y-87106214D01*
X127737427Y-87160400D01*
X127931499Y-87160400D01*
X127878999Y-87212900D01*
X104990133Y-87212900D01*
X104952800Y-87209223D01*
X104915467Y-87212900D01*
X104803814Y-87223897D01*
X104660553Y-87267354D01*
X104528524Y-87337926D01*
X104412799Y-87432899D01*
X104389001Y-87461897D01*
X98054999Y-93795900D01*
X97992861Y-93795900D01*
X97792902Y-93835674D01*
X97604544Y-93913695D01*
X97435026Y-94026963D01*
X97290863Y-94171126D01*
X97177595Y-94340644D01*
X97099574Y-94529002D01*
X97059800Y-94728961D01*
X97059800Y-94932839D01*
X97099574Y-95132798D01*
X97177595Y-95321156D01*
X97290863Y-95490674D01*
X97435026Y-95634837D01*
X97604544Y-95748105D01*
X97792902Y-95826126D01*
X97992861Y-95865900D01*
X98196739Y-95865900D01*
X98396698Y-95826126D01*
X98585056Y-95748105D01*
X98754574Y-95634837D01*
X98898737Y-95490674D01*
X99012005Y-95321156D01*
X99090026Y-95132798D01*
X99129800Y-94932839D01*
X99129800Y-94870701D01*
X104192801Y-89807701D01*
X104192800Y-94292289D01*
X104148863Y-94336226D01*
X104035595Y-94505744D01*
X103957574Y-94694102D01*
X103917800Y-94894061D01*
X103917800Y-95097939D01*
X103957574Y-95297898D01*
X104035595Y-95486256D01*
X104148863Y-95655774D01*
X104293026Y-95799937D01*
X104462544Y-95913205D01*
X104650902Y-95991226D01*
X104850861Y-96031000D01*
X105054739Y-96031000D01*
X105254698Y-95991226D01*
X105443056Y-95913205D01*
X105612574Y-95799937D01*
X105756737Y-95655774D01*
X105870005Y-95486256D01*
X105948026Y-95297898D01*
X105987800Y-95097939D01*
X105987800Y-94894061D01*
X105948026Y-94694102D01*
X105870005Y-94505744D01*
X105756737Y-94336226D01*
X105712800Y-94292289D01*
X105712800Y-89469500D01*
X115690998Y-89469500D01*
X111186799Y-93973700D01*
X111124661Y-93973700D01*
X110924702Y-94013474D01*
X110736344Y-94091495D01*
X110566826Y-94204763D01*
X110422663Y-94348926D01*
X110309395Y-94518444D01*
X110231374Y-94706802D01*
X110191600Y-94906761D01*
X110191600Y-95110639D01*
X110231374Y-95310598D01*
X110309395Y-95498956D01*
X110422663Y-95668474D01*
X110566826Y-95812637D01*
X110736344Y-95925905D01*
X110924702Y-96003926D01*
X111124661Y-96043700D01*
X111328539Y-96043700D01*
X111528498Y-96003926D01*
X111716856Y-95925905D01*
X111886374Y-95812637D01*
X112030537Y-95668474D01*
X112143805Y-95498956D01*
X112221826Y-95310598D01*
X112261600Y-95110639D01*
X112261600Y-95048501D01*
X117091302Y-90218800D01*
X120047098Y-90218800D01*
X116330299Y-93935600D01*
X116268161Y-93935600D01*
X116068202Y-93975374D01*
X115879844Y-94053395D01*
X115710326Y-94166663D01*
X115566163Y-94310826D01*
X115452895Y-94480344D01*
X115374874Y-94668702D01*
X115335100Y-94868661D01*
X115335100Y-95072539D01*
X115374874Y-95272498D01*
X115452895Y-95460856D01*
X115566163Y-95630374D01*
X115710326Y-95774537D01*
X115879844Y-95887805D01*
X116068202Y-95965826D01*
X116268161Y-96005600D01*
X116472039Y-96005600D01*
X116671998Y-95965826D01*
X116860356Y-95887805D01*
X117029874Y-95774537D01*
X117174037Y-95630374D01*
X117287305Y-95460856D01*
X117365326Y-95272498D01*
X117404986Y-95073112D01*
X124798200Y-95073112D01*
X124798200Y-95296688D01*
X124841817Y-95515967D01*
X124927376Y-95722524D01*
X125051588Y-95908420D01*
X125209680Y-96066512D01*
X125395576Y-96190724D01*
X125602133Y-96276283D01*
X125821412Y-96319900D01*
X126044988Y-96319900D01*
X126264267Y-96276283D01*
X126470824Y-96190724D01*
X126656720Y-96066512D01*
X126814812Y-95908420D01*
X126939024Y-95722524D01*
X127024583Y-95515967D01*
X127068200Y-95296688D01*
X127068200Y-95073112D01*
X127024583Y-94853833D01*
X126939024Y-94647276D01*
X126814812Y-94461380D01*
X126656720Y-94303288D01*
X126470824Y-94179076D01*
X126264267Y-94093517D01*
X126044988Y-94049900D01*
X125821412Y-94049900D01*
X125602133Y-94093517D01*
X125395576Y-94179076D01*
X125209680Y-94303288D01*
X125051588Y-94461380D01*
X124927376Y-94647276D01*
X124841817Y-94853833D01*
X124798200Y-95073112D01*
X117404986Y-95073112D01*
X117405100Y-95072539D01*
X117405100Y-95010401D01*
X121358502Y-91057000D01*
X130000380Y-91057000D01*
X130037702Y-91060676D01*
X130075024Y-91057000D01*
X130075035Y-91057000D01*
X130186688Y-91046003D01*
X130329949Y-91002546D01*
X130461978Y-90931974D01*
X130577703Y-90837001D01*
X130601506Y-90807997D01*
X134567305Y-86842199D01*
X134582000Y-86830140D01*
X134597478Y-86845618D01*
X134828415Y-86999925D01*
X135085018Y-87106214D01*
X135357427Y-87160400D01*
X135635173Y-87160400D01*
X135798926Y-87127827D01*
X137167701Y-88496603D01*
X137191499Y-88525601D01*
X137220497Y-88549399D01*
X137307223Y-88620574D01*
X137420823Y-88681295D01*
X137439253Y-88691146D01*
X137567369Y-88730009D01*
X137556300Y-88743496D01*
X131264198Y-95035599D01*
X131235200Y-95059397D01*
X131211402Y-95088395D01*
X131211401Y-95088396D01*
X131140226Y-95175122D01*
X131069654Y-95307152D01*
X131062115Y-95332007D01*
X131026197Y-95450412D01*
X131015200Y-95562065D01*
X131015200Y-95562076D01*
X131011524Y-95599398D01*
X131015200Y-95636720D01*
X131015200Y-95689289D01*
X130971263Y-95733226D01*
X130857995Y-95902744D01*
X130779974Y-96091102D01*
X130740200Y-96291061D01*
X130740200Y-96494939D01*
X130779974Y-96694898D01*
X130857995Y-96883256D01*
X130971263Y-97052774D01*
X131115426Y-97196937D01*
X131284944Y-97310205D01*
X131473302Y-97388226D01*
X131673261Y-97428000D01*
X131877139Y-97428000D01*
X132077098Y-97388226D01*
X132265456Y-97310205D01*
X132434974Y-97196937D01*
X132579137Y-97052774D01*
X132692405Y-96883256D01*
X132770426Y-96694898D01*
X132810200Y-96494939D01*
X132810200Y-96291061D01*
X132770426Y-96091102D01*
X132692405Y-95902744D01*
X132634026Y-95815373D01*
X135535300Y-92914100D01*
X135535299Y-97160878D01*
X135531623Y-97198201D01*
X135535299Y-97235523D01*
X135535299Y-97235533D01*
X135546296Y-97347186D01*
X135588351Y-97485826D01*
X135589753Y-97490447D01*
X135660325Y-97622477D01*
X135686308Y-97654137D01*
X135755298Y-97738202D01*
X135784302Y-97762005D01*
X136108495Y-98086198D01*
X136132298Y-98115202D01*
X136248023Y-98210175D01*
X136377160Y-98279201D01*
X136380052Y-98280747D01*
X136523313Y-98324204D01*
X136672299Y-98338878D01*
X136709632Y-98335201D01*
X141275925Y-98335201D01*
X141125125Y-98435962D01*
X141081188Y-98479899D01*
X130502942Y-98479899D01*
X130547926Y-98371298D01*
X130587700Y-98171339D01*
X130587700Y-97967461D01*
X130547926Y-97767502D01*
X130469905Y-97579144D01*
X130356637Y-97409626D01*
X130212474Y-97265463D01*
X130042956Y-97152195D01*
X129854598Y-97074174D01*
X129654639Y-97034400D01*
X129450761Y-97034400D01*
X129250802Y-97074174D01*
X129062444Y-97152195D01*
X128892926Y-97265463D01*
X128772789Y-97385600D01*
X120032911Y-97385600D01*
X119988974Y-97341663D01*
X119819456Y-97228395D01*
X119631098Y-97150374D01*
X119431139Y-97110600D01*
X119227261Y-97110600D01*
X119027302Y-97150374D01*
X118838944Y-97228395D01*
X118669426Y-97341663D01*
X118525263Y-97485826D01*
X118411995Y-97655344D01*
X118333974Y-97843702D01*
X118294200Y-98043661D01*
X118294200Y-98247539D01*
X118333974Y-98447498D01*
X118347395Y-98479899D01*
X108759926Y-98479899D01*
X108722601Y-98476223D01*
X108685276Y-98479899D01*
X108685268Y-98479899D01*
X108573615Y-98490896D01*
X108430354Y-98534353D01*
X108298325Y-98604925D01*
X108182600Y-98699898D01*
X108158802Y-98728896D01*
X95178900Y-111708799D01*
X94345704Y-110875603D01*
X94321901Y-110846599D01*
X94206176Y-110751626D01*
X94074147Y-110681054D01*
X93930886Y-110637597D01*
X93819233Y-110626600D01*
X93819222Y-110626600D01*
X93781900Y-110622924D01*
X93744578Y-110626600D01*
X86595842Y-110626600D01*
X86917124Y-110493520D01*
X87229954Y-110284494D01*
X87495994Y-110018454D01*
X87705020Y-109705624D01*
X87849000Y-109358027D01*
X87922400Y-108989019D01*
X87922400Y-108612781D01*
X87849000Y-108243773D01*
X87705020Y-107896176D01*
X87495994Y-107583346D01*
X87229954Y-107317306D01*
X86917124Y-107108280D01*
X86569527Y-106964300D01*
X86200519Y-106890900D01*
X85824281Y-106890900D01*
X85455273Y-106964300D01*
X85107676Y-107108280D01*
X84794846Y-107317306D01*
X84528806Y-107583346D01*
X84319780Y-107896176D01*
X84175800Y-108243773D01*
X84102400Y-108612781D01*
X84102400Y-108989019D01*
X84175800Y-109358027D01*
X84319780Y-109705624D01*
X84397445Y-109821858D01*
X84377124Y-109808280D01*
X84029527Y-109664300D01*
X83660519Y-109590900D01*
X83284281Y-109590900D01*
X82915273Y-109664300D01*
X82664083Y-109768347D01*
X82804696Y-109487314D01*
X82904171Y-109124465D01*
X82930945Y-108749182D01*
X82883991Y-108375885D01*
X82765113Y-108018922D01*
X82636345Y-107778016D01*
X82343815Y-107649090D01*
X81192005Y-108800900D01*
X81206148Y-108815043D01*
X81026543Y-108994648D01*
X81012400Y-108980505D01*
X79860590Y-110132315D01*
X79989516Y-110424845D01*
X80325986Y-110593196D01*
X80688835Y-110692671D01*
X81064118Y-110719445D01*
X81437415Y-110672491D01*
X81794378Y-110553613D01*
X81815910Y-110542104D01*
X81779780Y-110596176D01*
X81635800Y-110943773D01*
X81562400Y-111312781D01*
X81562400Y-111689019D01*
X81635800Y-112058027D01*
X81779780Y-112405624D01*
X81988806Y-112718454D01*
X82254846Y-112984494D01*
X82567676Y-113193520D01*
X82915273Y-113337500D01*
X83284281Y-113410900D01*
X83660519Y-113410900D01*
X84029527Y-113337500D01*
X84377124Y-113193520D01*
X84689954Y-112984494D01*
X84955994Y-112718454D01*
X85165020Y-112405624D01*
X85272312Y-112146600D01*
X93467099Y-112146600D01*
X94615101Y-113294603D01*
X94638899Y-113323601D01*
X94754624Y-113418574D01*
X94886654Y-113489146D01*
X94963229Y-113512374D01*
X95029913Y-113532602D01*
X95178899Y-113547276D01*
X95178900Y-113547276D01*
X95327885Y-113532602D01*
X95471146Y-113489146D01*
X95603176Y-113418574D01*
X95689902Y-113347399D01*
X95689907Y-113347394D01*
X95718900Y-113323600D01*
X95742694Y-113294607D01*
X109037403Y-99999899D01*
X124798200Y-99999899D01*
X124798200Y-100176688D01*
X124841817Y-100395967D01*
X124927376Y-100602524D01*
X124950279Y-100636800D01*
X114802023Y-100636800D01*
X114764700Y-100633124D01*
X114727377Y-100636800D01*
X114727367Y-100636800D01*
X114615714Y-100647797D01*
X114493156Y-100684974D01*
X114472453Y-100691254D01*
X114340423Y-100761826D01*
X114304830Y-100791037D01*
X114224699Y-100856799D01*
X114200901Y-100885797D01*
X97731765Y-117354933D01*
X97586811Y-117326100D01*
X97313989Y-117326100D01*
X97046411Y-117379325D01*
X96794357Y-117483729D01*
X96567514Y-117635301D01*
X96374601Y-117828214D01*
X96223029Y-118055057D01*
X96200400Y-118109688D01*
X96177771Y-118055057D01*
X96026199Y-117828214D01*
X95833286Y-117635301D01*
X95606443Y-117483729D01*
X95354389Y-117379325D01*
X95086811Y-117326100D01*
X94813989Y-117326100D01*
X94546411Y-117379325D01*
X94294357Y-117483729D01*
X94067514Y-117635301D01*
X93874601Y-117828214D01*
X93723029Y-118055057D01*
X93618625Y-118307111D01*
X93565400Y-118574689D01*
X93565400Y-118847511D01*
X93618625Y-119115089D01*
X93723029Y-119367143D01*
X93874601Y-119593986D01*
X94067514Y-119786899D01*
X94294357Y-119938471D01*
X94546411Y-120042875D01*
X94813989Y-120096100D01*
X95086811Y-120096100D01*
X95354389Y-120042875D01*
X95606443Y-119938471D01*
X95833286Y-119786899D01*
X96026199Y-119593986D01*
X96177771Y-119367143D01*
X96200400Y-119312512D01*
X96223029Y-119367143D01*
X96374601Y-119593986D01*
X96567514Y-119786899D01*
X96794357Y-119938471D01*
X97046411Y-120042875D01*
X97313989Y-120096100D01*
X97586811Y-120096100D01*
X97854389Y-120042875D01*
X98106443Y-119938471D01*
X98333286Y-119786899D01*
X98450400Y-119669785D01*
X98567514Y-119786899D01*
X98794357Y-119938471D01*
X99046411Y-120042875D01*
X99313989Y-120096100D01*
X99586811Y-120096100D01*
X99854389Y-120042875D01*
X100106443Y-119938471D01*
X100333286Y-119786899D01*
X100526199Y-119593986D01*
X100677771Y-119367143D01*
X100700400Y-119312512D01*
X100723029Y-119367143D01*
X100874601Y-119593986D01*
X101067514Y-119786899D01*
X101294357Y-119938471D01*
X101546411Y-120042875D01*
X101813989Y-120096100D01*
X102086811Y-120096100D01*
X102354389Y-120042875D01*
X102606443Y-119938471D01*
X102833286Y-119786899D01*
X102893601Y-119726584D01*
X104005489Y-119726584D01*
X105520400Y-121241495D01*
X107035311Y-119726584D01*
X106845027Y-119381843D01*
X106421735Y-119162605D01*
X105963805Y-119030160D01*
X105488836Y-118989597D01*
X105015080Y-119042476D01*
X104560744Y-119186763D01*
X104195773Y-119381843D01*
X104005489Y-119726584D01*
X102893601Y-119726584D01*
X103026199Y-119593986D01*
X103177771Y-119367143D01*
X103282175Y-119115089D01*
X103335400Y-118847511D01*
X103335400Y-118574689D01*
X103282175Y-118307111D01*
X103177771Y-118055057D01*
X103026199Y-117828214D01*
X102833286Y-117635301D01*
X102606443Y-117483729D01*
X102354389Y-117379325D01*
X102086811Y-117326100D01*
X101910201Y-117326100D01*
X116114302Y-103122000D01*
X118447752Y-103122000D01*
X118372074Y-103304702D01*
X118332300Y-103504661D01*
X118332300Y-103708539D01*
X118372074Y-103908498D01*
X118450095Y-104096856D01*
X118563363Y-104266374D01*
X118607301Y-104310312D01*
X118607300Y-119112347D01*
X118603624Y-119149669D01*
X118607300Y-119186991D01*
X118607300Y-119187001D01*
X118618297Y-119298654D01*
X118654089Y-119416646D01*
X118661754Y-119441915D01*
X118732326Y-119573945D01*
X118760401Y-119608154D01*
X118827299Y-119689670D01*
X118856302Y-119713472D01*
X119554237Y-120411409D01*
X119578031Y-120440402D01*
X119607024Y-120464196D01*
X119607028Y-120464200D01*
X119640472Y-120491646D01*
X119693756Y-120535375D01*
X119825785Y-120605947D01*
X119969046Y-120649404D01*
X120080699Y-120660401D01*
X120080708Y-120660401D01*
X120118031Y-120664077D01*
X120155354Y-120660401D01*
X124021710Y-120660401D01*
X124059032Y-120664077D01*
X124096354Y-120660401D01*
X124096365Y-120660401D01*
X124208018Y-120649404D01*
X124351279Y-120605947D01*
X124483308Y-120535375D01*
X124599033Y-120440402D01*
X124622836Y-120411399D01*
X124852668Y-120181567D01*
X124997622Y-120210400D01*
X125270444Y-120210400D01*
X125538022Y-120157175D01*
X125790076Y-120052771D01*
X126016919Y-119901199D01*
X126209832Y-119708286D01*
X126361404Y-119481443D01*
X126384033Y-119426812D01*
X126406662Y-119481443D01*
X126558234Y-119708286D01*
X126751147Y-119901199D01*
X126977990Y-120052771D01*
X127230044Y-120157175D01*
X127497622Y-120210400D01*
X127770444Y-120210400D01*
X128038022Y-120157175D01*
X128290076Y-120052771D01*
X128516919Y-119901199D01*
X128577234Y-119840884D01*
X129689122Y-119840884D01*
X131204033Y-121355795D01*
X132718944Y-119840884D01*
X132528660Y-119496143D01*
X132105368Y-119276905D01*
X131647438Y-119144460D01*
X131172469Y-119103897D01*
X130698713Y-119156776D01*
X130244377Y-119301063D01*
X129879406Y-119496143D01*
X129689122Y-119840884D01*
X128577234Y-119840884D01*
X128709832Y-119708286D01*
X128861404Y-119481443D01*
X128965808Y-119229389D01*
X129019033Y-118961811D01*
X129019033Y-118688989D01*
X128965808Y-118421411D01*
X128861404Y-118169357D01*
X128709832Y-117942514D01*
X128516919Y-117749601D01*
X128290076Y-117598029D01*
X128038022Y-117493625D01*
X127770444Y-117440400D01*
X127497622Y-117440400D01*
X127230044Y-117493625D01*
X126977990Y-117598029D01*
X126751147Y-117749601D01*
X126558234Y-117942514D01*
X126406662Y-118169357D01*
X126384033Y-118223988D01*
X126361404Y-118169357D01*
X126209832Y-117942514D01*
X126016919Y-117749601D01*
X125790076Y-117598029D01*
X125538022Y-117493625D01*
X125270444Y-117440400D01*
X124997622Y-117440400D01*
X124730044Y-117493625D01*
X124477990Y-117598029D01*
X124251147Y-117749601D01*
X124134033Y-117866715D01*
X124016919Y-117749601D01*
X123790076Y-117598029D01*
X123538022Y-117493625D01*
X123270444Y-117440400D01*
X122997622Y-117440400D01*
X122852668Y-117469233D01*
X122819032Y-117435598D01*
X122819032Y-110132369D01*
X132226503Y-100724899D01*
X135097389Y-100724899D01*
X135141326Y-100768836D01*
X135310844Y-100882104D01*
X135381139Y-100911221D01*
X135350300Y-101066261D01*
X135350300Y-101270139D01*
X135390074Y-101470098D01*
X135468095Y-101658456D01*
X135581363Y-101827974D01*
X135725526Y-101972137D01*
X135895044Y-102085405D01*
X136083402Y-102163426D01*
X136283361Y-102203200D01*
X136345499Y-102203200D01*
X146982666Y-112840368D01*
X146982665Y-117489713D01*
X146973709Y-117483729D01*
X146721655Y-117379325D01*
X146454077Y-117326100D01*
X146181255Y-117326100D01*
X145913677Y-117379325D01*
X145661623Y-117483729D01*
X145434780Y-117635301D01*
X145241867Y-117828214D01*
X145090295Y-118055057D01*
X144985891Y-118307111D01*
X144932666Y-118574689D01*
X144932666Y-118847511D01*
X144985891Y-119115089D01*
X145090295Y-119367143D01*
X145241867Y-119593986D01*
X145434780Y-119786899D01*
X145661623Y-119938471D01*
X145913677Y-120042875D01*
X146181255Y-120096100D01*
X146454077Y-120096100D01*
X146721655Y-120042875D01*
X146973709Y-119938471D01*
X147200552Y-119786899D01*
X147212377Y-119775074D01*
X147231667Y-119790904D01*
X147737870Y-120297108D01*
X147761664Y-120326102D01*
X147790657Y-120349896D01*
X147790661Y-120349900D01*
X147838427Y-120389100D01*
X147877389Y-120421075D01*
X148009418Y-120491647D01*
X148152679Y-120535104D01*
X148264332Y-120546101D01*
X148264341Y-120546101D01*
X148301664Y-120549777D01*
X148338987Y-120546101D01*
X149705343Y-120546101D01*
X149742665Y-120549777D01*
X149779987Y-120546101D01*
X149779998Y-120546101D01*
X149891651Y-120535104D01*
X150034912Y-120491647D01*
X150166941Y-120421075D01*
X150282666Y-120326102D01*
X150306469Y-120297099D01*
X150536301Y-120067267D01*
X150681255Y-120096100D01*
X150954077Y-120096100D01*
X151221655Y-120042875D01*
X151473709Y-119938471D01*
X151700552Y-119786899D01*
X151893465Y-119593986D01*
X152045037Y-119367143D01*
X152067666Y-119312512D01*
X152090295Y-119367143D01*
X152241867Y-119593986D01*
X152434780Y-119786899D01*
X152661623Y-119938471D01*
X152913677Y-120042875D01*
X153181255Y-120096100D01*
X153454077Y-120096100D01*
X153721655Y-120042875D01*
X153973709Y-119938471D01*
X154200552Y-119786899D01*
X154260867Y-119726584D01*
X155372755Y-119726584D01*
X156887666Y-121241495D01*
X158402577Y-119726584D01*
X158212293Y-119381843D01*
X157789001Y-119162605D01*
X157331071Y-119030160D01*
X156856102Y-118989597D01*
X156382346Y-119042476D01*
X155928010Y-119186763D01*
X155563039Y-119381843D01*
X155372755Y-119726584D01*
X154260867Y-119726584D01*
X154393465Y-119593986D01*
X154545037Y-119367143D01*
X154649441Y-119115089D01*
X154702666Y-118847511D01*
X154702666Y-118574689D01*
X154649441Y-118307111D01*
X154545037Y-118055057D01*
X154393465Y-117828214D01*
X154200552Y-117635301D01*
X153973709Y-117483729D01*
X153721655Y-117379325D01*
X153454077Y-117326100D01*
X153181255Y-117326100D01*
X152913677Y-117379325D01*
X152661623Y-117483729D01*
X152434780Y-117635301D01*
X152241867Y-117828214D01*
X152090295Y-118055057D01*
X152067666Y-118109688D01*
X152045037Y-118055057D01*
X151893465Y-117828214D01*
X151700552Y-117635301D01*
X151473709Y-117483729D01*
X151221655Y-117379325D01*
X150954077Y-117326100D01*
X150681255Y-117326100D01*
X150413677Y-117379325D01*
X150161623Y-117483729D01*
X149934780Y-117635301D01*
X149817666Y-117752415D01*
X149700552Y-117635301D01*
X149577666Y-117553191D01*
X149577666Y-111389999D01*
X149581343Y-111352666D01*
X149566669Y-111203680D01*
X149523212Y-111060419D01*
X149452640Y-110928390D01*
X149357667Y-110812665D01*
X149241942Y-110717692D01*
X149109913Y-110647120D01*
X148983465Y-110608763D01*
X138374600Y-99999899D01*
X141081188Y-99999899D01*
X141125125Y-100043836D01*
X141294643Y-100157104D01*
X141483001Y-100235125D01*
X141682960Y-100274899D01*
X141886838Y-100274899D01*
X142086797Y-100235125D01*
X142275155Y-100157104D01*
X142444673Y-100043836D01*
X142588836Y-99899673D01*
X142702104Y-99730155D01*
X142780125Y-99541797D01*
X142819899Y-99341838D01*
X142819899Y-99137960D01*
X142780125Y-98938001D01*
X142702104Y-98749643D01*
X142588836Y-98580125D01*
X142444673Y-98435962D01*
X142293873Y-98335201D01*
X146065635Y-98335201D01*
X146065524Y-98335247D01*
X145855060Y-98475875D01*
X145676075Y-98654860D01*
X145535447Y-98865324D01*
X145438581Y-99099179D01*
X145389200Y-99347439D01*
X145389200Y-99600561D01*
X145438581Y-99848821D01*
X145535447Y-100082676D01*
X145676075Y-100293140D01*
X145855060Y-100472125D01*
X146065524Y-100612753D01*
X146299379Y-100709619D01*
X146547639Y-100759000D01*
X146800761Y-100759000D01*
X147049021Y-100709619D01*
X147282876Y-100612753D01*
X147347401Y-100569639D01*
X147347400Y-105366689D01*
X147303463Y-105410626D01*
X147190195Y-105580144D01*
X147112174Y-105768502D01*
X147072400Y-105968461D01*
X147072400Y-106172339D01*
X147112174Y-106372298D01*
X147190195Y-106560656D01*
X147303463Y-106730174D01*
X147447626Y-106874337D01*
X147617144Y-106987605D01*
X147805502Y-107065626D01*
X148005461Y-107105400D01*
X148209339Y-107105400D01*
X148409298Y-107065626D01*
X148597656Y-106987605D01*
X148767174Y-106874337D01*
X148911337Y-106730174D01*
X149024605Y-106560656D01*
X149102626Y-106372298D01*
X149142400Y-106172339D01*
X149142400Y-105968461D01*
X149102626Y-105768502D01*
X149024605Y-105580144D01*
X148911337Y-105410626D01*
X148867400Y-105366689D01*
X148867400Y-100721861D01*
X148997724Y-100753102D01*
X149250655Y-100762952D01*
X149500649Y-100723270D01*
X149738096Y-100635578D01*
X149826734Y-100588201D01*
X149880122Y-100359527D01*
X149174200Y-99653605D01*
X149160058Y-99667748D01*
X148980453Y-99488143D01*
X148994595Y-99474000D01*
X148980453Y-99459858D01*
X149160058Y-99280253D01*
X149174200Y-99294395D01*
X149880122Y-98588473D01*
X149826734Y-98359799D01*
X149596826Y-98253905D01*
X149350676Y-98194898D01*
X149097745Y-98185048D01*
X148847751Y-98224730D01*
X148610304Y-98312422D01*
X148553751Y-98342649D01*
X147821301Y-97610200D01*
X152503601Y-97610200D01*
X152503601Y-98486136D01*
X152493340Y-98475875D01*
X152282876Y-98335247D01*
X152049021Y-98238381D01*
X151800761Y-98189000D01*
X151547639Y-98189000D01*
X151299379Y-98238381D01*
X151065524Y-98335247D01*
X150855060Y-98475875D01*
X150676075Y-98654860D01*
X150535447Y-98865324D01*
X150438581Y-99099179D01*
X150425906Y-99162900D01*
X150423470Y-99147551D01*
X150335778Y-98910104D01*
X150288401Y-98821466D01*
X150059727Y-98768078D01*
X149353805Y-99474000D01*
X150059727Y-100179922D01*
X150288401Y-100126534D01*
X150394295Y-99896626D01*
X150423695Y-99773983D01*
X150438581Y-99848821D01*
X150535447Y-100082676D01*
X150676075Y-100293140D01*
X150855060Y-100472125D01*
X151065524Y-100612753D01*
X151299379Y-100709619D01*
X151547639Y-100759000D01*
X151800761Y-100759000D01*
X152049021Y-100709619D01*
X152282876Y-100612753D01*
X152493340Y-100472125D01*
X152503601Y-100461864D01*
X152503600Y-106718878D01*
X152499924Y-106756200D01*
X152503600Y-106793522D01*
X152503600Y-106793532D01*
X152514597Y-106905185D01*
X152557975Y-107048187D01*
X152558054Y-107048446D01*
X152628626Y-107180476D01*
X152668471Y-107229026D01*
X152723599Y-107296201D01*
X152752603Y-107320004D01*
X160561100Y-115128502D01*
X160584899Y-115157501D01*
X160613897Y-115181299D01*
X160700623Y-115252474D01*
X160832653Y-115323046D01*
X160975914Y-115366503D01*
X161087567Y-115377500D01*
X161087576Y-115377500D01*
X161124899Y-115381176D01*
X161162222Y-115377500D01*
X174081599Y-115377500D01*
X175741301Y-117037203D01*
X175741301Y-117464291D01*
X175618414Y-117546401D01*
X175501300Y-117663515D01*
X175384186Y-117546401D01*
X175157343Y-117394829D01*
X174905289Y-117290425D01*
X174637711Y-117237200D01*
X174364889Y-117237200D01*
X174097311Y-117290425D01*
X173845257Y-117394829D01*
X173618414Y-117546401D01*
X173425501Y-117739314D01*
X173273929Y-117966157D01*
X173251300Y-118020788D01*
X173228671Y-117966157D01*
X173077099Y-117739314D01*
X172884186Y-117546401D01*
X172657343Y-117394829D01*
X172405289Y-117290425D01*
X172137711Y-117237200D01*
X171864889Y-117237200D01*
X171597311Y-117290425D01*
X171345257Y-117394829D01*
X171118414Y-117546401D01*
X170925501Y-117739314D01*
X170773929Y-117966157D01*
X170669525Y-118218211D01*
X170616300Y-118485789D01*
X170616300Y-118758611D01*
X170669525Y-119026189D01*
X170773929Y-119278243D01*
X170925501Y-119505086D01*
X171118414Y-119697999D01*
X171345257Y-119849571D01*
X171597311Y-119953975D01*
X171864889Y-120007200D01*
X172137711Y-120007200D01*
X172405289Y-119953975D01*
X172657343Y-119849571D01*
X172884186Y-119697999D01*
X173077099Y-119505086D01*
X173228671Y-119278243D01*
X173251300Y-119223612D01*
X173273929Y-119278243D01*
X173425501Y-119505086D01*
X173618414Y-119697999D01*
X173845257Y-119849571D01*
X174097311Y-119953975D01*
X174364889Y-120007200D01*
X174637711Y-120007200D01*
X174782665Y-119978367D01*
X175012502Y-120208204D01*
X175036300Y-120237202D01*
X175065298Y-120261000D01*
X175152024Y-120332175D01*
X175284054Y-120402747D01*
X175427315Y-120446204D01*
X175538968Y-120457201D01*
X175538978Y-120457201D01*
X175576301Y-120460877D01*
X175613623Y-120457201D01*
X176979979Y-120457201D01*
X177017301Y-120460877D01*
X177054623Y-120457201D01*
X177054634Y-120457201D01*
X177166287Y-120446204D01*
X177309548Y-120402747D01*
X177441577Y-120332175D01*
X177557302Y-120237202D01*
X177581104Y-120208199D01*
X178087310Y-119701995D01*
X178106589Y-119686174D01*
X178118414Y-119697999D01*
X178345257Y-119849571D01*
X178597311Y-119953975D01*
X178864889Y-120007200D01*
X179137711Y-120007200D01*
X179405289Y-119953975D01*
X179657343Y-119849571D01*
X179884186Y-119697999D01*
X179944501Y-119637684D01*
X181056389Y-119637684D01*
X182571300Y-121152595D01*
X184086211Y-119637684D01*
X183895927Y-119292943D01*
X183472635Y-119073705D01*
X183014705Y-118941260D01*
X182539736Y-118900697D01*
X182065980Y-118953576D01*
X181611644Y-119097863D01*
X181246673Y-119292943D01*
X181056389Y-119637684D01*
X179944501Y-119637684D01*
X180077099Y-119505086D01*
X180228671Y-119278243D01*
X180333075Y-119026189D01*
X180386300Y-118758611D01*
X180386300Y-118485789D01*
X180333075Y-118218211D01*
X180228671Y-117966157D01*
X180077099Y-117739314D01*
X179884186Y-117546401D01*
X179657343Y-117394829D01*
X179405289Y-117290425D01*
X179137711Y-117237200D01*
X178864889Y-117237200D01*
X178597311Y-117290425D01*
X178345257Y-117394829D01*
X178336301Y-117400813D01*
X178336301Y-117198314D01*
X178339977Y-117160991D01*
X178336301Y-117123668D01*
X178336301Y-117123658D01*
X178325304Y-117012005D01*
X178281847Y-116868744D01*
X178211275Y-116736714D01*
X178140100Y-116649988D01*
X178116302Y-116620990D01*
X178087304Y-116597192D01*
X175139414Y-113649303D01*
X175115611Y-113620299D01*
X174999886Y-113525326D01*
X174867857Y-113454754D01*
X174724596Y-113411297D01*
X174612943Y-113400300D01*
X174612932Y-113400300D01*
X174575610Y-113396624D01*
X174538288Y-113400300D01*
X161769902Y-113400300D01*
X157080653Y-108711051D01*
X181751800Y-108711051D01*
X181751800Y-109187749D01*
X181844800Y-109655288D01*
X182027224Y-110095700D01*
X182292064Y-110492060D01*
X182629140Y-110829136D01*
X183025500Y-111093976D01*
X183465912Y-111276400D01*
X183933451Y-111369400D01*
X184410149Y-111369400D01*
X184877688Y-111276400D01*
X185318100Y-111093976D01*
X185714460Y-110829136D01*
X186051536Y-110492060D01*
X186316376Y-110095700D01*
X186498800Y-109655288D01*
X186591800Y-109187749D01*
X186591800Y-108711051D01*
X186498800Y-108243512D01*
X186316376Y-107803100D01*
X186051536Y-107406740D01*
X185714460Y-107069664D01*
X185318100Y-106804824D01*
X184877688Y-106622400D01*
X184410149Y-106529400D01*
X183933451Y-106529400D01*
X183465912Y-106622400D01*
X183025500Y-106804824D01*
X182629140Y-107069664D01*
X182292064Y-107406740D01*
X182027224Y-107803100D01*
X181844800Y-108243512D01*
X181751800Y-108711051D01*
X157080653Y-108711051D01*
X154473610Y-106104009D01*
X154473610Y-103777694D01*
X154487844Y-103787205D01*
X154676202Y-103865226D01*
X154876161Y-103905000D01*
X155080039Y-103905000D01*
X155279998Y-103865226D01*
X155468356Y-103787205D01*
X155637874Y-103673937D01*
X155672411Y-103639400D01*
X180303891Y-103639400D01*
X180386001Y-103762286D01*
X180578914Y-103955199D01*
X180805757Y-104106771D01*
X180860388Y-104129400D01*
X180805757Y-104152029D01*
X180578914Y-104303601D01*
X180386001Y-104496514D01*
X180234429Y-104723357D01*
X180130025Y-104975411D01*
X180076800Y-105242989D01*
X180076800Y-105515811D01*
X180130025Y-105783389D01*
X180234429Y-106035443D01*
X180386001Y-106262286D01*
X180578914Y-106455199D01*
X180805757Y-106606771D01*
X181057811Y-106711175D01*
X181325389Y-106764400D01*
X181598211Y-106764400D01*
X181865789Y-106711175D01*
X182117843Y-106606771D01*
X182344686Y-106455199D01*
X182537599Y-106262286D01*
X182689171Y-106035443D01*
X182793575Y-105783389D01*
X182846800Y-105515811D01*
X182846800Y-105242989D01*
X182793575Y-104975411D01*
X182689171Y-104723357D01*
X182537599Y-104496514D01*
X182344686Y-104303601D01*
X182117843Y-104152029D01*
X182063212Y-104129400D01*
X182117843Y-104106771D01*
X182344686Y-103955199D01*
X182537599Y-103762286D01*
X182689171Y-103535443D01*
X182793575Y-103283389D01*
X182846800Y-103015811D01*
X182846800Y-102742989D01*
X182793575Y-102475411D01*
X182689171Y-102223357D01*
X182537599Y-101996514D01*
X182420485Y-101879400D01*
X182537599Y-101762286D01*
X182689171Y-101535443D01*
X182793575Y-101283389D01*
X182846800Y-101015811D01*
X182846800Y-100742989D01*
X182793575Y-100475411D01*
X182689171Y-100223357D01*
X182537599Y-99996514D01*
X182344686Y-99803601D01*
X182117843Y-99652029D01*
X182068374Y-99631539D01*
X182173663Y-99575260D01*
X182239188Y-99336393D01*
X181461800Y-98559005D01*
X180684412Y-99336393D01*
X180749937Y-99575260D01*
X180863001Y-99628318D01*
X180805757Y-99652029D01*
X180578914Y-99803601D01*
X180386001Y-99996514D01*
X180303891Y-100119400D01*
X155505800Y-100119400D01*
X155455656Y-100085895D01*
X155267298Y-100007874D01*
X155067339Y-99968100D01*
X154863461Y-99968100D01*
X154663502Y-100007874D01*
X154475144Y-100085895D01*
X154473610Y-100086920D01*
X154473610Y-98451892D01*
X180071988Y-98451892D01*
X180112835Y-98721638D01*
X180205523Y-98978232D01*
X180265940Y-99091263D01*
X180504807Y-99156788D01*
X181282195Y-98379400D01*
X181641405Y-98379400D01*
X182418793Y-99156788D01*
X182657660Y-99091263D01*
X182773560Y-98844284D01*
X182839050Y-98579440D01*
X182851612Y-98306908D01*
X182810765Y-98037162D01*
X182718077Y-97780568D01*
X182657660Y-97667537D01*
X182418793Y-97602012D01*
X181641405Y-98379400D01*
X181282195Y-98379400D01*
X180504807Y-97602012D01*
X180265940Y-97667537D01*
X180150040Y-97914516D01*
X180084550Y-98179360D01*
X180071988Y-98451892D01*
X154473610Y-98451892D01*
X154473610Y-97422407D01*
X180684412Y-97422407D01*
X181461800Y-98199795D01*
X182239188Y-97422407D01*
X182173663Y-97183540D01*
X181926684Y-97067640D01*
X181661840Y-97002150D01*
X181389308Y-96989588D01*
X181119562Y-97030435D01*
X180862968Y-97123123D01*
X180749937Y-97183540D01*
X180684412Y-97422407D01*
X154473610Y-97422407D01*
X154473610Y-96503916D01*
X182656889Y-96503916D01*
X182847173Y-96848657D01*
X183270465Y-97067895D01*
X183728395Y-97200340D01*
X184203364Y-97240903D01*
X184677120Y-97188024D01*
X185131456Y-97043737D01*
X185496427Y-96848657D01*
X185686711Y-96503916D01*
X184171800Y-94989005D01*
X182656889Y-96503916D01*
X154473610Y-96503916D01*
X154473610Y-96118332D01*
X154477286Y-96081009D01*
X154473610Y-96043686D01*
X154473610Y-96043677D01*
X154462613Y-95932024D01*
X154419156Y-95788763D01*
X154348584Y-95656734D01*
X154253611Y-95541009D01*
X154224607Y-95517206D01*
X153903604Y-95196203D01*
X153879801Y-95167199D01*
X153764076Y-95072226D01*
X153632047Y-95001654D01*
X153488786Y-94958197D01*
X153377133Y-94947200D01*
X153377122Y-94947200D01*
X153339800Y-94943524D01*
X153302478Y-94947200D01*
X152618265Y-94947200D01*
X152672325Y-94893140D01*
X152707188Y-94840964D01*
X181740297Y-94840964D01*
X181793176Y-95314720D01*
X181937463Y-95769056D01*
X182132543Y-96134027D01*
X182477284Y-96324311D01*
X183992195Y-94809400D01*
X184351405Y-94809400D01*
X185866316Y-96324311D01*
X186211057Y-96134027D01*
X186430295Y-95710735D01*
X186562740Y-95252805D01*
X186603303Y-94777836D01*
X186550424Y-94304080D01*
X186406137Y-93849744D01*
X186211057Y-93484773D01*
X185866316Y-93294489D01*
X184351405Y-94809400D01*
X183992195Y-94809400D01*
X182477284Y-93294489D01*
X182132543Y-93484773D01*
X181913305Y-93908065D01*
X181780860Y-94365995D01*
X181740297Y-94840964D01*
X152707188Y-94840964D01*
X152812953Y-94682676D01*
X152909819Y-94448821D01*
X152959200Y-94200561D01*
X152959200Y-93947439D01*
X152909819Y-93699179D01*
X152812953Y-93465324D01*
X152672325Y-93254860D01*
X152532349Y-93114884D01*
X182656889Y-93114884D01*
X184171800Y-94629795D01*
X185686711Y-93114884D01*
X185496427Y-92770143D01*
X185073135Y-92550905D01*
X184615205Y-92418460D01*
X184140236Y-92377897D01*
X183666480Y-92430776D01*
X183212144Y-92575063D01*
X182847173Y-92770143D01*
X182656889Y-93114884D01*
X152532349Y-93114884D01*
X152493340Y-93075875D01*
X152282876Y-92935247D01*
X152049021Y-92838381D01*
X151800761Y-92789000D01*
X151547639Y-92789000D01*
X151299379Y-92838381D01*
X151065524Y-92935247D01*
X150855060Y-93075875D01*
X150676075Y-93254860D01*
X150535447Y-93465324D01*
X150438581Y-93699179D01*
X150424200Y-93771479D01*
X150409819Y-93699179D01*
X150312953Y-93465324D01*
X150172325Y-93254860D01*
X149993340Y-93075875D01*
X149782876Y-92935247D01*
X149549021Y-92838381D01*
X149300761Y-92789000D01*
X149047639Y-92789000D01*
X148799379Y-92838381D01*
X148565524Y-92935247D01*
X148355060Y-93075875D01*
X148176075Y-93254860D01*
X148035447Y-93465324D01*
X147938581Y-93699179D01*
X147924200Y-93771479D01*
X147909819Y-93699179D01*
X147812953Y-93465324D01*
X147672325Y-93254860D01*
X147493340Y-93075875D01*
X147282876Y-92935247D01*
X147049021Y-92838381D01*
X146800761Y-92789000D01*
X146547639Y-92789000D01*
X146299379Y-92838381D01*
X146065524Y-92935247D01*
X145855060Y-93075875D01*
X145676075Y-93254860D01*
X145535447Y-93465324D01*
X145438581Y-93699179D01*
X145389200Y-93947439D01*
X145389200Y-94200561D01*
X145438581Y-94448821D01*
X145535447Y-94682676D01*
X145676075Y-94893140D01*
X145730135Y-94947200D01*
X137787511Y-94947200D01*
X137743574Y-94903263D01*
X137574056Y-94789995D01*
X137385698Y-94711974D01*
X137185739Y-94672200D01*
X137055299Y-94672200D01*
X137055299Y-92467102D01*
X138507902Y-91014500D01*
X138570039Y-91014500D01*
X138769998Y-90974726D01*
X138787600Y-90967435D01*
X138787601Y-91879288D01*
X138743663Y-91923226D01*
X138630395Y-92092744D01*
X138552374Y-92281102D01*
X138512600Y-92481061D01*
X138512600Y-92684939D01*
X138552374Y-92884898D01*
X138630395Y-93073256D01*
X138743663Y-93242774D01*
X138887826Y-93386937D01*
X139057344Y-93500205D01*
X139245702Y-93578226D01*
X139445661Y-93618000D01*
X139649539Y-93618000D01*
X139849498Y-93578226D01*
X140037856Y-93500205D01*
X140207374Y-93386937D01*
X140351537Y-93242774D01*
X140464805Y-93073256D01*
X140542826Y-92884898D01*
X140582600Y-92684939D01*
X140582600Y-92481061D01*
X140542826Y-92281102D01*
X140464805Y-92092744D01*
X140351537Y-91923226D01*
X140307600Y-91879289D01*
X140307600Y-90023321D01*
X140311276Y-89985998D01*
X140307600Y-89948675D01*
X140307600Y-89948665D01*
X140296603Y-89837012D01*
X140253146Y-89693751D01*
X140182574Y-89561722D01*
X140087601Y-89445997D01*
X140058604Y-89422200D01*
X139382003Y-88745600D01*
X155132501Y-88745600D01*
X155132500Y-88894789D01*
X155088563Y-88938726D01*
X154975295Y-89108244D01*
X154897274Y-89296602D01*
X154857500Y-89496561D01*
X154857500Y-89700439D01*
X154897274Y-89900398D01*
X154975295Y-90088756D01*
X155088563Y-90258274D01*
X155232726Y-90402437D01*
X155402244Y-90515705D01*
X155590602Y-90593726D01*
X155790561Y-90633500D01*
X155994439Y-90633500D01*
X156194398Y-90593726D01*
X156382756Y-90515705D01*
X156552274Y-90402437D01*
X156696437Y-90258274D01*
X156809705Y-90088756D01*
X156887726Y-89900398D01*
X156927500Y-89700439D01*
X156927500Y-89496561D01*
X156887726Y-89296602D01*
X156809705Y-89108244D01*
X156696437Y-88938726D01*
X156652500Y-88894789D01*
X156652500Y-88022933D01*
X156656177Y-87985600D01*
X156641503Y-87836614D01*
X156598046Y-87693353D01*
X156527474Y-87561324D01*
X156432501Y-87445599D01*
X156316776Y-87350626D01*
X156184747Y-87280054D01*
X156041486Y-87236597D01*
X155929833Y-87225600D01*
X155892500Y-87221923D01*
X155855167Y-87225600D01*
X138046302Y-87225600D01*
X137981102Y-87160400D01*
X138175173Y-87160400D01*
X138447582Y-87106214D01*
X138704185Y-86999925D01*
X138935122Y-86845618D01*
X139131518Y-86649222D01*
X139285825Y-86418285D01*
X139306300Y-86368854D01*
X139326775Y-86418285D01*
X139481082Y-86649222D01*
X139677478Y-86845618D01*
X139908415Y-86999925D01*
X140165018Y-87106214D01*
X140437427Y-87160400D01*
X140715173Y-87160400D01*
X140987582Y-87106214D01*
X141244185Y-86999925D01*
X141475122Y-86845618D01*
X141671518Y-86649222D01*
X141825825Y-86418285D01*
X141846300Y-86368854D01*
X141866775Y-86418285D01*
X142021082Y-86649222D01*
X142217478Y-86845618D01*
X142448415Y-86999925D01*
X142705018Y-87106214D01*
X142977427Y-87160400D01*
X143255173Y-87160400D01*
X143527582Y-87106214D01*
X143784185Y-86999925D01*
X144015122Y-86845618D01*
X144211518Y-86649222D01*
X144365825Y-86418285D01*
X144386300Y-86368854D01*
X144406775Y-86418285D01*
X144561082Y-86649222D01*
X144757478Y-86845618D01*
X144988415Y-86999925D01*
X145245018Y-87106214D01*
X145517427Y-87160400D01*
X145795173Y-87160400D01*
X146067582Y-87106214D01*
X146324185Y-86999925D01*
X146555122Y-86845618D01*
X146751518Y-86649222D01*
X146905825Y-86418285D01*
X146926300Y-86368854D01*
X146946775Y-86418285D01*
X147101082Y-86649222D01*
X147297478Y-86845618D01*
X147528415Y-86999925D01*
X147785018Y-87106214D01*
X148057427Y-87160400D01*
X148335173Y-87160400D01*
X148607582Y-87106214D01*
X148864185Y-86999925D01*
X149095122Y-86845618D01*
X149291518Y-86649222D01*
X149445825Y-86418285D01*
X149552114Y-86161682D01*
X149606300Y-85889273D01*
X149606300Y-85611527D01*
X149552114Y-85339118D01*
X149445825Y-85082515D01*
X149291518Y-84851578D01*
X149095122Y-84655182D01*
X148864185Y-84500875D01*
X148819098Y-84482199D01*
X148922990Y-84426668D01*
X148991544Y-84185249D01*
X148196300Y-83390005D01*
X147401056Y-84185249D01*
X147469610Y-84426668D01*
X147580924Y-84479125D01*
X147528415Y-84500875D01*
X147297478Y-84655182D01*
X147101082Y-84851578D01*
X146946775Y-85082515D01*
X146926300Y-85131946D01*
X146905825Y-85082515D01*
X146751518Y-84851578D01*
X146555122Y-84655182D01*
X146324185Y-84500875D01*
X146279098Y-84482199D01*
X146382990Y-84426668D01*
X146451544Y-84185249D01*
X145656300Y-83390005D01*
X144861056Y-84185249D01*
X144929610Y-84426668D01*
X145040924Y-84479125D01*
X144988415Y-84500875D01*
X144757478Y-84655182D01*
X144561082Y-84851578D01*
X144406775Y-85082515D01*
X144386300Y-85131946D01*
X144365825Y-85082515D01*
X144211518Y-84851578D01*
X144015122Y-84655182D01*
X143784185Y-84500875D01*
X143739098Y-84482199D01*
X143842990Y-84426668D01*
X143911544Y-84185249D01*
X143116300Y-83390005D01*
X142321056Y-84185249D01*
X142389610Y-84426668D01*
X142500924Y-84479125D01*
X142448415Y-84500875D01*
X142217478Y-84655182D01*
X142021082Y-84851578D01*
X141866775Y-85082515D01*
X141846300Y-85131946D01*
X141825825Y-85082515D01*
X141671518Y-84851578D01*
X141475122Y-84655182D01*
X141244185Y-84500875D01*
X141199098Y-84482199D01*
X141302990Y-84426668D01*
X141371544Y-84185249D01*
X140576300Y-83390005D01*
X140562158Y-83404148D01*
X140382553Y-83224543D01*
X140396695Y-83210400D01*
X140382553Y-83196258D01*
X140562158Y-83016653D01*
X140576300Y-83030795D01*
X140590443Y-83016653D01*
X140770048Y-83196258D01*
X140755905Y-83210400D01*
X141551149Y-84005644D01*
X141792568Y-83937090D01*
X141842920Y-83830241D01*
X141900032Y-83937090D01*
X142141451Y-84005644D01*
X142936695Y-83210400D01*
X142922553Y-83196258D01*
X143102158Y-83016653D01*
X143116300Y-83030795D01*
X143130443Y-83016653D01*
X143310048Y-83196258D01*
X143295905Y-83210400D01*
X144091149Y-84005644D01*
X144332568Y-83937090D01*
X144382920Y-83830241D01*
X144440032Y-83937090D01*
X144681451Y-84005644D01*
X145476695Y-83210400D01*
X145462553Y-83196258D01*
X145642158Y-83016653D01*
X145656300Y-83030795D01*
X145670443Y-83016653D01*
X145850048Y-83196258D01*
X145835905Y-83210400D01*
X146631149Y-84005644D01*
X146872568Y-83937090D01*
X146922920Y-83830241D01*
X146980032Y-83937090D01*
X147221451Y-84005644D01*
X148016695Y-83210400D01*
X148002553Y-83196258D01*
X148182158Y-83016653D01*
X148196300Y-83030795D01*
X148210443Y-83016653D01*
X148390048Y-83196258D01*
X148375905Y-83210400D01*
X149171149Y-84005644D01*
X149412568Y-83937090D01*
X149530968Y-83685844D01*
X149598078Y-83416329D01*
X149611318Y-83138898D01*
X149570179Y-82864216D01*
X149479356Y-82611500D01*
X156631799Y-82611500D01*
X161139601Y-87119303D01*
X161139600Y-89174189D01*
X161095663Y-89218126D01*
X160982395Y-89387644D01*
X160904374Y-89576002D01*
X160864600Y-89775961D01*
X160864600Y-89979839D01*
X160904374Y-90179798D01*
X160982395Y-90368156D01*
X161095663Y-90537674D01*
X161239826Y-90681837D01*
X161409344Y-90795105D01*
X161597702Y-90873126D01*
X161797661Y-90912900D01*
X162001539Y-90912900D01*
X162201498Y-90873126D01*
X162389856Y-90795105D01*
X162559374Y-90681837D01*
X162703537Y-90537674D01*
X162816805Y-90368156D01*
X162894826Y-90179798D01*
X162934600Y-89979839D01*
X162934600Y-89775961D01*
X162894826Y-89576002D01*
X162816805Y-89387644D01*
X162703537Y-89218126D01*
X162659600Y-89174189D01*
X162659600Y-86841825D01*
X162663276Y-86804500D01*
X162659600Y-86767175D01*
X162659600Y-86767167D01*
X162648603Y-86655514D01*
X162605146Y-86512253D01*
X162534574Y-86380224D01*
X162439601Y-86264499D01*
X162410603Y-86240701D01*
X159664036Y-83494134D01*
X159766000Y-83504177D01*
X159803333Y-83500500D01*
X167591899Y-83500500D01*
X168721501Y-84630103D01*
X168721500Y-89059889D01*
X168677563Y-89103826D01*
X168564295Y-89273344D01*
X168486274Y-89461702D01*
X168446500Y-89661661D01*
X168446500Y-89865539D01*
X168486274Y-90065498D01*
X168564295Y-90253856D01*
X168677563Y-90423374D01*
X168821726Y-90567537D01*
X168991244Y-90680805D01*
X169179602Y-90758826D01*
X169379561Y-90798600D01*
X169583439Y-90798600D01*
X169783398Y-90758826D01*
X169971756Y-90680805D01*
X170141274Y-90567537D01*
X170285437Y-90423374D01*
X170398705Y-90253856D01*
X170476726Y-90065498D01*
X170516500Y-89865539D01*
X170516500Y-89661661D01*
X170476726Y-89461702D01*
X170398705Y-89273344D01*
X170285437Y-89103826D01*
X170241500Y-89059889D01*
X170241500Y-84816601D01*
X174480011Y-89055113D01*
X174393595Y-89184444D01*
X174315574Y-89372802D01*
X174275800Y-89572761D01*
X174275800Y-89776639D01*
X174315574Y-89976598D01*
X174393595Y-90164956D01*
X174506863Y-90334474D01*
X174651026Y-90478637D01*
X174820544Y-90591905D01*
X175008902Y-90669926D01*
X175208861Y-90709700D01*
X175412739Y-90709700D01*
X175612698Y-90669926D01*
X175801056Y-90591905D01*
X175970574Y-90478637D01*
X176114737Y-90334474D01*
X176228005Y-90164956D01*
X176306026Y-89976598D01*
X176345800Y-89776639D01*
X176345800Y-89572761D01*
X176306026Y-89372802D01*
X176228005Y-89184444D01*
X176114737Y-89014926D01*
X176070800Y-88970989D01*
X176070800Y-88848422D01*
X176074476Y-88811099D01*
X176070800Y-88773776D01*
X176070800Y-88773767D01*
X176059803Y-88662114D01*
X176016346Y-88518853D01*
X175945774Y-88386824D01*
X175850801Y-88271099D01*
X175821803Y-88247301D01*
X168339491Y-80764990D01*
X173049728Y-80764990D01*
X173049728Y-81716500D01*
X173061988Y-81840982D01*
X173098298Y-81960680D01*
X173157263Y-82070994D01*
X173236615Y-82167685D01*
X173333306Y-82247037D01*
X173443620Y-82306002D01*
X173563318Y-82342312D01*
X173687800Y-82354572D01*
X174687800Y-82354572D01*
X174812282Y-82342312D01*
X174931980Y-82306002D01*
X175006294Y-82266280D01*
X175106733Y-82307883D01*
X175326012Y-82351500D01*
X175549588Y-82351500D01*
X175768867Y-82307883D01*
X175975424Y-82222324D01*
X176062800Y-82163941D01*
X176150176Y-82222324D01*
X176356733Y-82307883D01*
X176576012Y-82351500D01*
X176799588Y-82351500D01*
X176844491Y-82342568D01*
X176844491Y-82602660D01*
X176840814Y-82639992D01*
X176855488Y-82788977D01*
X176898944Y-82932238D01*
X176969516Y-83064268D01*
X177030764Y-83138898D01*
X177064490Y-83179993D01*
X177093488Y-83203791D01*
X183940500Y-90050804D01*
X183940500Y-90112941D01*
X183980274Y-90312900D01*
X184058295Y-90501258D01*
X184171563Y-90670776D01*
X184315726Y-90814939D01*
X184485244Y-90928207D01*
X184673602Y-91006228D01*
X184873561Y-91046002D01*
X185077439Y-91046002D01*
X185277398Y-91006228D01*
X185465756Y-90928207D01*
X185635274Y-90814939D01*
X185779437Y-90670776D01*
X185892705Y-90501258D01*
X185970726Y-90312900D01*
X186010500Y-90112941D01*
X186010500Y-89909063D01*
X185970726Y-89709104D01*
X185892705Y-89520746D01*
X185779437Y-89351228D01*
X185635274Y-89207065D01*
X185465756Y-89093797D01*
X185277398Y-89015776D01*
X185077439Y-88976002D01*
X185015302Y-88976002D01*
X178364490Y-82325191D01*
X178364490Y-80042323D01*
X178368167Y-80004990D01*
X178353493Y-79856004D01*
X178310036Y-79712743D01*
X178239464Y-79580714D01*
X178174865Y-79502000D01*
X185390020Y-79502000D01*
X186595340Y-80104660D01*
X187198000Y-81309980D01*
X187198000Y-123160020D01*
X186595340Y-124365340D01*
X185390020Y-124968000D01*
X80039980Y-124968000D01*
X78834660Y-124365340D01*
X78232000Y-123160020D01*
X78232000Y-121182751D01*
X88960400Y-121182751D01*
X88960400Y-121659449D01*
X89053400Y-122126988D01*
X89235824Y-122567400D01*
X89500664Y-122963760D01*
X89837740Y-123300836D01*
X90234100Y-123565676D01*
X90674512Y-123748100D01*
X91142051Y-123841100D01*
X91618749Y-123841100D01*
X92086288Y-123748100D01*
X92526700Y-123565676D01*
X92923060Y-123300836D01*
X93108280Y-123115616D01*
X104005489Y-123115616D01*
X104195773Y-123460357D01*
X104619065Y-123679595D01*
X105076995Y-123812040D01*
X105551964Y-123852603D01*
X106025720Y-123799724D01*
X106480056Y-123655437D01*
X106845027Y-123460357D01*
X107035311Y-123115616D01*
X105520400Y-121600705D01*
X104005489Y-123115616D01*
X93108280Y-123115616D01*
X93260136Y-122963760D01*
X93524976Y-122567400D01*
X93707400Y-122126988D01*
X93800400Y-121659449D01*
X93800400Y-121452664D01*
X103088897Y-121452664D01*
X103141776Y-121926420D01*
X103286063Y-122380756D01*
X103481143Y-122745727D01*
X103825884Y-122936011D01*
X105340795Y-121421100D01*
X105700005Y-121421100D01*
X107214916Y-122936011D01*
X107559657Y-122745727D01*
X107778895Y-122322435D01*
X107911340Y-121864505D01*
X107951903Y-121389536D01*
X107941581Y-121297051D01*
X114644033Y-121297051D01*
X114644033Y-121773749D01*
X114737033Y-122241288D01*
X114919457Y-122681700D01*
X115184297Y-123078060D01*
X115521373Y-123415136D01*
X115917733Y-123679976D01*
X116358145Y-123862400D01*
X116825684Y-123955400D01*
X117302382Y-123955400D01*
X117769921Y-123862400D01*
X118210333Y-123679976D01*
X118606693Y-123415136D01*
X118791913Y-123229916D01*
X129689122Y-123229916D01*
X129879406Y-123574657D01*
X130302698Y-123793895D01*
X130760628Y-123926340D01*
X131235597Y-123966903D01*
X131709353Y-123914024D01*
X132163689Y-123769737D01*
X132528660Y-123574657D01*
X132718944Y-123229916D01*
X131204033Y-121715005D01*
X129689122Y-123229916D01*
X118791913Y-123229916D01*
X118943769Y-123078060D01*
X119208609Y-122681700D01*
X119391033Y-122241288D01*
X119484033Y-121773749D01*
X119484033Y-121566964D01*
X128772530Y-121566964D01*
X128825409Y-122040720D01*
X128969696Y-122495056D01*
X129164776Y-122860027D01*
X129509517Y-123050311D01*
X131024428Y-121535400D01*
X131383638Y-121535400D01*
X132898549Y-123050311D01*
X133243290Y-122860027D01*
X133462528Y-122436735D01*
X133594973Y-121978805D01*
X133635536Y-121503836D01*
X133599698Y-121182751D01*
X140327666Y-121182751D01*
X140327666Y-121659449D01*
X140420666Y-122126988D01*
X140603090Y-122567400D01*
X140867930Y-122963760D01*
X141205006Y-123300836D01*
X141601366Y-123565676D01*
X142041778Y-123748100D01*
X142509317Y-123841100D01*
X142986015Y-123841100D01*
X143453554Y-123748100D01*
X143893966Y-123565676D01*
X144290326Y-123300836D01*
X144475546Y-123115616D01*
X155372755Y-123115616D01*
X155563039Y-123460357D01*
X155986331Y-123679595D01*
X156444261Y-123812040D01*
X156919230Y-123852603D01*
X157392986Y-123799724D01*
X157847322Y-123655437D01*
X158212293Y-123460357D01*
X158402577Y-123115616D01*
X156887666Y-121600705D01*
X155372755Y-123115616D01*
X144475546Y-123115616D01*
X144627402Y-122963760D01*
X144892242Y-122567400D01*
X145074666Y-122126988D01*
X145167666Y-121659449D01*
X145167666Y-121452664D01*
X154456163Y-121452664D01*
X154509042Y-121926420D01*
X154653329Y-122380756D01*
X154848409Y-122745727D01*
X155193150Y-122936011D01*
X156708061Y-121421100D01*
X157067271Y-121421100D01*
X158582182Y-122936011D01*
X158926923Y-122745727D01*
X159146161Y-122322435D01*
X159278606Y-121864505D01*
X159319169Y-121389536D01*
X159286166Y-121093851D01*
X166011300Y-121093851D01*
X166011300Y-121570549D01*
X166104300Y-122038088D01*
X166286724Y-122478500D01*
X166551564Y-122874860D01*
X166888640Y-123211936D01*
X167285000Y-123476776D01*
X167725412Y-123659200D01*
X168192951Y-123752200D01*
X168669649Y-123752200D01*
X169137188Y-123659200D01*
X169577600Y-123476776D01*
X169973960Y-123211936D01*
X170159180Y-123026716D01*
X181056389Y-123026716D01*
X181246673Y-123371457D01*
X181669965Y-123590695D01*
X182127895Y-123723140D01*
X182602864Y-123763703D01*
X183076620Y-123710824D01*
X183530956Y-123566537D01*
X183895927Y-123371457D01*
X184086211Y-123026716D01*
X182571300Y-121511805D01*
X181056389Y-123026716D01*
X170159180Y-123026716D01*
X170311036Y-122874860D01*
X170575876Y-122478500D01*
X170758300Y-122038088D01*
X170851300Y-121570549D01*
X170851300Y-121363764D01*
X180139797Y-121363764D01*
X180192676Y-121837520D01*
X180336963Y-122291856D01*
X180532043Y-122656827D01*
X180876784Y-122847111D01*
X182391695Y-121332200D01*
X182750905Y-121332200D01*
X184265816Y-122847111D01*
X184610557Y-122656827D01*
X184829795Y-122233535D01*
X184962240Y-121775605D01*
X185002803Y-121300636D01*
X184949924Y-120826880D01*
X184805637Y-120372544D01*
X184610557Y-120007573D01*
X184265816Y-119817289D01*
X182750905Y-121332200D01*
X182391695Y-121332200D01*
X180876784Y-119817289D01*
X180532043Y-120007573D01*
X180312805Y-120430865D01*
X180180360Y-120888795D01*
X180139797Y-121363764D01*
X170851300Y-121363764D01*
X170851300Y-121093851D01*
X170758300Y-120626312D01*
X170575876Y-120185900D01*
X170311036Y-119789540D01*
X169973960Y-119452464D01*
X169577600Y-119187624D01*
X169137188Y-119005200D01*
X168669649Y-118912200D01*
X168192951Y-118912200D01*
X167725412Y-119005200D01*
X167285000Y-119187624D01*
X166888640Y-119452464D01*
X166551564Y-119789540D01*
X166286724Y-120185900D01*
X166104300Y-120626312D01*
X166011300Y-121093851D01*
X159286166Y-121093851D01*
X159266290Y-120915780D01*
X159122003Y-120461444D01*
X158926923Y-120096473D01*
X158582182Y-119906189D01*
X157067271Y-121421100D01*
X156708061Y-121421100D01*
X155193150Y-119906189D01*
X154848409Y-120096473D01*
X154629171Y-120519765D01*
X154496726Y-120977695D01*
X154456163Y-121452664D01*
X145167666Y-121452664D01*
X145167666Y-121182751D01*
X145074666Y-120715212D01*
X144892242Y-120274800D01*
X144627402Y-119878440D01*
X144290326Y-119541364D01*
X143893966Y-119276524D01*
X143453554Y-119094100D01*
X142986015Y-119001100D01*
X142509317Y-119001100D01*
X142041778Y-119094100D01*
X141601366Y-119276524D01*
X141205006Y-119541364D01*
X140867930Y-119878440D01*
X140603090Y-120274800D01*
X140420666Y-120715212D01*
X140327666Y-121182751D01*
X133599698Y-121182751D01*
X133582657Y-121030080D01*
X133438370Y-120575744D01*
X133243290Y-120210773D01*
X132898549Y-120020489D01*
X131383638Y-121535400D01*
X131024428Y-121535400D01*
X129509517Y-120020489D01*
X129164776Y-120210773D01*
X128945538Y-120634065D01*
X128813093Y-121091995D01*
X128772530Y-121566964D01*
X119484033Y-121566964D01*
X119484033Y-121297051D01*
X119391033Y-120829512D01*
X119208609Y-120389100D01*
X118943769Y-119992740D01*
X118606693Y-119655664D01*
X118210333Y-119390824D01*
X117769921Y-119208400D01*
X117302382Y-119115400D01*
X116825684Y-119115400D01*
X116358145Y-119208400D01*
X115917733Y-119390824D01*
X115521373Y-119655664D01*
X115184297Y-119992740D01*
X114919457Y-120389100D01*
X114737033Y-120829512D01*
X114644033Y-121297051D01*
X107941581Y-121297051D01*
X107899024Y-120915780D01*
X107754737Y-120461444D01*
X107559657Y-120096473D01*
X107214916Y-119906189D01*
X105700005Y-121421100D01*
X105340795Y-121421100D01*
X103825884Y-119906189D01*
X103481143Y-120096473D01*
X103261905Y-120519765D01*
X103129460Y-120977695D01*
X103088897Y-121452664D01*
X93800400Y-121452664D01*
X93800400Y-121182751D01*
X93707400Y-120715212D01*
X93524976Y-120274800D01*
X93260136Y-119878440D01*
X92923060Y-119541364D01*
X92526700Y-119276524D01*
X92086288Y-119094100D01*
X91618749Y-119001100D01*
X91142051Y-119001100D01*
X90674512Y-119094100D01*
X90234100Y-119276524D01*
X89837740Y-119541364D01*
X89500664Y-119878440D01*
X89235824Y-120274800D01*
X89053400Y-120715212D01*
X88960400Y-121182751D01*
X78232000Y-121182751D01*
X78232000Y-108852618D01*
X79093855Y-108852618D01*
X79140809Y-109225915D01*
X79259687Y-109582878D01*
X79388455Y-109823784D01*
X79680985Y-109952710D01*
X80832795Y-108800900D01*
X79680985Y-107649090D01*
X79388455Y-107778016D01*
X79220104Y-108114486D01*
X79120629Y-108477335D01*
X79093855Y-108852618D01*
X78232000Y-108852618D01*
X78232000Y-107469485D01*
X79860590Y-107469485D01*
X81012400Y-108621295D01*
X82164210Y-107469485D01*
X82035284Y-107176955D01*
X81698814Y-107008604D01*
X81335965Y-106909129D01*
X80960682Y-106882355D01*
X80587385Y-106929309D01*
X80230422Y-107048187D01*
X79989516Y-107176955D01*
X79860590Y-107469485D01*
X78232000Y-107469485D01*
X78232000Y-99849893D01*
X80956213Y-99849893D01*
X81216775Y-100254546D01*
X81739594Y-100532118D01*
X82306518Y-100702359D01*
X82895761Y-100758728D01*
X83484679Y-100699058D01*
X84050641Y-100525643D01*
X84557825Y-100254546D01*
X84818387Y-99849893D01*
X82887300Y-97918805D01*
X80956213Y-99849893D01*
X78232000Y-99849893D01*
X78232000Y-97747661D01*
X79867772Y-97747661D01*
X79927442Y-98336579D01*
X80100857Y-98902541D01*
X80371954Y-99409725D01*
X80776607Y-99670287D01*
X82707695Y-97739200D01*
X83066905Y-97739200D01*
X84997993Y-99670287D01*
X85402646Y-99409725D01*
X85680218Y-98886906D01*
X85697125Y-98830604D01*
X85905276Y-99333125D01*
X86273534Y-99884263D01*
X86742237Y-100352966D01*
X87293375Y-100721224D01*
X87905766Y-100974885D01*
X88555876Y-101104200D01*
X89218724Y-101104200D01*
X89868834Y-100974885D01*
X90481225Y-100721224D01*
X91032363Y-100352966D01*
X91501066Y-99884263D01*
X91869324Y-99333125D01*
X92122985Y-98720734D01*
X92252300Y-98070624D01*
X92252300Y-97407776D01*
X92122985Y-96757666D01*
X91869324Y-96145275D01*
X91743835Y-95957467D01*
X98313704Y-89387598D01*
X98342701Y-89363801D01*
X98437674Y-89248076D01*
X98508246Y-89116047D01*
X98551703Y-88972786D01*
X98562700Y-88861133D01*
X98562700Y-88861132D01*
X98566377Y-88823800D01*
X98562700Y-88786467D01*
X98562700Y-83974950D01*
X98570000Y-83900833D01*
X98570000Y-83761125D01*
X98573676Y-83723800D01*
X98570000Y-83686475D01*
X98570000Y-82399146D01*
X98628494Y-82367880D01*
X98728933Y-82409483D01*
X98948212Y-82453100D01*
X99171788Y-82453100D01*
X99391067Y-82409483D01*
X99597624Y-82323924D01*
X99685000Y-82265541D01*
X99772376Y-82323924D01*
X99978933Y-82409483D01*
X100198212Y-82453100D01*
X100421788Y-82453100D01*
X100641067Y-82409483D01*
X100847624Y-82323924D01*
X101033520Y-82199712D01*
X101191612Y-82041620D01*
X101315824Y-81855724D01*
X101401383Y-81649167D01*
X101445000Y-81429888D01*
X101445000Y-81206312D01*
X101401383Y-80987033D01*
X101315824Y-80780476D01*
X101256105Y-80691100D01*
X109567828Y-80691100D01*
X109567828Y-81691100D01*
X109580088Y-81815582D01*
X109616398Y-81935280D01*
X109675363Y-82045594D01*
X109754715Y-82142285D01*
X109851406Y-82221637D01*
X109961720Y-82280602D01*
X110081418Y-82316912D01*
X110205900Y-82329172D01*
X111205900Y-82329172D01*
X111330382Y-82316912D01*
X111450080Y-82280602D01*
X111524394Y-82240880D01*
X111624833Y-82282483D01*
X111844112Y-82326100D01*
X112067688Y-82326100D01*
X112286967Y-82282483D01*
X112493524Y-82196924D01*
X112580900Y-82138541D01*
X112668276Y-82196924D01*
X112874833Y-82282483D01*
X113094112Y-82326100D01*
X113317688Y-82326100D01*
X113536967Y-82282483D01*
X113743524Y-82196924D01*
X113929420Y-82072712D01*
X114087512Y-81914620D01*
X114211724Y-81728724D01*
X114297283Y-81522167D01*
X114340900Y-81302888D01*
X114340900Y-81079312D01*
X114297283Y-80860033D01*
X114211724Y-80653476D01*
X114087512Y-80467580D01*
X113929420Y-80309488D01*
X113743524Y-80185276D01*
X113536967Y-80099717D01*
X113317688Y-80056100D01*
X113094112Y-80056100D01*
X112874833Y-80099717D01*
X112668276Y-80185276D01*
X112580900Y-80243659D01*
X112493524Y-80185276D01*
X112286967Y-80099717D01*
X112067688Y-80056100D01*
X111844112Y-80056100D01*
X111624833Y-80099717D01*
X111524394Y-80141320D01*
X111450080Y-80101598D01*
X111330382Y-80065288D01*
X111205900Y-80053028D01*
X110205900Y-80053028D01*
X110081418Y-80065288D01*
X109961720Y-80101598D01*
X109851406Y-80160563D01*
X109754715Y-80239915D01*
X109675363Y-80336606D01*
X109616398Y-80446920D01*
X109580088Y-80566618D01*
X109567828Y-80691100D01*
X101256105Y-80691100D01*
X101191612Y-80594580D01*
X101033520Y-80436488D01*
X100847624Y-80312276D01*
X100641067Y-80226717D01*
X100421788Y-80183100D01*
X100198212Y-80183100D01*
X99978933Y-80226717D01*
X99772376Y-80312276D01*
X99685000Y-80370659D01*
X99597624Y-80312276D01*
X99391067Y-80226717D01*
X99171788Y-80183100D01*
X98948212Y-80183100D01*
X98728933Y-80226717D01*
X98628494Y-80268320D01*
X98554180Y-80228598D01*
X98434482Y-80192288D01*
X98310000Y-80180028D01*
X97310000Y-80180028D01*
X97185518Y-80192288D01*
X97065820Y-80228598D01*
X96955506Y-80287563D01*
X96858815Y-80366915D01*
X96779463Y-80463606D01*
X96720498Y-80573920D01*
X96684188Y-80693618D01*
X96671928Y-80818100D01*
X96671928Y-81818100D01*
X96684188Y-81942582D01*
X96720498Y-82062280D01*
X96779463Y-82172594D01*
X96858815Y-82269285D01*
X96955506Y-82348637D01*
X97050001Y-82399146D01*
X97050000Y-83619660D01*
X97039024Y-83731100D01*
X97042701Y-83768432D01*
X97042700Y-88508998D01*
X90669033Y-94882665D01*
X90481225Y-94757176D01*
X89868834Y-94503515D01*
X89218724Y-94374200D01*
X88555876Y-94374200D01*
X87905766Y-94503515D01*
X87293375Y-94757176D01*
X86742237Y-95125434D01*
X86273534Y-95594137D01*
X85905276Y-96145275D01*
X85696355Y-96649655D01*
X85673743Y-96575859D01*
X85402646Y-96068675D01*
X84997993Y-95808113D01*
X83066905Y-97739200D01*
X82707695Y-97739200D01*
X80776607Y-95808113D01*
X80371954Y-96068675D01*
X80094382Y-96591494D01*
X79924141Y-97158418D01*
X79867772Y-97747661D01*
X78232000Y-97747661D01*
X78232000Y-95628507D01*
X80956213Y-95628507D01*
X82887300Y-97559595D01*
X84818387Y-95628507D01*
X84557825Y-95223854D01*
X84035006Y-94946282D01*
X83468082Y-94776041D01*
X82878839Y-94719672D01*
X82289921Y-94779342D01*
X81723959Y-94952757D01*
X81216775Y-95223854D01*
X80956213Y-95628507D01*
X78232000Y-95628507D01*
X78232000Y-81309980D01*
X78834660Y-80104660D01*
X80039980Y-79502000D01*
X130509898Y-79502000D01*
X128178926Y-81832973D01*
%TD*%
M02*
