G04*
G04 #@! TF.GenerationSoftware,Altium Limited,Altium Designer,18.1.7 (191)*
G04*
G04 Layer_Color=2752767*
%FSLAX23Y23*%
%MOIN*%
G70*
G01*
G75*
%ADD47C,0.002*%
%ADD48C,0.003*%
D47*
X637Y1272D02*
Y1288D01*
X653D01*
Y1272D01*
X637D01*
Y1172D02*
Y1188D01*
X653D01*
Y1172D01*
X637D01*
Y1072D02*
Y1088D01*
X653D01*
Y1072D01*
X637D01*
X937Y1272D02*
Y1288D01*
X953D01*
Y1272D01*
X937D01*
Y1172D02*
Y1188D01*
X953D01*
Y1172D01*
X937D01*
Y1072D02*
Y1088D01*
X953D01*
Y1072D01*
X937D01*
X1237Y1272D02*
Y1288D01*
X1253D01*
Y1272D01*
X1237D01*
Y1172D02*
Y1188D01*
X1253D01*
Y1172D01*
X1237D01*
Y1072D02*
Y1088D01*
X1253D01*
Y1072D01*
X1237D01*
X1537Y1272D02*
Y1288D01*
X1553D01*
Y1272D01*
X1537D01*
Y1172D02*
Y1188D01*
X1553D01*
Y1172D01*
X1537D01*
Y1072D02*
Y1088D01*
X1553D01*
Y1072D01*
X1537D01*
X3597Y527D02*
Y543D01*
X3613D01*
Y527D01*
X3597D01*
X3698D02*
Y543D01*
X3714D01*
Y527D01*
X3698D01*
X3798D02*
Y543D01*
X3814D01*
Y527D01*
X3798D01*
X2822Y527D02*
Y543D01*
X2838D01*
Y527D01*
X2822D01*
X2922D02*
Y543D01*
X2938D01*
Y527D01*
X2922D01*
X3023D02*
Y543D01*
X3039D01*
Y527D01*
X3023D01*
X2046Y542D02*
Y558D01*
X2062D01*
Y542D01*
X2046D01*
X2147D02*
Y558D01*
X2163D01*
Y542D01*
X2147D01*
X2247D02*
Y558D01*
X2263D01*
Y542D01*
X2247D01*
X1271Y517D02*
Y533D01*
X1287D01*
Y517D01*
X1271D01*
X1371D02*
Y533D01*
X1387D01*
Y517D01*
X1371D01*
X1472D02*
Y533D01*
X1488D01*
Y517D01*
X1472D01*
X640Y117D02*
X632Y133D01*
X648D01*
X640Y117D01*
X888Y708D02*
X880Y724D01*
X896D01*
X888Y708D01*
X340Y233D02*
X344Y237D01*
X348D01*
X344Y241D01*
X348Y245D01*
X344D01*
X340Y249D01*
X336Y245D01*
X332D01*
X336Y241D01*
X332Y237D01*
X336D01*
X340Y233D01*
X143D02*
X147Y237D01*
X151D01*
X147Y241D01*
X151Y245D01*
X147D01*
X143Y249D01*
X139Y245D01*
X135D01*
X139Y241D01*
X135Y237D01*
X139D01*
X143Y233D01*
X240Y127D02*
X244Y131D01*
X248D01*
X244Y135D01*
X248Y139D01*
X244D01*
X240Y143D01*
X236Y139D01*
X232D01*
X236Y135D01*
X232Y131D01*
X236D01*
X240Y127D01*
X2563Y862D02*
X2567Y870D01*
X2563Y878D01*
X2571Y874D01*
X2579Y878D01*
X2575Y870D01*
X2579Y862D01*
X2571Y866D01*
X2563Y862D01*
X2371D02*
X2375Y870D01*
X2371Y878D01*
X2379Y874D01*
X2387Y878D01*
X2383Y870D01*
X2387Y862D01*
X2379Y866D01*
X2371Y862D01*
X3960Y174D02*
Y170D01*
X3968D01*
Y174D01*
X3972D01*
Y182D01*
X3968D01*
Y186D01*
X3960D01*
Y182D01*
X3956D01*
Y174D01*
X3960D01*
X3443D02*
Y170D01*
X3451D01*
Y174D01*
X3455D01*
Y182D01*
X3451D01*
Y186D01*
X3443D01*
Y182D01*
X3439D01*
Y174D01*
X3443D01*
X3835Y277D02*
X3839D01*
X3843Y281D01*
X3847Y277D01*
X3851D01*
Y281D01*
X3847Y285D01*
X3851Y289D01*
Y293D01*
X3847D01*
X3843Y289D01*
X3839Y293D01*
X3835D01*
Y289D01*
X3839Y285D01*
X3835Y281D01*
Y277D01*
X3737D02*
X3741D01*
X3745Y281D01*
X3749Y277D01*
X3753D01*
Y281D01*
X3749Y285D01*
X3753Y289D01*
Y293D01*
X3749D01*
X3745Y289D01*
X3741Y293D01*
X3737D01*
Y289D01*
X3741Y285D01*
X3737Y281D01*
Y277D01*
X3658D02*
X3662D01*
X3666Y281D01*
X3670Y277D01*
X3674D01*
Y281D01*
X3670Y285D01*
X3674Y289D01*
Y293D01*
X3670D01*
X3666Y289D01*
X3662Y293D01*
X3658D01*
Y289D01*
X3662Y285D01*
X3658Y281D01*
Y277D01*
X3560D02*
X3564D01*
X3568Y281D01*
X3572Y277D01*
X3576D01*
Y281D01*
X3572Y285D01*
X3576Y289D01*
Y293D01*
X3572D01*
X3568Y289D01*
X3564Y293D01*
X3560D01*
Y289D01*
X3564Y285D01*
X3560Y281D01*
Y277D01*
X3185Y174D02*
Y170D01*
X3193D01*
Y174D01*
X3197D01*
Y182D01*
X3193D01*
Y186D01*
X3185D01*
Y182D01*
X3181D01*
Y174D01*
X3185D01*
X2668D02*
Y170D01*
X2676D01*
Y174D01*
X2680D01*
Y182D01*
X2676D01*
Y186D01*
X2668D01*
Y182D01*
X2664D01*
Y174D01*
X2668D01*
X3060Y277D02*
X3064D01*
X3068Y281D01*
X3072Y277D01*
X3076D01*
Y281D01*
X3072Y285D01*
X3076Y289D01*
Y293D01*
X3072D01*
X3068Y289D01*
X3064Y293D01*
X3060D01*
Y289D01*
X3064Y285D01*
X3060Y281D01*
Y277D01*
X2962D02*
X2966D01*
X2970Y281D01*
X2974Y277D01*
X2978D01*
Y281D01*
X2974Y285D01*
X2978Y289D01*
Y293D01*
X2974D01*
X2970Y289D01*
X2966Y293D01*
X2962D01*
Y289D01*
X2966Y285D01*
X2962Y281D01*
Y277D01*
X2883D02*
X2887D01*
X2891Y281D01*
X2895Y277D01*
X2899D01*
Y281D01*
X2895Y285D01*
X2899Y289D01*
Y293D01*
X2895D01*
X2891Y289D01*
X2887Y293D01*
X2883D01*
Y289D01*
X2887Y285D01*
X2883Y281D01*
Y277D01*
X2784D02*
X2788D01*
X2792Y281D01*
X2796Y277D01*
X2800D01*
Y281D01*
X2796Y285D01*
X2800Y289D01*
Y293D01*
X2796D01*
X2792Y289D01*
X2788Y293D01*
X2784D01*
Y289D01*
X2788Y285D01*
X2784Y281D01*
Y277D01*
X2409Y174D02*
Y170D01*
X2417D01*
Y174D01*
X2421D01*
Y182D01*
X2417D01*
Y186D01*
X2409D01*
Y182D01*
X2405D01*
Y174D01*
X2409D01*
X1892D02*
Y170D01*
X1900D01*
Y174D01*
X1904D01*
Y182D01*
X1900D01*
Y186D01*
X1892D01*
Y182D01*
X1888D01*
Y174D01*
X1892D01*
X2285Y277D02*
X2289D01*
X2293Y281D01*
X2297Y277D01*
X2301D01*
Y281D01*
X2297Y285D01*
X2301Y289D01*
Y293D01*
X2297D01*
X2293Y289D01*
X2289Y293D01*
X2285D01*
Y289D01*
X2289Y285D01*
X2285Y281D01*
Y277D01*
X2186D02*
X2190D01*
X2194Y281D01*
X2198Y277D01*
X2202D01*
Y281D01*
X2198Y285D01*
X2202Y289D01*
Y293D01*
X2198D01*
X2194Y289D01*
X2190Y293D01*
X2186D01*
Y289D01*
X2190Y285D01*
X2186Y281D01*
Y277D01*
X2107D02*
X2111D01*
X2115Y281D01*
X2119Y277D01*
X2123D01*
Y281D01*
X2119Y285D01*
X2123Y289D01*
Y293D01*
X2119D01*
X2115Y289D01*
X2111Y293D01*
X2107D01*
Y289D01*
X2111Y285D01*
X2107Y281D01*
Y277D01*
X2009D02*
X2013D01*
X2017Y281D01*
X2021Y277D01*
X2025D01*
Y281D01*
X2021Y285D01*
X2025Y289D01*
Y293D01*
X2021D01*
X2017Y289D01*
X2013Y293D01*
X2009D01*
Y289D01*
X2013Y285D01*
X2009Y281D01*
Y277D01*
X1634Y174D02*
Y170D01*
X1642D01*
Y174D01*
X1646D01*
Y182D01*
X1642D01*
Y186D01*
X1634D01*
Y182D01*
X1630D01*
Y174D01*
X1634D01*
X1117D02*
Y170D01*
X1125D01*
Y174D01*
X1129D01*
Y182D01*
X1125D01*
Y186D01*
X1117D01*
Y182D01*
X1113D01*
Y174D01*
X1117D01*
X1509Y277D02*
X1513D01*
X1517Y281D01*
X1521Y277D01*
X1525D01*
Y281D01*
X1521Y285D01*
X1525Y289D01*
Y293D01*
X1521D01*
X1517Y289D01*
X1513Y293D01*
X1509D01*
Y289D01*
X1513Y285D01*
X1509Y281D01*
Y277D01*
X1411D02*
X1415D01*
X1419Y281D01*
X1423Y277D01*
X1427D01*
Y281D01*
X1423Y285D01*
X1427Y289D01*
Y293D01*
X1423D01*
X1419Y289D01*
X1415Y293D01*
X1411D01*
Y289D01*
X1415Y285D01*
X1411Y281D01*
Y277D01*
X1332D02*
X1336D01*
X1340Y281D01*
X1344Y277D01*
X1348D01*
Y281D01*
X1344Y285D01*
X1348Y289D01*
Y293D01*
X1344D01*
X1340Y289D01*
X1336Y293D01*
X1332D01*
Y289D01*
X1336Y285D01*
X1332Y281D01*
Y277D01*
X1234D02*
X1238D01*
X1242Y281D01*
X1246Y277D01*
X1250D01*
Y281D01*
X1246Y285D01*
X1250Y289D01*
Y293D01*
X1246D01*
X1242Y289D01*
X1238Y293D01*
X1234D01*
Y289D01*
X1238Y285D01*
X1234Y281D01*
Y277D01*
X199Y728D02*
Y724D01*
X207D01*
Y728D01*
X211D01*
Y736D01*
X207D01*
Y740D01*
X199D01*
Y736D01*
X195D01*
Y728D01*
X199D01*
Y1245D02*
Y1241D01*
X207D01*
Y1245D01*
X211D01*
Y1253D01*
X207D01*
Y1257D01*
X199D01*
Y1253D01*
X195D01*
Y1245D01*
X199D01*
X302Y845D02*
X306D01*
X310Y849D01*
X314Y845D01*
X318D01*
Y849D01*
X314Y853D01*
X318Y857D01*
Y861D01*
X314D01*
X310Y857D01*
X306Y861D01*
X302D01*
Y857D01*
X306Y853D01*
X302Y849D01*
Y845D01*
Y943D02*
X306D01*
X310Y947D01*
X314Y943D01*
X318D01*
Y947D01*
X314Y951D01*
X318Y955D01*
Y959D01*
X314D01*
X310Y955D01*
X306Y959D01*
X302D01*
Y955D01*
X306Y951D01*
X302Y947D01*
Y943D01*
Y1022D02*
X306D01*
X310Y1026D01*
X314Y1022D01*
X318D01*
Y1026D01*
X314Y1030D01*
X318Y1034D01*
Y1038D01*
X314D01*
X310Y1034D01*
X306Y1038D01*
X302D01*
Y1034D01*
X306Y1030D01*
X302Y1026D01*
Y1022D01*
Y1120D02*
X306D01*
X310Y1124D01*
X314Y1120D01*
X318D01*
Y1124D01*
X314Y1128D01*
X318Y1132D01*
Y1136D01*
X314D01*
X310Y1132D01*
X306Y1136D01*
X302D01*
Y1132D01*
X306Y1128D01*
X302Y1124D01*
Y1120D01*
X4042Y1695D02*
X4050Y1703D01*
X4058Y1695D01*
X4050Y1687D01*
X4042Y1695D01*
X195Y565D02*
X203Y573D01*
X211Y565D01*
X203Y557D01*
X195Y565D01*
X2732Y1352D02*
Y1368D01*
X2748D01*
Y1352D01*
X2732D01*
X2736Y1356D02*
Y1364D01*
X2744D01*
Y1356D01*
X2736D01*
X2012Y1083D02*
Y1099D01*
X2028D01*
Y1083D01*
X2012D01*
X2016Y1087D02*
Y1095D01*
X2024D01*
Y1087D01*
X2016D01*
X2014Y1217D02*
Y1233D01*
X2030D01*
Y1217D01*
X2014D01*
X2018Y1221D02*
Y1229D01*
X2026D01*
Y1221D01*
X2018D01*
X2867Y1567D02*
Y1583D01*
X2883D01*
Y1567D01*
X2867D01*
X2871Y1571D02*
Y1579D01*
X2879D01*
Y1571D01*
X2871D01*
X2837Y1352D02*
Y1368D01*
X2853D01*
Y1352D01*
X2837D01*
X2841Y1356D02*
Y1364D01*
X2849D01*
Y1356D01*
X2841D01*
X2632Y1017D02*
Y1033D01*
X2648D01*
Y1017D01*
X2632D01*
X2636Y1021D02*
Y1029D01*
X2644D01*
Y1021D01*
X2636D01*
X2752Y1147D02*
Y1163D01*
X2768D01*
Y1147D01*
X2752D01*
X2756Y1151D02*
Y1159D01*
X2764D01*
Y1151D01*
X2756D01*
X2907Y1127D02*
Y1143D01*
X2923D01*
Y1127D01*
X2907D01*
X2911Y1131D02*
Y1139D01*
X2919D01*
Y1131D01*
X2911D01*
X2937Y1037D02*
Y1053D01*
X2953D01*
Y1037D01*
X2937D01*
X2941Y1041D02*
Y1049D01*
X2949D01*
Y1041D01*
X2941D01*
X2837Y1207D02*
Y1223D01*
X2853D01*
Y1207D01*
X2837D01*
X2841Y1211D02*
Y1219D01*
X2849D01*
Y1211D01*
X2841D01*
X2777Y1247D02*
Y1263D01*
X2793D01*
Y1247D01*
X2777D01*
X2781Y1251D02*
Y1259D01*
X2789D01*
Y1251D01*
X2781D01*
X2792Y1022D02*
Y1038D01*
X2808D01*
Y1022D01*
X2792D01*
X2796Y1026D02*
Y1034D01*
X2804D01*
Y1026D01*
X2796D01*
X2837Y1139D02*
Y1155D01*
X2853D01*
Y1139D01*
X2837D01*
X2841Y1143D02*
Y1151D01*
X2849D01*
Y1143D01*
X2841D01*
X2612Y692D02*
Y708D01*
X2628D01*
Y692D01*
X2612D01*
X2616Y696D02*
Y704D01*
X2624D01*
Y696D01*
X2616D01*
X2467Y992D02*
Y1008D01*
X2483D01*
Y992D01*
X2467D01*
X2471Y996D02*
Y1004D01*
X2479D01*
Y996D01*
X2471D01*
X2537Y697D02*
Y713D01*
X2553D01*
Y697D01*
X2537D01*
X2541Y701D02*
Y709D01*
X2549D01*
Y701D01*
X2541D01*
X2397Y497D02*
Y513D01*
X2413D01*
Y497D01*
X2397D01*
X2401Y501D02*
Y509D01*
X2409D01*
Y501D01*
X2401D01*
X1842Y632D02*
Y648D01*
X1858D01*
Y632D01*
X1842D01*
X1846Y636D02*
Y644D01*
X1854D01*
Y636D01*
X1846D01*
X2012Y1292D02*
Y1308D01*
X2028D01*
Y1292D01*
X2012D01*
X2016Y1296D02*
Y1304D01*
X2024D01*
Y1296D01*
X2016D01*
X493Y817D02*
Y833D01*
X509D01*
Y817D01*
X493D01*
X497Y821D02*
Y829D01*
X505D01*
Y821D01*
X497D01*
X1842Y712D02*
Y728D01*
X1858D01*
Y712D01*
X1842D01*
X1846Y716D02*
Y724D01*
X1854D01*
Y716D01*
X1846D01*
X2667Y1497D02*
Y1513D01*
X2683D01*
Y1497D01*
X2667D01*
X2671Y1501D02*
Y1509D01*
X2679D01*
Y1501D01*
X2671D01*
X1763Y708D02*
Y724D01*
X1779D01*
Y708D01*
X1763D01*
X1767Y712D02*
Y720D01*
X1775D01*
Y712D01*
X1767D01*
X1677Y862D02*
Y878D01*
X1693D01*
Y862D01*
X1677D01*
X1681Y866D02*
Y874D01*
X1689D01*
Y866D01*
X1681D01*
X2014Y1364D02*
Y1380D01*
X2030D01*
Y1364D01*
X2014D01*
X2018Y1368D02*
Y1376D01*
X2026D01*
Y1368D01*
X2018D01*
X2014Y1452D02*
Y1468D01*
X2030D01*
Y1452D01*
X2014D01*
X2018Y1456D02*
Y1464D01*
X2026D01*
Y1456D01*
X2018D01*
D48*
X723Y263D02*
G03*
X723Y263I-8J0D01*
G01*
Y578D02*
G03*
X723Y578I-8J0D01*
G01*
Y420D02*
G03*
X723Y420I-8J0D01*
G01*
X1238Y1610D02*
G03*
X1238Y1610I-8J0D01*
G01*
X1338D02*
G03*
X1338Y1610I-8J0D01*
G01*
X978Y1610D02*
G03*
X978Y1610I-8J0D01*
G01*
X878D02*
G03*
X878Y1610I-8J0D01*
G01*
X778D02*
G03*
X778Y1610I-8J0D01*
G01*
X498D02*
G03*
X498Y1610I-8J0D01*
G01*
X398D02*
G03*
X398Y1610I-8J0D01*
G01*
X298D02*
G03*
X298Y1610I-8J0D01*
G01*
X3218Y1565D02*
G03*
X3218Y1565I-8J0D01*
G01*
X3418D02*
G03*
X3418Y1565I-8J0D01*
G01*
X3518D02*
G03*
X3518Y1565I-8J0D01*
G01*
X3618D02*
G03*
X3618Y1565I-8J0D01*
G01*
X3718D02*
G03*
X3718Y1565I-8J0D01*
G01*
X3818D02*
G03*
X3818Y1565I-8J0D01*
G01*
X3918D02*
G03*
X3918Y1565I-8J0D01*
G01*
X4018D02*
G03*
X4018Y1565I-8J0D01*
G01*
X3318D02*
G03*
X3318Y1565I-8J0D01*
G01*
M02*
