G04*
G04 #@! TF.GenerationSoftware,Altium Limited,Altium Designer,18.1.7 (191)*
G04*
G04 Layer_Physical_Order=2*
G04 Layer_Color=16711680*
%FSLAX23Y23*%
%MOIN*%
G70*
G01*
G75*
%ADD12C,0.010*%
%ADD17C,0.040*%
%ADD34C,0.020*%
%ADD35C,0.030*%
%ADD36R,0.078X0.078*%
%ADD37C,0.078*%
%ADD38R,0.078X0.078*%
%ADD39C,0.055*%
%ADD40C,0.083*%
%ADD41R,0.059X0.059*%
%ADD42C,0.059*%
%ADD43C,0.100*%
%ADD44C,0.039*%
%ADD45C,0.134*%
%ADD46C,0.050*%
G36*
X4165Y2D02*
X4160Y-0D01*
X4160Y0D01*
X0D01*
Y1785D01*
X4165D01*
Y2D01*
D02*
G37*
%LPC*%
G36*
X1335Y1649D02*
Y1615D01*
X1369D01*
X1369Y1620D01*
X1365Y1630D01*
X1358Y1638D01*
X1350Y1645D01*
X1340Y1649D01*
X1335Y1649D01*
D02*
G37*
G36*
X1325D02*
X1320Y1649D01*
X1310Y1645D01*
X1302Y1638D01*
X1295Y1630D01*
X1291Y1620D01*
X1291Y1615D01*
X1325D01*
Y1649D01*
D02*
G37*
G36*
X2880Y1610D02*
Y1580D01*
X2910D01*
X2909Y1584D01*
X2906Y1593D01*
X2900Y1600D01*
X2893Y1606D01*
X2884Y1609D01*
X2880Y1610D01*
D02*
G37*
G36*
X2870D02*
X2866Y1609D01*
X2857Y1606D01*
X2850Y1600D01*
X2844Y1593D01*
X2841Y1584D01*
X2840Y1580D01*
X2870D01*
Y1610D01*
D02*
G37*
G36*
X1369Y1605D02*
X1335D01*
Y1571D01*
X1340Y1571D01*
X1350Y1575D01*
X1358Y1582D01*
X1365Y1590D01*
X1369Y1600D01*
X1369Y1605D01*
D02*
G37*
G36*
X1325D02*
X1291D01*
X1291Y1600D01*
X1295Y1590D01*
X1302Y1582D01*
X1310Y1575D01*
X1320Y1571D01*
X1325Y1571D01*
Y1605D01*
D02*
G37*
G36*
X1270Y1650D02*
X1190D01*
Y1570D01*
X1270D01*
Y1650D01*
D02*
G37*
G36*
X530D02*
X450D01*
Y1570D01*
X530D01*
Y1650D01*
D02*
G37*
G36*
X770Y1650D02*
X760Y1649D01*
X750Y1645D01*
X742Y1638D01*
X735Y1630D01*
X731Y1620D01*
X730Y1610D01*
X731Y1600D01*
X735Y1590D01*
X742Y1582D01*
X750Y1575D01*
X760Y1571D01*
X770Y1570D01*
X780Y1571D01*
X790Y1575D01*
X798Y1582D01*
X805Y1590D01*
X809Y1600D01*
X810Y1610D01*
X809Y1620D01*
X805Y1630D01*
X798Y1638D01*
X790Y1645D01*
X780Y1649D01*
X770Y1650D01*
D02*
G37*
G36*
X290D02*
X280Y1649D01*
X270Y1645D01*
X262Y1638D01*
X255Y1630D01*
X251Y1620D01*
X250Y1610D01*
X251Y1600D01*
X255Y1590D01*
X262Y1582D01*
X270Y1575D01*
X280Y1571D01*
X290Y1570D01*
X300Y1571D01*
X310Y1575D01*
X318Y1582D01*
X325Y1590D01*
X329Y1600D01*
X330Y1610D01*
X329Y1620D01*
X325Y1630D01*
X318Y1638D01*
X310Y1645D01*
X300Y1649D01*
X290Y1650D01*
D02*
G37*
G36*
X4015Y1604D02*
Y1570D01*
X4049D01*
X4049Y1575D01*
X4045Y1585D01*
X4038Y1593D01*
X4030Y1600D01*
X4020Y1604D01*
X4015Y1604D01*
D02*
G37*
G36*
X4005D02*
X4000Y1604D01*
X3990Y1600D01*
X3982Y1593D01*
X3975Y1585D01*
X3971Y1575D01*
X3971Y1570D01*
X4005D01*
Y1604D01*
D02*
G37*
G36*
X2910Y1570D02*
X2880D01*
Y1540D01*
X2884Y1541D01*
X2893Y1544D01*
X2900Y1550D01*
X2906Y1557D01*
X2909Y1566D01*
X2910Y1570D01*
D02*
G37*
G36*
X2870D02*
X2840D01*
X2841Y1566D01*
X2844Y1557D01*
X2850Y1550D01*
X2857Y1544D01*
X2866Y1541D01*
X2870Y1540D01*
Y1570D01*
D02*
G37*
G36*
X4049Y1560D02*
X4015D01*
Y1526D01*
X4020Y1526D01*
X4030Y1530D01*
X4038Y1537D01*
X4045Y1545D01*
X4049Y1555D01*
X4049Y1560D01*
D02*
G37*
G36*
X4005D02*
X3971D01*
X3971Y1555D01*
X3975Y1545D01*
X3982Y1537D01*
X3990Y1530D01*
X4000Y1526D01*
X4005Y1526D01*
Y1560D01*
D02*
G37*
G36*
X3250Y1605D02*
X3170D01*
Y1525D01*
X3250D01*
Y1605D01*
D02*
G37*
G36*
X3910Y1605D02*
X3900Y1604D01*
X3890Y1600D01*
X3882Y1593D01*
X3875Y1585D01*
X3871Y1575D01*
X3870Y1565D01*
X3871Y1555D01*
X3875Y1545D01*
X3882Y1537D01*
X3890Y1530D01*
X3900Y1526D01*
X3910Y1525D01*
X3920Y1526D01*
X3930Y1530D01*
X3938Y1537D01*
X3945Y1545D01*
X3949Y1555D01*
X3950Y1565D01*
X3949Y1575D01*
X3945Y1585D01*
X3938Y1593D01*
X3930Y1600D01*
X3920Y1604D01*
X3910Y1605D01*
D02*
G37*
G36*
X3810D02*
X3800Y1604D01*
X3790Y1600D01*
X3782Y1593D01*
X3775Y1585D01*
X3771Y1575D01*
X3770Y1565D01*
X3771Y1555D01*
X3775Y1545D01*
X3782Y1537D01*
X3790Y1530D01*
X3800Y1526D01*
X3810Y1525D01*
X3820Y1526D01*
X3830Y1530D01*
X3838Y1537D01*
X3845Y1545D01*
X3849Y1555D01*
X3850Y1565D01*
X3849Y1575D01*
X3845Y1585D01*
X3838Y1593D01*
X3830Y1600D01*
X3820Y1604D01*
X3810Y1605D01*
D02*
G37*
G36*
X3710D02*
X3700Y1604D01*
X3690Y1600D01*
X3682Y1593D01*
X3675Y1585D01*
X3671Y1575D01*
X3670Y1565D01*
X3671Y1555D01*
X3675Y1545D01*
X3682Y1537D01*
X3690Y1530D01*
X3700Y1526D01*
X3710Y1525D01*
X3720Y1526D01*
X3730Y1530D01*
X3738Y1537D01*
X3745Y1545D01*
X3749Y1555D01*
X3750Y1565D01*
X3749Y1575D01*
X3745Y1585D01*
X3738Y1593D01*
X3730Y1600D01*
X3720Y1604D01*
X3710Y1605D01*
D02*
G37*
G36*
X3610D02*
X3600Y1604D01*
X3590Y1600D01*
X3582Y1593D01*
X3575Y1585D01*
X3571Y1575D01*
X3570Y1565D01*
X3571Y1555D01*
X3575Y1545D01*
X3582Y1537D01*
X3590Y1530D01*
X3600Y1526D01*
X3610Y1525D01*
X3620Y1526D01*
X3630Y1530D01*
X3638Y1537D01*
X3645Y1545D01*
X3649Y1555D01*
X3650Y1565D01*
X3649Y1575D01*
X3645Y1585D01*
X3638Y1593D01*
X3630Y1600D01*
X3620Y1604D01*
X3610Y1605D01*
D02*
G37*
G36*
X3510D02*
X3500Y1604D01*
X3490Y1600D01*
X3482Y1593D01*
X3475Y1585D01*
X3471Y1575D01*
X3470Y1565D01*
X3471Y1555D01*
X3475Y1545D01*
X3482Y1537D01*
X3490Y1530D01*
X3500Y1526D01*
X3510Y1525D01*
X3520Y1526D01*
X3530Y1530D01*
X3538Y1537D01*
X3545Y1545D01*
X3549Y1555D01*
X3550Y1565D01*
X3549Y1575D01*
X3545Y1585D01*
X3538Y1593D01*
X3530Y1600D01*
X3520Y1604D01*
X3510Y1605D01*
D02*
G37*
G36*
X3410D02*
X3400Y1604D01*
X3390Y1600D01*
X3382Y1593D01*
X3375Y1585D01*
X3371Y1575D01*
X3370Y1565D01*
X3371Y1555D01*
X3375Y1545D01*
X3382Y1537D01*
X3390Y1530D01*
X3400Y1526D01*
X3410Y1525D01*
X3420Y1526D01*
X3430Y1530D01*
X3438Y1537D01*
X3445Y1545D01*
X3449Y1555D01*
X3450Y1565D01*
X3449Y1575D01*
X3445Y1585D01*
X3438Y1593D01*
X3430Y1600D01*
X3420Y1604D01*
X3410Y1605D01*
D02*
G37*
G36*
X3310D02*
X3300Y1604D01*
X3290Y1600D01*
X3282Y1593D01*
X3275Y1585D01*
X3271Y1575D01*
X3270Y1565D01*
X3271Y1555D01*
X3275Y1545D01*
X3282Y1537D01*
X3290Y1530D01*
X3300Y1526D01*
X3310Y1525D01*
X3320Y1526D01*
X3330Y1530D01*
X3338Y1537D01*
X3345Y1545D01*
X3349Y1555D01*
X3350Y1565D01*
X3349Y1575D01*
X3345Y1585D01*
X3338Y1593D01*
X3330Y1600D01*
X3320Y1604D01*
X3310Y1605D01*
D02*
G37*
G36*
X2675Y1540D02*
X2666Y1539D01*
X2657Y1536D01*
X2650Y1530D01*
X2644Y1523D01*
X2643Y1520D01*
X2560D01*
X2554Y1519D01*
X2549Y1516D01*
X1782Y749D01*
X1780Y750D01*
X1771Y751D01*
X1761Y750D01*
X1753Y746D01*
X1746Y741D01*
X1740Y733D01*
X1736Y725D01*
X1735Y716D01*
X1736Y706D01*
X1740Y698D01*
X1746Y691D01*
X1753Y685D01*
X1761Y681D01*
X1771Y680D01*
X1780Y681D01*
X1788Y685D01*
X1796Y691D01*
X1801Y698D01*
X1805Y706D01*
X1806Y716D01*
X1805Y725D01*
X1804Y727D01*
X1814Y737D01*
X1818Y734D01*
X1816Y729D01*
X1815Y720D01*
X1816Y711D01*
X1819Y702D01*
X1825Y695D01*
X1832Y689D01*
X1841Y686D01*
X1850Y685D01*
X1859Y686D01*
X1868Y689D01*
X1875Y695D01*
X1881Y702D01*
X1884Y711D01*
X1885Y720D01*
X1884Y729D01*
X1883Y731D01*
X2496Y1345D01*
X2708D01*
X2709Y1342D01*
X2715Y1335D01*
X2722Y1329D01*
X2731Y1326D01*
X2740Y1325D01*
X2749Y1326D01*
X2758Y1329D01*
X2765Y1335D01*
X2771Y1342D01*
X2774Y1351D01*
X2775Y1360D01*
X2774Y1369D01*
X2771Y1378D01*
X2765Y1385D01*
X2758Y1391D01*
X2749Y1394D01*
X2740Y1395D01*
X2731Y1394D01*
X2722Y1391D01*
X2715Y1385D01*
X2709Y1378D01*
X2708Y1375D01*
X2490D01*
X2484Y1374D01*
X2479Y1371D01*
X1861Y753D01*
X1859Y754D01*
X1850Y755D01*
X1841Y754D01*
X1836Y752D01*
X1833Y756D01*
X2566Y1490D01*
X2643D01*
X2644Y1487D01*
X2650Y1480D01*
X2657Y1474D01*
X2666Y1471D01*
X2675Y1470D01*
X2684Y1471D01*
X2693Y1474D01*
X2700Y1480D01*
X2706Y1487D01*
X2709Y1496D01*
X2710Y1505D01*
X2709Y1514D01*
X2706Y1523D01*
X2700Y1530D01*
X2693Y1536D01*
X2684Y1539D01*
X2675Y1540D01*
D02*
G37*
G36*
X2022Y1495D02*
X2013Y1494D01*
X2004Y1491D01*
X1997Y1485D01*
X1991Y1478D01*
X1988Y1469D01*
X1987Y1460D01*
X1988Y1451D01*
X1989Y1449D01*
X1590Y1050D01*
X1586Y1053D01*
X1588Y1055D01*
X1593Y1067D01*
X1594Y1075D01*
X1545D01*
X1496D01*
X1497Y1067D01*
X1502Y1055D01*
X1506Y1050D01*
X1504Y1045D01*
X1286D01*
X1284Y1050D01*
X1288Y1055D01*
X1293Y1067D01*
X1294Y1075D01*
X1245D01*
X1196D01*
X1197Y1067D01*
X1202Y1055D01*
X1206Y1050D01*
X1204Y1045D01*
X986D01*
X984Y1050D01*
X988Y1055D01*
X993Y1067D01*
X994Y1075D01*
X945D01*
X896D01*
X897Y1067D01*
X902Y1055D01*
X906Y1050D01*
X904Y1045D01*
X686D01*
X684Y1050D01*
X688Y1055D01*
X693Y1067D01*
X694Y1075D01*
X645D01*
X596D01*
X597Y1067D01*
X602Y1055D01*
X606Y1050D01*
X604Y1045D01*
X346D01*
X345Y1050D01*
X338Y1058D01*
X330Y1065D01*
X320Y1069D01*
X310Y1070D01*
X300Y1069D01*
X290Y1065D01*
X282Y1058D01*
X275Y1050D01*
X271Y1040D01*
X270Y1030D01*
X271Y1020D01*
X275Y1010D01*
X282Y1002D01*
X290Y995D01*
X295Y993D01*
Y988D01*
X290Y986D01*
X282Y979D01*
X275Y971D01*
X271Y962D01*
X270Y951D01*
X271Y941D01*
X275Y931D01*
X282Y923D01*
X290Y917D01*
X300Y913D01*
X310Y911D01*
X320Y913D01*
X330Y917D01*
X338Y923D01*
X345Y931D01*
X346Y936D01*
X584D01*
X586Y931D01*
X512Y858D01*
X510Y859D01*
X501Y860D01*
X492Y859D01*
X483Y856D01*
X476Y850D01*
X470Y843D01*
X467Y834D01*
X466Y825D01*
X467Y816D01*
X470Y807D01*
X476Y800D01*
X483Y794D01*
X492Y791D01*
X501Y790D01*
X510Y791D01*
X519Y794D01*
X526Y800D01*
X532Y807D01*
X535Y816D01*
X536Y825D01*
X535Y834D01*
X534Y836D01*
X616Y919D01*
X1654D01*
X1660Y920D01*
X1665Y923D01*
X1988Y1246D01*
X1992Y1243D01*
X1991Y1243D01*
X1988Y1234D01*
X1987Y1230D01*
X2057D01*
X2056Y1234D01*
X2053Y1243D01*
X2047Y1250D01*
X2040Y1256D01*
X2031Y1259D01*
X2024Y1260D01*
X2023Y1260D01*
X2023Y1265D01*
D01*
Y1265D01*
X2028Y1266D01*
X2029Y1266D01*
X2038Y1269D01*
X2045Y1275D01*
X2051Y1282D01*
X2054Y1291D01*
X2055Y1300D01*
X2054Y1309D01*
X2051Y1318D01*
X2045Y1325D01*
X2038Y1331D01*
X2032Y1333D01*
X2032Y1335D01*
X2032Y1338D01*
X2040Y1341D01*
X2047Y1347D01*
X2053Y1354D01*
X2056Y1363D01*
X2057Y1372D01*
X2056Y1381D01*
X2053Y1390D01*
X2047Y1397D01*
X2040Y1403D01*
X2031Y1406D01*
X2022Y1407D01*
X2013Y1406D01*
X2004Y1403D01*
X1997Y1397D01*
X1991Y1390D01*
X1988Y1381D01*
X1987Y1372D01*
X1988Y1363D01*
X1989Y1360D01*
X1595Y967D01*
X346D01*
X345Y971D01*
X338Y979D01*
X330Y986D01*
X325Y988D01*
Y993D01*
X330Y995D01*
X338Y1002D01*
X345Y1010D01*
X346Y1015D01*
X1592D01*
X1598Y1016D01*
X1603Y1019D01*
X2010Y1427D01*
X2013Y1426D01*
X2022Y1425D01*
X2031Y1426D01*
X2040Y1429D01*
X2047Y1435D01*
X2053Y1442D01*
X2056Y1451D01*
X2057Y1460D01*
X2056Y1469D01*
X2053Y1478D01*
X2047Y1485D01*
X2040Y1491D01*
X2031Y1494D01*
X2022Y1495D01*
D02*
G37*
G36*
X2850Y1395D02*
Y1365D01*
X2880D01*
X2879Y1369D01*
X2876Y1378D01*
X2870Y1385D01*
X2863Y1391D01*
X2854Y1394D01*
X2850Y1395D01*
D02*
G37*
G36*
X2840D02*
X2836Y1394D01*
X2827Y1391D01*
X2820Y1385D01*
X2814Y1378D01*
X2811Y1369D01*
X2810Y1365D01*
X2840D01*
Y1395D01*
D02*
G37*
G36*
X985Y1735D02*
X964D01*
X956Y1734D01*
X948Y1731D01*
X942Y1726D01*
X865Y1649D01*
X860Y1649D01*
X850Y1645D01*
X842Y1638D01*
X835Y1630D01*
X831Y1620D01*
X830Y1610D01*
X831Y1600D01*
X835Y1590D01*
X842Y1582D01*
X850Y1575D01*
X860Y1571D01*
X870Y1570D01*
X880Y1571D01*
X890Y1575D01*
X898Y1582D01*
X905Y1590D01*
X909Y1600D01*
X910Y1608D01*
X926Y1625D01*
X930Y1623D01*
Y1570D01*
X940D01*
Y1400D01*
X941Y1392D01*
X944Y1385D01*
X949Y1379D01*
X993Y1334D01*
X991Y1329D01*
X991Y1329D01*
Y1329D01*
X990Y1329D01*
X896D01*
Y1231D01*
X928D01*
X929Y1226D01*
X920Y1223D01*
X910Y1215D01*
X906Y1210D01*
X855D01*
Y1435D01*
X854Y1443D01*
X851Y1450D01*
X846Y1456D01*
X840Y1461D01*
X833Y1464D01*
X825Y1465D01*
X498D01*
X420Y1543D01*
Y1585D01*
X425Y1590D01*
X429Y1600D01*
X430Y1610D01*
X429Y1620D01*
X425Y1630D01*
X418Y1638D01*
X410Y1645D01*
X400Y1649D01*
X390Y1650D01*
X380Y1649D01*
X370Y1645D01*
X362Y1638D01*
X355Y1630D01*
X351Y1620D01*
X350Y1610D01*
X351Y1600D01*
X355Y1590D01*
X360Y1585D01*
Y1530D01*
X361Y1522D01*
X364Y1515D01*
X369Y1509D01*
X464Y1414D01*
X470Y1409D01*
X477Y1406D01*
X485Y1405D01*
X795D01*
Y1180D01*
X796Y1172D01*
X799Y1165D01*
X804Y1159D01*
X810Y1154D01*
X817Y1151D01*
X825Y1150D01*
X906D01*
X910Y1145D01*
X920Y1137D01*
X932Y1132D01*
Y1127D01*
X920Y1122D01*
X910Y1115D01*
X902Y1104D01*
X897Y1092D01*
X896Y1085D01*
X945D01*
X994D01*
X993Y1092D01*
X988Y1104D01*
X980Y1115D01*
X970Y1122D01*
X958Y1127D01*
Y1132D01*
X970Y1137D01*
X980Y1145D01*
X988Y1155D01*
X993Y1167D01*
X994Y1180D01*
X993Y1193D01*
X988Y1205D01*
X980Y1215D01*
X970Y1223D01*
X961Y1226D01*
X962Y1231D01*
X994D01*
Y1326D01*
X994Y1326D01*
X995Y1326D01*
X999Y1328D01*
X1159Y1169D01*
X1159Y1169D01*
X1165Y1164D01*
X1172Y1161D01*
X1180Y1160D01*
X1200D01*
X1202Y1155D01*
X1210Y1145D01*
X1220Y1137D01*
X1232Y1132D01*
Y1127D01*
X1220Y1122D01*
X1210Y1115D01*
X1202Y1104D01*
X1197Y1092D01*
X1196Y1085D01*
X1245D01*
X1294D01*
X1293Y1092D01*
X1288Y1104D01*
X1280Y1115D01*
X1270Y1122D01*
X1258Y1127D01*
Y1132D01*
X1270Y1137D01*
X1280Y1145D01*
X1288Y1155D01*
X1293Y1167D01*
X1294Y1180D01*
X1293Y1193D01*
X1288Y1205D01*
X1280Y1215D01*
X1270Y1223D01*
X1261Y1226D01*
X1262Y1231D01*
X1294D01*
Y1329D01*
X1196D01*
Y1231D01*
X1228D01*
X1229Y1226D01*
X1220Y1223D01*
X1217Y1220D01*
X1193D01*
X1000Y1413D01*
Y1570D01*
X1010D01*
Y1631D01*
X1014Y1633D01*
X1469Y1179D01*
X1475Y1174D01*
X1482Y1171D01*
X1490Y1170D01*
X1497D01*
X1497Y1167D01*
X1502Y1155D01*
X1510Y1145D01*
X1520Y1137D01*
X1532Y1132D01*
Y1127D01*
X1520Y1122D01*
X1510Y1115D01*
X1502Y1104D01*
X1497Y1092D01*
X1496Y1085D01*
X1545D01*
X1594D01*
X1593Y1092D01*
X1588Y1104D01*
X1580Y1115D01*
X1570Y1122D01*
X1558Y1127D01*
Y1132D01*
X1570Y1137D01*
X1580Y1145D01*
X1588Y1155D01*
X1593Y1167D01*
X1594Y1180D01*
X1593Y1193D01*
X1588Y1205D01*
X1580Y1215D01*
X1570Y1223D01*
X1561Y1226D01*
X1562Y1231D01*
X1594D01*
Y1329D01*
X1496D01*
Y1243D01*
X1491Y1241D01*
X1006Y1726D01*
X1000Y1731D01*
X993Y1734D01*
X985Y1735D01*
D02*
G37*
G36*
X2880Y1355D02*
X2850D01*
Y1325D01*
X2854Y1326D01*
X2863Y1329D01*
X2870Y1335D01*
X2876Y1342D01*
X2879Y1351D01*
X2880Y1355D01*
D02*
G37*
G36*
X2840D02*
X2810D01*
X2811Y1351D01*
X2814Y1342D01*
X2820Y1335D01*
X2827Y1329D01*
X2836Y1326D01*
X2840Y1325D01*
Y1355D01*
D02*
G37*
G36*
X2785Y1290D02*
X2776Y1289D01*
X2767Y1286D01*
X2760Y1280D01*
X2754Y1273D01*
X2753Y1270D01*
X2466D01*
X2465Y1271D01*
X2459Y1269D01*
X2454Y1266D01*
X1861Y673D01*
X1859Y674D01*
X1850Y675D01*
X1840Y674D01*
X1832Y671D01*
X1825Y665D01*
X1819Y658D01*
X1815Y649D01*
X1814Y640D01*
X1815Y631D01*
X1819Y622D01*
X1825Y615D01*
X1832Y609D01*
X1840Y606D01*
X1850Y605D01*
X1859Y606D01*
X1867Y609D01*
X1875Y615D01*
X1880Y622D01*
X1884Y631D01*
X1885Y640D01*
X1884Y649D01*
X1883Y651D01*
X2400Y1169D01*
X2405Y1167D01*
Y893D01*
X2403Y892D01*
X2400Y891D01*
X2394Y896D01*
X2387Y899D01*
X2379Y900D01*
X2371Y899D01*
X2364Y896D01*
X2358Y891D01*
X2353Y885D01*
X2350Y878D01*
X2349Y870D01*
X2350Y862D01*
X2353Y855D01*
X2358Y849D01*
X2364Y844D01*
X2371Y841D01*
X2379Y840D01*
X2387Y841D01*
X2394Y844D01*
X2400Y849D01*
X2403Y848D01*
X2405Y847D01*
Y540D01*
X2396Y539D01*
X2387Y536D01*
X2380Y530D01*
X2374Y523D01*
X2371Y514D01*
X2370Y505D01*
X2371Y496D01*
X2374Y487D01*
X2380Y480D01*
X2387Y474D01*
X2396Y471D01*
X2405Y470D01*
X2414Y471D01*
X2423Y474D01*
X2430Y480D01*
X2436Y487D01*
X2439Y496D01*
X2440Y505D01*
X2439Y514D01*
X2436Y523D01*
X2435Y523D01*
Y995D01*
X2440Y995D01*
X2441Y991D01*
X2444Y982D01*
X2450Y975D01*
X2457Y969D01*
X2460Y968D01*
Y775D01*
X2461Y769D01*
X2464Y764D01*
X2512Y716D01*
X2511Y714D01*
X2510Y705D01*
X2511Y696D01*
X2514Y687D01*
X2520Y680D01*
X2527Y674D01*
X2536Y671D01*
X2545Y670D01*
X2554Y671D01*
X2563Y674D01*
X2570Y680D01*
X2576Y687D01*
X2579Y696D01*
X2580Y705D01*
X2579Y714D01*
X2576Y723D01*
X2570Y730D01*
X2563Y736D01*
X2554Y739D01*
X2545Y740D01*
X2536Y739D01*
X2534Y738D01*
X2490Y781D01*
Y968D01*
X2493Y969D01*
X2500Y975D01*
X2506Y982D01*
X2509Y991D01*
X2510Y1000D01*
X2509Y1009D01*
X2506Y1018D01*
X2500Y1025D01*
X2493Y1031D01*
X2484Y1034D01*
X2475Y1035D01*
X2466Y1034D01*
X2457Y1031D01*
X2450Y1025D01*
X2444Y1018D01*
X2441Y1009D01*
X2440Y1005D01*
X2435Y1005D01*
Y1169D01*
X2467Y1200D01*
X2470Y1200D01*
X2813D01*
X2814Y1197D01*
X2820Y1190D01*
X2827Y1184D01*
X2829Y1184D01*
Y1179D01*
X2827Y1178D01*
X2820Y1172D01*
X2814Y1165D01*
X2811Y1157D01*
X2810Y1147D01*
X2811Y1138D01*
X2814Y1130D01*
X2820Y1122D01*
X2827Y1117D01*
X2830Y1116D01*
Y1056D01*
X2825Y1054D01*
X2824Y1055D01*
X2817Y1061D01*
X2809Y1064D01*
X2800Y1065D01*
X2790Y1064D01*
X2788Y1063D01*
X2775Y1076D01*
Y1123D01*
X2778Y1124D01*
X2785Y1130D01*
X2791Y1137D01*
X2794Y1146D01*
X2795Y1155D01*
X2794Y1164D01*
X2791Y1173D01*
X2785Y1180D01*
X2778Y1186D01*
X2769Y1189D01*
X2760Y1190D01*
X2751Y1189D01*
X2742Y1186D01*
X2735Y1180D01*
X2729Y1173D01*
X2726Y1164D01*
X2725Y1155D01*
X2726Y1146D01*
X2729Y1137D01*
X2735Y1130D01*
X2742Y1124D01*
X2745Y1123D01*
Y1070D01*
X2746Y1064D01*
X2749Y1059D01*
X2766Y1041D01*
X2765Y1039D01*
X2764Y1030D01*
X2765Y1021D01*
X2769Y1012D01*
X2775Y1005D01*
X2782Y999D01*
X2790Y996D01*
X2800Y995D01*
X2809Y996D01*
X2817Y999D01*
X2824Y1005D01*
X2825Y1006D01*
X2830Y1004D01*
Y931D01*
X2631Y733D01*
X2629Y734D01*
X2620Y735D01*
X2611Y734D01*
X2602Y731D01*
X2595Y725D01*
X2589Y718D01*
X2586Y709D01*
X2585Y700D01*
X2586Y691D01*
X2589Y682D01*
X2595Y675D01*
X2602Y669D01*
X2611Y666D01*
X2620Y665D01*
X2629Y666D01*
X2638Y669D01*
X2645Y675D01*
X2651Y682D01*
X2654Y691D01*
X2655Y700D01*
X2654Y709D01*
X2653Y711D01*
X2856Y914D01*
X2859Y919D01*
X2860Y925D01*
Y1116D01*
X2863Y1117D01*
X2870Y1122D01*
X2875Y1130D01*
X2876Y1130D01*
X2881Y1129D01*
X2881Y1126D01*
X2884Y1117D01*
X2888Y1112D01*
X2884Y1108D01*
X2881Y1103D01*
X2880Y1097D01*
Y1000D01*
X2881Y994D01*
X2884Y989D01*
X3524Y349D01*
X3529Y346D01*
X3535Y345D01*
X3585D01*
X3630Y300D01*
X3628Y295D01*
X3626Y285D01*
X3628Y275D01*
X3632Y265D01*
X3638Y257D01*
X3646Y250D01*
X3656Y246D01*
X3666Y245D01*
X3677Y246D01*
X3686Y250D01*
X3694Y257D01*
X3701Y265D01*
X3703Y270D01*
X3708D01*
X3710Y265D01*
X3717Y257D01*
X3725Y250D01*
X3735Y246D01*
X3745Y245D01*
X3755Y246D01*
X3765Y250D01*
X3773Y257D01*
X3780Y265D01*
X3784Y275D01*
X3785Y285D01*
X3784Y295D01*
X3780Y305D01*
X3773Y313D01*
X3765Y320D01*
X3755Y324D01*
X3745Y325D01*
X3735Y324D01*
X3730Y322D01*
X3641Y411D01*
X3636Y414D01*
X3630Y415D01*
X3561D01*
X2966Y1011D01*
X2966Y1017D01*
X2970Y1020D01*
X2976Y1027D01*
X2979Y1036D01*
X2980Y1045D01*
X2979Y1054D01*
X2976Y1063D01*
X2970Y1070D01*
X2963Y1076D01*
X2954Y1079D01*
X2945Y1080D01*
X2936Y1079D01*
X2927Y1076D01*
X2920Y1070D01*
X2915Y1064D01*
X2910Y1065D01*
Y1091D01*
X2920Y1100D01*
X2924Y1101D01*
X2933Y1104D01*
X2940Y1110D01*
X2946Y1117D01*
X2949Y1126D01*
X2950Y1135D01*
X2949Y1144D01*
X2946Y1153D01*
X2940Y1160D01*
X2933Y1166D01*
X2924Y1169D01*
X2915Y1170D01*
X2906Y1169D01*
X2897Y1166D01*
X2890Y1160D01*
X2885Y1153D01*
X2884Y1153D01*
X2879Y1154D01*
X2879Y1157D01*
X2876Y1165D01*
X2870Y1172D01*
X2863Y1178D01*
X2861Y1179D01*
Y1184D01*
X2863Y1184D01*
X2870Y1190D01*
X2876Y1197D01*
X2879Y1206D01*
X2880Y1215D01*
X2879Y1224D01*
X2876Y1233D01*
X2870Y1240D01*
X2863Y1246D01*
X2854Y1249D01*
X2845Y1250D01*
X2836Y1249D01*
X2827Y1246D01*
X2823Y1242D01*
X2819Y1245D01*
X2819Y1246D01*
X2820Y1255D01*
X2819Y1264D01*
X2816Y1273D01*
X2810Y1280D01*
X2803Y1286D01*
X2794Y1289D01*
X2785Y1290D01*
D02*
G37*
G36*
X2057Y1220D02*
X2027D01*
Y1190D01*
X2031Y1191D01*
X2040Y1194D01*
X2047Y1200D01*
X2053Y1207D01*
X2056Y1216D01*
X2057Y1220D01*
D02*
G37*
G36*
X2017D02*
X1987D01*
X1988Y1216D01*
X1991Y1207D01*
X1997Y1200D01*
X2004Y1194D01*
X2013Y1191D01*
X2017Y1190D01*
Y1220D01*
D02*
G37*
G36*
X203Y1327D02*
X188Y1325D01*
X174Y1321D01*
X160Y1314D01*
X149Y1304D01*
X139Y1292D01*
X132Y1279D01*
X127Y1264D01*
X126Y1249D01*
X127Y1234D01*
X132Y1220D01*
X139Y1206D01*
X149Y1195D01*
X160Y1185D01*
X174Y1178D01*
X188Y1173D01*
X203Y1172D01*
X218Y1173D01*
X233Y1178D01*
X246Y1185D01*
X258Y1195D01*
X268Y1206D01*
X275Y1220D01*
X279Y1234D01*
X281Y1249D01*
X279Y1264D01*
X275Y1279D01*
X268Y1292D01*
X258Y1304D01*
X246Y1314D01*
X233Y1321D01*
X218Y1325D01*
X203Y1327D01*
D02*
G37*
G36*
X2025Y1126D02*
Y1096D01*
X2055D01*
X2054Y1100D01*
X2051Y1109D01*
X2045Y1116D01*
X2038Y1122D01*
X2029Y1125D01*
X2025Y1126D01*
D02*
G37*
G36*
X2015D02*
X2011Y1125D01*
X2002Y1122D01*
X1995Y1116D01*
X1989Y1109D01*
X1986Y1100D01*
X1985Y1096D01*
X2015D01*
Y1126D01*
D02*
G37*
G36*
X310Y1168D02*
X300Y1167D01*
X290Y1163D01*
X282Y1157D01*
X275Y1148D01*
X271Y1139D01*
X270Y1128D01*
X271Y1118D01*
X275Y1108D01*
X282Y1100D01*
X290Y1094D01*
X300Y1090D01*
X310Y1089D01*
X320Y1090D01*
X330Y1094D01*
X338Y1100D01*
X345Y1108D01*
X349Y1118D01*
X350Y1128D01*
X349Y1139D01*
X345Y1148D01*
X338Y1157D01*
X330Y1163D01*
X320Y1167D01*
X310Y1168D01*
D02*
G37*
G36*
X694Y1329D02*
X596D01*
Y1231D01*
X628D01*
X629Y1226D01*
X620Y1223D01*
X610Y1215D01*
X602Y1205D01*
X597Y1193D01*
X596Y1180D01*
X597Y1167D01*
X602Y1155D01*
X610Y1145D01*
X620Y1137D01*
X632Y1132D01*
Y1127D01*
X620Y1122D01*
X610Y1115D01*
X602Y1104D01*
X597Y1092D01*
X596Y1085D01*
X645D01*
X694D01*
X693Y1092D01*
X688Y1104D01*
X680Y1115D01*
X670Y1122D01*
X658Y1127D01*
Y1132D01*
X670Y1137D01*
X680Y1145D01*
X688Y1155D01*
X693Y1167D01*
X694Y1180D01*
X693Y1193D01*
X688Y1205D01*
X680Y1215D01*
X670Y1223D01*
X661Y1226D01*
X662Y1231D01*
X694D01*
Y1329D01*
D02*
G37*
G36*
X2055Y1086D02*
X2025D01*
Y1057D01*
X2029Y1057D01*
X2038Y1061D01*
X2045Y1066D01*
X2051Y1074D01*
X2054Y1082D01*
X2055Y1086D01*
D02*
G37*
G36*
X2015D02*
X1985D01*
X1986Y1082D01*
X1989Y1074D01*
X1995Y1066D01*
X2002Y1061D01*
X2011Y1057D01*
X2015Y1057D01*
Y1086D01*
D02*
G37*
G36*
X2645Y1060D02*
Y1030D01*
X2675D01*
X2674Y1034D01*
X2671Y1043D01*
X2665Y1050D01*
X2658Y1056D01*
X2649Y1059D01*
X2645Y1060D01*
D02*
G37*
G36*
X2635D02*
X2631Y1059D01*
X2622Y1056D01*
X2615Y1050D01*
X2609Y1043D01*
X2606Y1034D01*
X2605Y1030D01*
X2635D01*
Y1060D01*
D02*
G37*
G36*
X2675Y1020D02*
X2645D01*
Y990D01*
X2649Y991D01*
X2658Y994D01*
X2665Y1000D01*
X2671Y1007D01*
X2674Y1016D01*
X2675Y1020D01*
D02*
G37*
G36*
X2635D02*
X2605D01*
X2606Y1016D01*
X2609Y1007D01*
X2615Y1000D01*
X2622Y994D01*
X2631Y991D01*
X2635Y990D01*
Y1020D01*
D02*
G37*
G36*
X315Y892D02*
Y858D01*
X349D01*
X349Y863D01*
X345Y873D01*
X338Y881D01*
X330Y887D01*
X320Y891D01*
X315Y892D01*
D02*
G37*
G36*
X305D02*
X300Y891D01*
X290Y887D01*
X282Y881D01*
X275Y873D01*
X271Y863D01*
X271Y858D01*
X305D01*
Y892D01*
D02*
G37*
G36*
X2571Y900D02*
X2563Y899D01*
X2556Y896D01*
X2550Y891D01*
X2545Y885D01*
X2542Y878D01*
X2541Y870D01*
X2542Y862D01*
X2545Y855D01*
X2550Y849D01*
X2556Y844D01*
X2563Y841D01*
X2571Y840D01*
X2579Y841D01*
X2586Y844D01*
X2592Y849D01*
X2597Y855D01*
X2600Y862D01*
X2601Y870D01*
X2600Y878D01*
X2597Y885D01*
X2592Y891D01*
X2586Y896D01*
X2579Y899D01*
X2571Y900D01*
D02*
G37*
G36*
X349Y848D02*
X315D01*
Y814D01*
X320Y814D01*
X330Y818D01*
X338Y825D01*
X345Y833D01*
X349Y843D01*
X349Y848D01*
D02*
G37*
G36*
X305D02*
X271D01*
X271Y843D01*
X275Y833D01*
X282Y825D01*
X290Y818D01*
X300Y814D01*
X305Y814D01*
Y848D01*
D02*
G37*
G36*
X888Y767D02*
X875Y766D01*
X862Y760D01*
X851Y752D01*
X843Y741D01*
X838Y729D01*
X836Y716D01*
X838Y702D01*
X843Y690D01*
X851Y679D01*
X862Y671D01*
X875Y666D01*
X888Y664D01*
X901Y666D01*
X914Y671D01*
X925Y679D01*
X933Y690D01*
X938Y702D01*
X940Y716D01*
X938Y729D01*
X933Y741D01*
X925Y752D01*
X914Y760D01*
X901Y766D01*
X888Y767D01*
D02*
G37*
G36*
X203Y809D02*
X188Y808D01*
X174Y803D01*
X160Y796D01*
X149Y787D01*
X139Y775D01*
X132Y762D01*
X127Y747D01*
X126Y732D01*
X127Y717D01*
X132Y702D01*
X139Y689D01*
X149Y677D01*
X160Y668D01*
X174Y661D01*
X188Y656D01*
X203Y655D01*
X218Y656D01*
X233Y661D01*
X246Y668D01*
X258Y677D01*
X268Y689D01*
X275Y702D01*
X279Y717D01*
X281Y732D01*
X279Y747D01*
X275Y762D01*
X268Y775D01*
X258Y787D01*
X246Y796D01*
X233Y803D01*
X218Y808D01*
X203Y809D01*
D02*
G37*
G36*
X2155Y599D02*
X2142Y598D01*
X2130Y593D01*
X2120Y585D01*
X2112Y575D01*
X2108Y566D01*
X2103Y567D01*
Y599D01*
X2005D01*
Y501D01*
X2103D01*
Y533D01*
X2108Y534D01*
X2112Y525D01*
X2120Y515D01*
X2130Y507D01*
X2134Y505D01*
Y423D01*
X2136Y415D01*
X2140Y408D01*
X2254Y295D01*
X2253Y285D01*
X2254Y275D01*
X2258Y265D01*
X2264Y257D01*
X2273Y250D01*
X2282Y246D01*
X2293Y245D01*
X2303Y246D01*
X2313Y250D01*
X2321Y257D01*
X2327Y265D01*
X2331Y275D01*
X2332Y285D01*
X2331Y295D01*
X2327Y305D01*
X2321Y313D01*
X2313Y320D01*
X2303Y324D01*
X2293Y325D01*
X2283Y324D01*
X2175Y431D01*
Y505D01*
X2179Y507D01*
X2190Y515D01*
X2198Y525D01*
X2203Y537D01*
X2207D01*
X2212Y525D01*
X2220Y515D01*
X2230Y507D01*
X2242Y502D01*
X2250Y501D01*
Y550D01*
Y599D01*
X2242Y598D01*
X2230Y593D01*
X2220Y585D01*
X2212Y575D01*
X2207Y563D01*
X2203D01*
X2198Y575D01*
X2190Y585D01*
X2179Y593D01*
X2168Y598D01*
X2155Y599D01*
D02*
G37*
G36*
X2260Y599D02*
Y555D01*
X2304D01*
X2303Y563D01*
X2298Y575D01*
X2290Y585D01*
X2280Y593D01*
X2268Y598D01*
X2260Y599D01*
D02*
G37*
G36*
X3706Y584D02*
X3693Y583D01*
X3681Y578D01*
X3671Y570D01*
X3663Y560D01*
X3659Y551D01*
X3654Y552D01*
Y584D01*
X3556D01*
Y486D01*
X3654D01*
Y518D01*
X3659Y519D01*
X3663Y510D01*
X3671Y500D01*
X3681Y492D01*
X3685Y490D01*
Y423D01*
X3687Y415D01*
X3691Y408D01*
X3805Y295D01*
X3804Y285D01*
X3805Y275D01*
X3809Y265D01*
X3815Y257D01*
X3823Y250D01*
X3833Y246D01*
X3843Y245D01*
X3854Y246D01*
X3863Y250D01*
X3872Y257D01*
X3878Y265D01*
X3882Y275D01*
X3883Y285D01*
X3882Y295D01*
X3878Y305D01*
X3872Y313D01*
X3863Y320D01*
X3854Y324D01*
X3843Y325D01*
X3834Y324D01*
X3726Y431D01*
Y490D01*
X3730Y492D01*
X3741Y500D01*
X3748Y510D01*
X3753Y522D01*
X3758D01*
X3763Y510D01*
X3771Y500D01*
X3781Y492D01*
X3793Y487D01*
X3801Y486D01*
Y535D01*
Y584D01*
X3793Y583D01*
X3781Y578D01*
X3771Y570D01*
X3763Y560D01*
X3758Y548D01*
X3753D01*
X3748Y560D01*
X3741Y570D01*
X3730Y578D01*
X3718Y583D01*
X3706Y584D01*
D02*
G37*
G36*
X2930D02*
X2917Y583D01*
X2906Y578D01*
X2895Y570D01*
X2887Y560D01*
X2884Y551D01*
X2879Y552D01*
Y584D01*
X2781D01*
Y486D01*
X2879D01*
Y518D01*
X2884Y519D01*
X2887Y510D01*
X2895Y500D01*
X2906Y492D01*
X2910Y490D01*
Y423D01*
X2911Y415D01*
X2916Y408D01*
X3029Y295D01*
X3028Y285D01*
X3029Y275D01*
X3033Y265D01*
X3040Y257D01*
X3048Y250D01*
X3058Y246D01*
X3068Y245D01*
X3078Y246D01*
X3088Y250D01*
X3096Y257D01*
X3103Y265D01*
X3107Y275D01*
X3108Y285D01*
X3107Y295D01*
X3103Y305D01*
X3096Y313D01*
X3088Y320D01*
X3078Y324D01*
X3068Y325D01*
X3058Y324D01*
X2951Y431D01*
Y490D01*
X2955Y492D01*
X2965Y500D01*
X2973Y510D01*
X2978Y522D01*
X2983D01*
X2988Y510D01*
X2996Y500D01*
X3006Y492D01*
X3018Y487D01*
X3026Y486D01*
Y535D01*
Y584D01*
X3018Y583D01*
X3006Y578D01*
X2996Y570D01*
X2988Y560D01*
X2983Y548D01*
X2978D01*
X2973Y560D01*
X2965Y570D01*
X2955Y578D01*
X2943Y583D01*
X2930Y584D01*
D02*
G37*
G36*
X1379Y574D02*
X1367Y573D01*
X1355Y568D01*
X1344Y560D01*
X1337Y550D01*
X1333Y541D01*
X1328Y542D01*
Y574D01*
X1230D01*
Y476D01*
X1328D01*
Y508D01*
X1333Y509D01*
X1337Y500D01*
X1344Y490D01*
X1355Y482D01*
X1359Y480D01*
Y423D01*
X1361Y415D01*
X1365Y408D01*
X1479Y295D01*
X1477Y285D01*
X1479Y275D01*
X1483Y265D01*
X1489Y257D01*
X1497Y250D01*
X1507Y246D01*
X1517Y245D01*
X1527Y246D01*
X1537Y250D01*
X1545Y257D01*
X1552Y265D01*
X1556Y275D01*
X1557Y285D01*
X1556Y295D01*
X1552Y305D01*
X1545Y313D01*
X1537Y320D01*
X1527Y324D01*
X1517Y325D01*
X1507Y324D01*
X1400Y431D01*
Y480D01*
X1404Y482D01*
X1414Y490D01*
X1422Y500D01*
X1427Y512D01*
X1432D01*
X1437Y500D01*
X1445Y490D01*
X1455Y482D01*
X1467Y477D01*
X1475Y476D01*
Y525D01*
Y574D01*
X1467Y573D01*
X1455Y568D01*
X1445Y560D01*
X1437Y550D01*
X1432Y538D01*
X1427D01*
X1422Y550D01*
X1414Y560D01*
X1404Y568D01*
X1392Y573D01*
X1379Y574D01*
D02*
G37*
G36*
X3811Y584D02*
Y540D01*
X3855D01*
X3854Y548D01*
X3849Y560D01*
X3841Y570D01*
X3831Y578D01*
X3819Y583D01*
X3811Y584D01*
D02*
G37*
G36*
X3036D02*
Y540D01*
X3079D01*
X3078Y548D01*
X3073Y560D01*
X3066Y570D01*
X3055Y578D01*
X3043Y583D01*
X3036Y584D01*
D02*
G37*
G36*
X715Y616D02*
X705Y614D01*
X696Y611D01*
X688Y605D01*
X683Y598D01*
X676D01*
X669Y597D01*
X662Y592D01*
X366Y296D01*
X363Y297D01*
X352Y301D01*
X340Y302D01*
X328Y301D01*
X317Y297D01*
X306Y292D01*
X297Y284D01*
X290Y275D01*
X284Y264D01*
X281Y253D01*
X280Y241D01*
X281Y229D01*
X284Y218D01*
X290Y208D01*
X297Y199D01*
X306Y191D01*
X317Y185D01*
X328Y182D01*
X340Y181D01*
X352Y182D01*
X363Y185D01*
X374Y191D01*
X383Y199D01*
X390Y208D01*
X396Y218D01*
X399Y229D01*
X400Y241D01*
X399Y253D01*
X396Y264D01*
X395Y267D01*
X681Y554D01*
X686Y553D01*
X688Y551D01*
X696Y545D01*
X705Y541D01*
X715Y540D01*
X725Y541D01*
X734Y545D01*
X742Y551D01*
X748Y559D01*
X751Y568D01*
X753Y578D01*
X751Y588D01*
X748Y597D01*
X742Y605D01*
X734Y611D01*
X725Y614D01*
X715Y616D01*
D02*
G37*
G36*
X1485Y574D02*
Y530D01*
X1529D01*
X1527Y538D01*
X1523Y550D01*
X1515Y560D01*
X1504Y568D01*
X1493Y573D01*
X1485Y574D01*
D02*
G37*
G36*
X2304Y545D02*
X2260D01*
Y501D01*
X2268Y502D01*
X2280Y507D01*
X2290Y515D01*
X2298Y525D01*
X2303Y537D01*
X2304Y545D01*
D02*
G37*
G36*
X3855Y530D02*
X3811D01*
Y486D01*
X3819Y487D01*
X3831Y492D01*
X3841Y500D01*
X3849Y510D01*
X3854Y522D01*
X3855Y530D01*
D02*
G37*
G36*
X3079D02*
X3036D01*
Y486D01*
X3043Y487D01*
X3055Y492D01*
X3066Y500D01*
X3073Y510D01*
X3078Y522D01*
X3079Y530D01*
D02*
G37*
G36*
X1529Y520D02*
X1485D01*
Y476D01*
X1493Y477D01*
X1504Y482D01*
X1515Y490D01*
X1523Y500D01*
X1527Y512D01*
X1529Y520D01*
D02*
G37*
G36*
X2194Y325D02*
X2184Y324D01*
X2174Y320D01*
X2166Y313D01*
X2160Y305D01*
X2157Y300D01*
X2152D01*
X2150Y305D01*
X2144Y313D01*
X2135Y320D01*
X2126Y324D01*
X2115Y325D01*
X2105Y324D01*
X2095Y320D01*
X2087Y313D01*
X2081Y305D01*
X2077Y295D01*
X2076Y285D01*
X2077Y275D01*
X2081Y265D01*
X2087Y257D01*
X2095Y250D01*
X2105Y246D01*
X2115Y245D01*
X2126Y246D01*
X2135Y250D01*
X2144Y257D01*
X2150Y265D01*
X2152Y270D01*
X2157D01*
X2160Y265D01*
X2166Y257D01*
X2174Y250D01*
X2184Y246D01*
X2194Y245D01*
X2204Y246D01*
X2214Y250D01*
X2222Y257D01*
X2229Y265D01*
X2233Y275D01*
X2234Y285D01*
X2233Y295D01*
X2229Y305D01*
X2222Y313D01*
X2214Y320D01*
X2204Y324D01*
X2194Y325D01*
D02*
G37*
G36*
X1419D02*
X1408Y324D01*
X1399Y320D01*
X1391Y313D01*
X1384Y305D01*
X1382Y300D01*
X1377D01*
X1375Y305D01*
X1368Y313D01*
X1360Y320D01*
X1350Y324D01*
X1340Y325D01*
X1330Y324D01*
X1320Y320D01*
X1312Y313D01*
X1305Y305D01*
X1301Y295D01*
X1300Y285D01*
X1301Y275D01*
X1305Y265D01*
X1312Y257D01*
X1320Y250D01*
X1330Y246D01*
X1340Y245D01*
X1350Y246D01*
X1360Y250D01*
X1368Y257D01*
X1375Y265D01*
X1377Y270D01*
X1382D01*
X1384Y265D01*
X1391Y257D01*
X1399Y250D01*
X1408Y246D01*
X1419Y245D01*
X1429Y246D01*
X1439Y250D01*
X1447Y257D01*
X1453Y265D01*
X1457Y275D01*
X1459Y285D01*
X1457Y295D01*
X1453Y305D01*
X1447Y313D01*
X1439Y320D01*
X1429Y324D01*
X1419Y325D01*
D02*
G37*
G36*
X2970D02*
X2959Y324D01*
X2950Y320D01*
X2941Y313D01*
X2935Y305D01*
X2933Y300D01*
X2928D01*
X2925Y305D01*
X2919Y313D01*
X2911Y320D01*
X2901Y324D01*
X2891Y325D01*
X2881Y324D01*
X2871Y320D01*
X2863Y313D01*
X2856Y305D01*
X2852Y295D01*
X2851Y285D01*
X2852Y275D01*
X2856Y265D01*
X2863Y257D01*
X2871Y250D01*
X2881Y246D01*
X2891Y245D01*
X2901Y246D01*
X2911Y250D01*
X2919Y257D01*
X2925Y265D01*
X2928Y270D01*
X2933D01*
X2935Y265D01*
X2941Y257D01*
X2950Y250D01*
X2959Y246D01*
X2970Y245D01*
X2980Y246D01*
X2990Y250D01*
X2998Y257D01*
X3004Y265D01*
X3008Y275D01*
X3009Y285D01*
X3008Y295D01*
X3004Y305D01*
X2998Y313D01*
X2990Y320D01*
X2980Y324D01*
X2970Y325D01*
D02*
G37*
G36*
X148Y301D02*
Y246D01*
X203D01*
X202Y253D01*
X199Y264D01*
X193Y275D01*
X186Y284D01*
X177Y292D01*
X166Y297D01*
X155Y301D01*
X148Y301D01*
D02*
G37*
G36*
X138D02*
X131Y301D01*
X120Y297D01*
X110Y292D01*
X100Y284D01*
X93Y275D01*
X87Y264D01*
X84Y253D01*
X83Y246D01*
X138D01*
Y301D01*
D02*
G37*
G36*
X3568Y325D02*
X3558Y324D01*
X3548Y320D01*
X3540Y313D01*
X3533Y305D01*
X3529Y295D01*
X3528Y285D01*
X3529Y275D01*
X3533Y265D01*
X3540Y257D01*
X3548Y250D01*
X3558Y246D01*
X3568Y245D01*
X3578Y246D01*
X3588Y250D01*
X3596Y257D01*
X3602Y265D01*
X3606Y275D01*
X3608Y285D01*
X3606Y295D01*
X3602Y305D01*
X3596Y313D01*
X3588Y320D01*
X3578Y324D01*
X3568Y325D01*
D02*
G37*
G36*
X2792D02*
X2782Y324D01*
X2772Y320D01*
X2764Y313D01*
X2758Y305D01*
X2754Y295D01*
X2753Y285D01*
X2754Y275D01*
X2758Y265D01*
X2764Y257D01*
X2772Y250D01*
X2782Y246D01*
X2792Y245D01*
X2803Y246D01*
X2812Y250D01*
X2821Y257D01*
X2827Y265D01*
X2831Y275D01*
X2832Y285D01*
X2831Y295D01*
X2827Y305D01*
X2821Y313D01*
X2812Y320D01*
X2803Y324D01*
X2792Y325D01*
D02*
G37*
G36*
X1685Y905D02*
X1676Y904D01*
X1667Y901D01*
X1660Y895D01*
X1654Y888D01*
X1651Y879D01*
X1650Y870D01*
X1651Y861D01*
X1654Y852D01*
X1660Y845D01*
X1667Y839D01*
X1670Y838D01*
Y617D01*
X1671Y611D01*
X1674Y606D01*
X1980Y300D01*
X1978Y295D01*
X1977Y285D01*
X1978Y275D01*
X1982Y265D01*
X1989Y257D01*
X1997Y250D01*
X2007Y246D01*
X2017Y245D01*
X2027Y246D01*
X2037Y250D01*
X2045Y257D01*
X2052Y265D01*
X2056Y275D01*
X2057Y285D01*
X2056Y295D01*
X2052Y305D01*
X2045Y313D01*
X2037Y320D01*
X2027Y324D01*
X2017Y325D01*
X2007Y324D01*
X2002Y322D01*
X1700Y623D01*
Y838D01*
X1703Y839D01*
X1710Y845D01*
X1716Y852D01*
X1719Y861D01*
X1720Y870D01*
X1719Y879D01*
X1716Y888D01*
X1710Y895D01*
X1703Y901D01*
X1694Y904D01*
X1685Y905D01*
D02*
G37*
G36*
X715Y458D02*
X705Y457D01*
X696Y453D01*
X688Y447D01*
X682Y439D01*
X678Y430D01*
X677Y420D01*
X678Y410D01*
X682Y401D01*
X688Y393D01*
X696Y387D01*
X705Y384D01*
X715Y382D01*
X723Y383D01*
X836Y271D01*
X836Y271D01*
X842Y266D01*
X850Y265D01*
X850Y265D01*
X1207D01*
X1213Y257D01*
X1222Y250D01*
X1231Y246D01*
X1242Y245D01*
X1252Y246D01*
X1262Y250D01*
X1270Y257D01*
X1276Y265D01*
X1280Y275D01*
X1281Y285D01*
X1280Y295D01*
X1276Y305D01*
X1270Y313D01*
X1262Y320D01*
X1252Y324D01*
X1242Y325D01*
X1231Y324D01*
X1222Y320D01*
X1213Y313D01*
X1207Y305D01*
X859D01*
X752Y412D01*
X753Y420D01*
X751Y430D01*
X748Y439D01*
X742Y447D01*
X734Y453D01*
X725Y457D01*
X715Y458D01*
D02*
G37*
G36*
Y301D02*
X705Y299D01*
X696Y296D01*
X688Y290D01*
X682Y282D01*
X678Y273D01*
X677Y263D01*
X678Y253D01*
X682Y244D01*
X688Y236D01*
X696Y230D01*
X705Y226D01*
X715Y225D01*
X725Y226D01*
X734Y230D01*
X742Y236D01*
X748Y244D01*
X751Y253D01*
X753Y263D01*
X751Y273D01*
X748Y282D01*
X742Y290D01*
X734Y296D01*
X725Y299D01*
X715Y301D01*
D02*
G37*
G36*
X203Y236D02*
X148D01*
Y181D01*
X155Y182D01*
X166Y185D01*
X177Y191D01*
X186Y199D01*
X193Y208D01*
X199Y218D01*
X202Y229D01*
X203Y236D01*
D02*
G37*
G36*
X138D02*
X83D01*
X84Y229D01*
X87Y218D01*
X93Y208D01*
X100Y199D01*
X110Y191D01*
X120Y185D01*
X131Y182D01*
X138Y181D01*
Y236D01*
D02*
G37*
G36*
X3964Y256D02*
X3949Y254D01*
X3935Y250D01*
X3921Y243D01*
X3910Y233D01*
X3900Y221D01*
X3893Y208D01*
X3888Y193D01*
X3887Y178D01*
X3888Y163D01*
X3893Y149D01*
X3900Y135D01*
X3910Y124D01*
X3921Y114D01*
X3935Y107D01*
X3949Y102D01*
X3964Y101D01*
X3979Y102D01*
X3994Y107D01*
X4007Y114D01*
X4019Y124D01*
X4029Y135D01*
X4036Y149D01*
X4040Y163D01*
X4042Y178D01*
X4040Y193D01*
X4036Y208D01*
X4029Y221D01*
X4019Y233D01*
X4007Y243D01*
X3994Y250D01*
X3979Y254D01*
X3964Y256D01*
D02*
G37*
G36*
X3447D02*
X3432Y254D01*
X3417Y250D01*
X3404Y243D01*
X3392Y233D01*
X3383Y221D01*
X3376Y208D01*
X3371Y193D01*
X3370Y178D01*
X3371Y163D01*
X3376Y149D01*
X3383Y135D01*
X3392Y124D01*
X3404Y114D01*
X3417Y107D01*
X3432Y102D01*
X3447Y101D01*
X3462Y102D01*
X3477Y107D01*
X3490Y114D01*
X3502Y124D01*
X3511Y135D01*
X3518Y149D01*
X3523Y163D01*
X3524Y178D01*
X3523Y193D01*
X3518Y208D01*
X3511Y221D01*
X3502Y233D01*
X3490Y243D01*
X3477Y250D01*
X3462Y254D01*
X3447Y256D01*
D02*
G37*
G36*
X3189D02*
X3174Y254D01*
X3159Y250D01*
X3146Y243D01*
X3134Y233D01*
X3125Y221D01*
X3117Y208D01*
X3113Y193D01*
X3112Y178D01*
X3113Y163D01*
X3117Y149D01*
X3125Y135D01*
X3134Y124D01*
X3146Y114D01*
X3159Y107D01*
X3174Y102D01*
X3189Y101D01*
X3204Y102D01*
X3218Y107D01*
X3232Y114D01*
X3244Y124D01*
X3253Y135D01*
X3260Y149D01*
X3265Y163D01*
X3266Y178D01*
X3265Y193D01*
X3260Y208D01*
X3253Y221D01*
X3244Y233D01*
X3232Y243D01*
X3218Y250D01*
X3204Y254D01*
X3189Y256D01*
D02*
G37*
G36*
X2672D02*
X2656Y254D01*
X2642Y250D01*
X2629Y243D01*
X2617Y233D01*
X2607Y221D01*
X2600Y208D01*
X2596Y193D01*
X2594Y178D01*
X2596Y163D01*
X2600Y149D01*
X2607Y135D01*
X2617Y124D01*
X2629Y114D01*
X2642Y107D01*
X2656Y102D01*
X2672Y101D01*
X2687Y102D01*
X2701Y107D01*
X2714Y114D01*
X2726Y124D01*
X2736Y135D01*
X2743Y149D01*
X2747Y163D01*
X2749Y178D01*
X2747Y193D01*
X2743Y208D01*
X2736Y221D01*
X2726Y233D01*
X2714Y243D01*
X2701Y250D01*
X2687Y254D01*
X2672Y256D01*
D02*
G37*
G36*
X2413D02*
X2398Y254D01*
X2384Y250D01*
X2371Y243D01*
X2359Y233D01*
X2349Y221D01*
X2342Y208D01*
X2338Y193D01*
X2336Y178D01*
X2338Y163D01*
X2342Y149D01*
X2349Y135D01*
X2359Y124D01*
X2371Y114D01*
X2384Y107D01*
X2398Y102D01*
X2413Y101D01*
X2429Y102D01*
X2443Y107D01*
X2456Y114D01*
X2468Y124D01*
X2478Y135D01*
X2485Y149D01*
X2489Y163D01*
X2491Y178D01*
X2489Y193D01*
X2485Y208D01*
X2478Y221D01*
X2468Y233D01*
X2456Y243D01*
X2443Y250D01*
X2429Y254D01*
X2413Y256D01*
D02*
G37*
G36*
X1896D02*
X1881Y254D01*
X1867Y250D01*
X1853Y243D01*
X1841Y233D01*
X1832Y221D01*
X1825Y208D01*
X1820Y193D01*
X1819Y178D01*
X1820Y163D01*
X1825Y149D01*
X1832Y135D01*
X1841Y124D01*
X1853Y114D01*
X1867Y107D01*
X1881Y102D01*
X1896Y101D01*
X1911Y102D01*
X1926Y107D01*
X1939Y114D01*
X1951Y124D01*
X1960Y135D01*
X1968Y149D01*
X1972Y163D01*
X1973Y178D01*
X1972Y193D01*
X1968Y208D01*
X1960Y221D01*
X1951Y233D01*
X1939Y243D01*
X1926Y250D01*
X1911Y254D01*
X1896Y256D01*
D02*
G37*
G36*
X1638D02*
X1623Y254D01*
X1608Y250D01*
X1595Y243D01*
X1583Y233D01*
X1574Y221D01*
X1567Y208D01*
X1562Y193D01*
X1561Y178D01*
X1562Y163D01*
X1567Y149D01*
X1574Y135D01*
X1583Y124D01*
X1595Y114D01*
X1608Y107D01*
X1623Y102D01*
X1638Y101D01*
X1653Y102D01*
X1668Y107D01*
X1681Y114D01*
X1693Y124D01*
X1702Y135D01*
X1709Y149D01*
X1714Y163D01*
X1715Y178D01*
X1714Y193D01*
X1709Y208D01*
X1702Y221D01*
X1693Y233D01*
X1681Y243D01*
X1668Y250D01*
X1653Y254D01*
X1638Y256D01*
D02*
G37*
G36*
X1121D02*
X1106Y254D01*
X1091Y250D01*
X1078Y243D01*
X1066Y233D01*
X1056Y221D01*
X1049Y208D01*
X1045Y193D01*
X1043Y178D01*
X1045Y163D01*
X1049Y149D01*
X1056Y135D01*
X1066Y124D01*
X1078Y114D01*
X1091Y107D01*
X1106Y102D01*
X1121Y101D01*
X1136Y102D01*
X1150Y107D01*
X1164Y114D01*
X1175Y124D01*
X1185Y135D01*
X1192Y149D01*
X1197Y163D01*
X1198Y178D01*
X1197Y193D01*
X1192Y208D01*
X1185Y221D01*
X1175Y233D01*
X1164Y243D01*
X1150Y250D01*
X1136Y254D01*
X1121Y256D01*
D02*
G37*
G36*
X240Y195D02*
X228Y194D01*
X217Y191D01*
X206Y185D01*
X197Y178D01*
X190Y169D01*
X184Y158D01*
X181Y147D01*
X180Y135D01*
X181Y123D01*
X184Y112D01*
X190Y101D01*
X197Y92D01*
X206Y85D01*
X217Y79D01*
X228Y76D01*
X240Y75D01*
X252Y76D01*
X263Y79D01*
X274Y85D01*
X283Y92D01*
X290Y101D01*
X296Y112D01*
X299Y123D01*
X300Y135D01*
X299Y147D01*
X296Y158D01*
X290Y169D01*
X283Y178D01*
X274Y185D01*
X263Y191D01*
X252Y194D01*
X240Y195D01*
D02*
G37*
G36*
X640Y177D02*
X627Y175D01*
X614Y170D01*
X603Y162D01*
X595Y151D01*
X590Y138D01*
X588Y125D01*
X590Y112D01*
X595Y99D01*
X603Y88D01*
X614Y80D01*
X627Y75D01*
X640Y73D01*
X653Y75D01*
X666Y80D01*
X677Y88D01*
X685Y99D01*
X690Y112D01*
X692Y125D01*
X690Y138D01*
X685Y151D01*
X677Y162D01*
X666Y170D01*
X653Y175D01*
X640Y177D01*
D02*
G37*
%LPD*%
G36*
X1986Y1307D02*
X1985Y1300D01*
X1986Y1291D01*
X1987Y1289D01*
X1648Y949D01*
X1628D01*
X1626Y954D01*
X1981Y1309D01*
X1986Y1307D01*
D02*
G37*
G36*
X2754Y1237D02*
X2756Y1235D01*
X2754Y1230D01*
X2476D01*
X2476Y1231D01*
X2475Y1231D01*
X2474Y1238D01*
X2475Y1240D01*
X2753D01*
X2754Y1237D01*
D02*
G37*
G36*
X2920Y1020D02*
X2927Y1014D01*
X2930Y1013D01*
Y1010D01*
X2931Y1004D01*
X2934Y999D01*
X3544Y389D01*
X3549Y386D01*
X3555Y385D01*
X3624D01*
X3681Y327D01*
X3679Y323D01*
X3677Y324D01*
X3666Y325D01*
X3656Y324D01*
X3651Y322D01*
X3602Y371D01*
X3597Y374D01*
X3591Y375D01*
X3541D01*
X2910Y1006D01*
Y1025D01*
X2915Y1026D01*
X2920Y1020D01*
D02*
G37*
D12*
X2490Y1360D02*
X2740D01*
X2760Y1070D02*
Y1155D01*
Y1070D02*
X2800Y1030D01*
X3555Y400D02*
X3630D01*
X2945Y1010D02*
X3555Y400D01*
X3535Y360D02*
X3591D01*
X2895Y1000D02*
X3535Y360D01*
X2915Y1117D02*
Y1135D01*
X2895Y1097D02*
X2915Y1117D01*
X2945Y1010D02*
Y1045D01*
X2895Y1000D02*
Y1097D01*
X2475Y775D02*
Y1000D01*
Y775D02*
X2545Y705D01*
X2420Y1175D02*
X2465Y1220D01*
X2420Y520D02*
Y1175D01*
X2405Y505D02*
X2420Y520D01*
X2470Y1215D02*
X2845D01*
X2465Y1220D02*
X2470Y1215D01*
X2465Y1255D02*
X2785D01*
X3630Y400D02*
X3745Y285D01*
X3591Y360D02*
X3666Y285D01*
X2845Y925D02*
Y1147D01*
X2620Y700D02*
X2845Y925D01*
X2465Y1255D02*
X2465Y1255D01*
X1850Y640D02*
X2465Y1255D01*
X1771Y716D02*
X2560Y1505D01*
X2675D01*
X1654Y934D02*
X2020Y1300D01*
X610Y934D02*
X1654D01*
X501Y825D02*
X610Y934D01*
X1850Y720D02*
X2490Y1360D01*
X1685Y617D02*
X2017Y285D01*
X1685Y617D02*
Y870D01*
X1601Y951D02*
X2022Y1372D01*
X310Y951D02*
X1601D01*
X1592Y1030D02*
X2022Y1460D01*
X310Y1030D02*
X1592D01*
D17*
X1490Y1200D02*
X1545D01*
X985Y1705D02*
X1490Y1200D01*
X964Y1705D02*
X985D01*
X1545Y1180D02*
Y1200D01*
X870Y1611D02*
X964Y1705D01*
X870Y1610D02*
Y1611D01*
X1180Y1190D02*
X1235D01*
X970Y1400D02*
X1180Y1190D01*
X970Y1400D02*
Y1610D01*
X485Y1435D02*
X825D01*
Y1180D02*
Y1435D01*
Y1180D02*
X945D01*
X390Y1530D02*
X485Y1435D01*
X390Y1530D02*
Y1610D01*
D34*
X3706Y423D02*
X3843Y285D01*
X3706Y423D02*
Y535D01*
X2930Y423D02*
X3068Y285D01*
X2930Y423D02*
Y535D01*
X2155Y423D02*
X2293Y285D01*
X2155Y423D02*
Y550D01*
X1379Y423D02*
X1517Y285D01*
X1379Y423D02*
Y525D01*
X850Y285D02*
X1242D01*
X715Y420D02*
X850Y285D01*
X676Y578D02*
X715D01*
X340Y241D02*
X676Y578D01*
D35*
X1235Y1190D02*
X1245Y1180D01*
D36*
X645Y1280D02*
D03*
X945D02*
D03*
X1245D02*
D03*
X1545D02*
D03*
D37*
X645Y1180D02*
D03*
Y1080D02*
D03*
X945Y1180D02*
D03*
Y1080D02*
D03*
X1245Y1180D02*
D03*
Y1080D02*
D03*
X1545Y1180D02*
D03*
Y1080D02*
D03*
X3706Y535D02*
D03*
X3806D02*
D03*
X2930Y535D02*
D03*
X3031D02*
D03*
X2155Y550D02*
D03*
X2255D02*
D03*
X1379Y525D02*
D03*
X1480D02*
D03*
D38*
X3605Y535D02*
D03*
X2830Y535D02*
D03*
X2054Y550D02*
D03*
X1279Y525D02*
D03*
D39*
X715Y263D02*
D03*
Y578D02*
D03*
Y420D02*
D03*
D40*
X640Y125D02*
D03*
X888Y716D02*
D03*
D41*
X1230Y1610D02*
D03*
X970Y1610D02*
D03*
X490D02*
D03*
X3210Y1565D02*
D03*
D42*
X1330Y1610D02*
D03*
X870Y1610D02*
D03*
X770D02*
D03*
X390D02*
D03*
X290D02*
D03*
X3843Y285D02*
D03*
X3745D02*
D03*
X3666D02*
D03*
X3568D02*
D03*
X3068D02*
D03*
X2970D02*
D03*
X2891D02*
D03*
X2792D02*
D03*
X2293D02*
D03*
X2194D02*
D03*
X2115D02*
D03*
X2017D02*
D03*
X1517D02*
D03*
X1419D02*
D03*
X1340D02*
D03*
X1242D02*
D03*
X310Y853D02*
D03*
Y951D02*
D03*
Y1030D02*
D03*
Y1128D02*
D03*
X3410Y1565D02*
D03*
X3510D02*
D03*
X3610D02*
D03*
X3710D02*
D03*
X3810D02*
D03*
X3910D02*
D03*
X4010D02*
D03*
X3310D02*
D03*
D43*
X340Y241D02*
D03*
X143D02*
D03*
X240Y135D02*
D03*
D44*
X2571Y870D02*
D03*
X2379D02*
D03*
D45*
X3964Y178D02*
D03*
X3447D02*
D03*
X3189D02*
D03*
X2672D02*
D03*
X2413D02*
D03*
X1896D02*
D03*
X1638D02*
D03*
X1121D02*
D03*
X203Y732D02*
D03*
Y1249D02*
D03*
D46*
X2740Y1360D02*
D03*
X2020Y1091D02*
D03*
X2022Y1225D02*
D03*
X2875Y1575D02*
D03*
X2845Y1360D02*
D03*
X2640Y1025D02*
D03*
X2760Y1155D02*
D03*
X2915Y1135D02*
D03*
X2945Y1045D02*
D03*
X2845Y1215D02*
D03*
X2785Y1255D02*
D03*
X2800Y1030D02*
D03*
X2845Y1147D02*
D03*
X2620Y700D02*
D03*
X2475Y1000D02*
D03*
X2545Y705D02*
D03*
X2405Y505D02*
D03*
X1850Y640D02*
D03*
X2020Y1300D02*
D03*
X501Y825D02*
D03*
X1850Y720D02*
D03*
X2675Y1505D02*
D03*
X1771Y716D02*
D03*
X1685Y870D02*
D03*
X2022Y1372D02*
D03*
Y1460D02*
D03*
M02*
