G04*
G04 #@! TF.GenerationSoftware,Altium Limited,Altium Designer,18.1.7 (191)*
G04*
G04 Layer_Color=128*
%FSLAX23Y23*%
%MOIN*%
G70*
G01*
G75*
%ADD47C,0.002*%
D47*
X619Y1280D02*
X671D01*
X645Y1254D02*
Y1306D01*
X619Y1180D02*
X671D01*
X645Y1154D02*
Y1206D01*
X619Y1080D02*
X671D01*
X645Y1054D02*
Y1106D01*
X919Y1280D02*
X971D01*
X945Y1254D02*
Y1306D01*
X919Y1180D02*
X971D01*
X945Y1154D02*
Y1206D01*
X919Y1080D02*
X971D01*
X945Y1054D02*
Y1106D01*
X1219Y1280D02*
X1271D01*
X1245Y1254D02*
Y1306D01*
X1219Y1180D02*
X1271D01*
X1245Y1154D02*
Y1206D01*
X1219Y1080D02*
X1271D01*
X1245Y1054D02*
Y1106D01*
X1519Y1280D02*
X1571D01*
X1545Y1254D02*
Y1306D01*
X1519Y1180D02*
X1571D01*
X1545Y1154D02*
Y1206D01*
X1519Y1080D02*
X1571D01*
X1545Y1054D02*
Y1106D01*
X3579Y535D02*
X3631D01*
X3605Y509D02*
Y561D01*
X3680Y535D02*
X3732D01*
X3706Y509D02*
Y561D01*
X3780Y535D02*
X3832D01*
X3806Y509D02*
Y561D01*
X2804Y535D02*
X2856D01*
X2830Y509D02*
Y561D01*
X2904Y535D02*
X2956D01*
X2930Y509D02*
Y561D01*
X3005Y535D02*
X3057D01*
X3031Y509D02*
Y561D01*
X2028Y550D02*
X2080D01*
X2054Y524D02*
Y576D01*
X2129Y550D02*
X2181D01*
X2155Y524D02*
Y576D01*
X2229Y550D02*
X2281D01*
X2255Y524D02*
Y576D01*
X1253Y525D02*
X1305D01*
X1279Y499D02*
Y551D01*
X1353Y525D02*
X1405D01*
X1379Y499D02*
Y551D01*
X1454Y525D02*
X1506D01*
X1480Y499D02*
Y551D01*
X697Y263D02*
X733D01*
X715Y245D02*
Y281D01*
X697Y578D02*
X733D01*
X715Y560D02*
Y595D01*
X697Y420D02*
X733D01*
X715Y403D02*
Y438D01*
X612Y125D02*
X668D01*
X640Y97D02*
Y153D01*
X860Y716D02*
X916D01*
X888Y688D02*
Y743D01*
X1212Y1610D02*
X1248D01*
X1230Y1592D02*
Y1628D01*
X1312Y1610D02*
X1348D01*
X1330Y1592D02*
Y1628D01*
X307Y241D02*
X373D01*
X340Y208D02*
Y275D01*
X110Y241D02*
X177D01*
X143Y208D02*
Y275D01*
X207Y135D02*
X273D01*
X240Y102D02*
Y168D01*
X2559Y870D02*
X2583D01*
X2571Y858D02*
Y882D01*
X2367Y870D02*
X2391D01*
X2379Y858D02*
Y882D01*
X952Y1610D02*
X988D01*
X970Y1592D02*
Y1628D01*
X852Y1610D02*
X888D01*
X870Y1592D02*
Y1628D01*
X752Y1610D02*
X788D01*
X770Y1592D02*
Y1628D01*
X472Y1610D02*
X508D01*
X490Y1592D02*
Y1628D01*
X372Y1610D02*
X408D01*
X390Y1592D02*
Y1628D01*
X272Y1610D02*
X308D01*
X290Y1592D02*
Y1628D01*
X3919Y178D02*
X4010D01*
X3964Y133D02*
Y224D01*
X3402Y178D02*
X3492D01*
X3447Y133D02*
Y224D01*
X3825Y285D02*
X3862D01*
X3843Y267D02*
Y303D01*
X3727Y285D02*
X3763D01*
X3745Y267D02*
Y303D01*
X3648Y285D02*
X3684D01*
X3666Y267D02*
Y303D01*
X3550Y285D02*
X3586D01*
X3568Y267D02*
Y303D01*
X3144Y178D02*
X3234D01*
X3189Y133D02*
Y224D01*
X2626Y178D02*
X2717D01*
X2672Y133D02*
Y224D01*
X3050Y285D02*
X3086D01*
X3068Y267D02*
Y303D01*
X2951Y285D02*
X2988D01*
X2970Y267D02*
Y303D01*
X2873Y285D02*
X2909D01*
X2891Y267D02*
Y303D01*
X2774Y285D02*
X2811D01*
X2792Y267D02*
Y303D01*
X2368Y178D02*
X2459D01*
X2413Y133D02*
Y224D01*
X1851Y178D02*
X1941D01*
X1896Y133D02*
Y224D01*
X2274Y285D02*
X2311D01*
X2293Y267D02*
Y303D01*
X2176Y285D02*
X2212D01*
X2194Y267D02*
Y303D01*
X2097Y285D02*
X2134D01*
X2115Y267D02*
Y303D01*
X1999Y285D02*
X2035D01*
X2017Y267D02*
Y303D01*
X1593Y178D02*
X1683D01*
X1638Y133D02*
Y224D01*
X1075Y178D02*
X1166D01*
X1121Y133D02*
Y224D01*
X1499Y285D02*
X1535D01*
X1517Y267D02*
Y303D01*
X1401Y285D02*
X1437D01*
X1419Y267D02*
Y303D01*
X1322Y285D02*
X1358D01*
X1340Y267D02*
Y303D01*
X1223Y285D02*
X1260D01*
X1242Y267D02*
Y303D01*
X158Y732D02*
X249D01*
X203Y687D02*
Y777D01*
X158Y1249D02*
X249D01*
X203Y1204D02*
Y1295D01*
X292Y853D02*
X328D01*
X310Y835D02*
Y871D01*
X292Y951D02*
X328D01*
X310Y933D02*
Y969D01*
X292Y1030D02*
X328D01*
X310Y1012D02*
Y1048D01*
X292Y1128D02*
X328D01*
X310Y1110D02*
Y1147D01*
X3192Y1565D02*
X3228D01*
X3210Y1547D02*
Y1583D01*
X3392Y1565D02*
X3428D01*
X3410Y1547D02*
Y1583D01*
X3492Y1565D02*
X3528D01*
X3510Y1547D02*
Y1583D01*
X3592Y1565D02*
X3628D01*
X3610Y1547D02*
Y1583D01*
X3692Y1565D02*
X3728D01*
X3710Y1547D02*
Y1583D01*
X3792Y1565D02*
X3828D01*
X3810Y1547D02*
Y1583D01*
X3892Y1565D02*
X3928D01*
X3910Y1547D02*
Y1583D01*
X3992Y1565D02*
X4028D01*
X4010Y1547D02*
Y1583D01*
X3292Y1565D02*
X3328D01*
X3310Y1547D02*
Y1583D01*
X4011Y1695D02*
X4089D01*
X4050Y1656D02*
Y1734D01*
X164Y565D02*
X243D01*
X203Y526D02*
Y604D01*
X2726Y1360D02*
X2754D01*
X2740Y1346D02*
Y1374D01*
X2006Y1091D02*
X2034D01*
X2020Y1077D02*
Y1105D01*
X2008Y1225D02*
X2036D01*
X2022Y1211D02*
Y1239D01*
X2861Y1575D02*
X2889D01*
X2875Y1561D02*
Y1589D01*
X2831Y1360D02*
X2859D01*
X2845Y1346D02*
Y1374D01*
X2626Y1025D02*
X2654D01*
X2640Y1011D02*
Y1039D01*
X2746Y1155D02*
X2774D01*
X2760Y1141D02*
Y1169D01*
X2901Y1135D02*
X2929D01*
X2915Y1121D02*
Y1149D01*
X2931Y1045D02*
X2959D01*
X2945Y1031D02*
Y1059D01*
X2831Y1215D02*
X2859D01*
X2845Y1201D02*
Y1229D01*
X2771Y1255D02*
X2799D01*
X2785Y1241D02*
Y1269D01*
X2786Y1030D02*
X2814D01*
X2800Y1016D02*
Y1044D01*
X2831Y1147D02*
X2859D01*
X2845Y1133D02*
Y1161D01*
X2606Y700D02*
X2634D01*
X2620Y686D02*
Y714D01*
X2461Y1000D02*
X2489D01*
X2475Y986D02*
Y1014D01*
X2531Y705D02*
X2559D01*
X2545Y691D02*
Y719D01*
X2391Y505D02*
X2419D01*
X2405Y491D02*
Y519D01*
X1836Y640D02*
X1864D01*
X1850Y626D02*
Y654D01*
X2006Y1300D02*
X2034D01*
X2020Y1286D02*
Y1314D01*
X487Y825D02*
X515D01*
X501Y811D02*
Y839D01*
X1836Y720D02*
X1864D01*
X1850Y706D02*
Y734D01*
X2661Y1505D02*
X2689D01*
X2675Y1491D02*
Y1519D01*
X1757Y716D02*
X1785D01*
X1771Y702D02*
Y730D01*
X1671Y870D02*
X1699D01*
X1685Y856D02*
Y884D01*
X2008Y1372D02*
X2036D01*
X2022Y1358D02*
Y1386D01*
X2008Y1460D02*
X2036D01*
X2022Y1446D02*
Y1474D01*
M02*
