M48
;Layer_Color=9474304
;FILE_FORMAT=2:3
INCH,LZ
;TYPE=PLATED
T1F00S00C0.025
T2F00S00C0.028
T3F00S00C0.035
T4F00S00C0.036
T5F00S00C0.052
T6F00S00C0.055
T7F00S00C0.067
T8F00S00C0.091
;TYPE=NON_PLATED
T9F00S00C0.079
%
T01
X02379Y0087
X02571
T02
X02405Y00505
X02545Y00705
X0262Y007
X0264Y01025
X028Y0103
X02945Y01045
X02915Y01135
X02845Y01147
Y01215
X02785Y01255
X0276Y01155
X0274Y0136
X02845
X02875Y01575
X02675Y01505
X02475Y01
X0202Y01091
X02022Y01225
X0202Y013
X02022Y01372
Y0146
X0185Y0072
X0185Y0064
X01771Y00716
X01685Y0087
X00501Y00825
T03
X00715Y00263
Y0042
X0371Y01565
X0381
X0391
X0401
X0361
X0351
X0341
X0331
X0321
X0133Y0161
X0123
X0097Y0161
X0087
X0077
X00715Y00578
X0049Y0161
X0039
X0029
T04
X01242Y00285
X0134
X01419
X01517
X02017
X02115
X02194
X02293
X02792
X02891
X0297
X03068
X03568
X03666
X03745
X03843
X0031Y00853
Y00951
Y0103
Y01128
T05
X01279Y00525
X01379
X0148
X02054Y0055
X02155
X02255
X0283Y00535
X0293
X03031
X03605Y00535
X03706
X03806
X01545Y0108
Y0118
Y0128
X01245
Y0118
Y0108
X00945
Y0118
Y0128
X00645
Y0118
Y0108
T06
X0064Y00125
X00888Y00716
T07
X0024Y00135
X00143Y00241
X0034
T08
X01121Y00178
X01638
X01896
X02413
X02672
X03189
X03447
X03964
X00203Y00732
Y01249
T09
X0405Y01695
X00203Y00565
M30
