G04*
G04 #@! TF.GenerationSoftware,Altium Limited,Altium Designer,18.1.7 (191)*
G04*
G04 Layer_Color=16711935*
%FSLAX23Y23*%
%MOIN*%
G70*
G01*
G75*
%ADD10C,0.008*%
%ADD11C,0.004*%
%ADD12C,0.010*%
D10*
X2333Y968D02*
G03*
X2333Y772I18J-98D01*
G01*
X2617Y772D02*
G03*
X2617Y968I-18J98D01*
G01*
X630Y105D02*
X898D01*
X630D02*
Y735D01*
X898D01*
Y105D02*
Y735D01*
X85Y340D02*
X360D01*
Y141D02*
Y340D01*
X85Y141D02*
X360D01*
X2333Y772D02*
X2617D01*
X2333Y968D02*
X2617D01*
D11*
X766Y975D02*
Y1385D01*
X585Y975D02*
X766D01*
X585D02*
Y1385D01*
X766D01*
X716D02*
X766Y1335D01*
X1066Y975D02*
Y1385D01*
X885Y975D02*
X1066D01*
X885D02*
Y1385D01*
X1066D01*
X1016D02*
X1066Y1335D01*
X1366Y975D02*
Y1385D01*
X1185Y975D02*
X1366D01*
X1185D02*
Y1385D01*
X1366D01*
X1316D02*
X1366Y1335D01*
X1666Y975D02*
Y1385D01*
X1485Y975D02*
X1666D01*
X1485D02*
Y1385D01*
X1666D01*
X1616D02*
X1666Y1335D01*
X3501Y656D02*
X3910D01*
Y475D02*
Y656D01*
X3501Y475D02*
X3910D01*
X3501D02*
Y656D01*
Y606D02*
X3551Y656D01*
X2725Y656D02*
X3135D01*
Y475D02*
Y656D01*
X2725Y475D02*
X3135D01*
X2725D02*
Y656D01*
Y606D02*
X2776Y656D01*
X1950Y671D02*
X2360D01*
Y490D02*
Y671D01*
X1950Y490D02*
X2360D01*
X1950D02*
Y671D01*
Y621D02*
X2000Y671D01*
X1175Y646D02*
X1584D01*
Y465D02*
Y646D01*
X1175Y465D02*
X1584D01*
X1175D02*
Y646D01*
Y596D02*
X1225Y646D01*
X3739Y761D02*
Y799D01*
X3672Y761D02*
Y799D01*
Y761D02*
X3739D01*
X3672Y799D02*
X3739D01*
X2964Y761D02*
Y799D01*
X2897Y761D02*
Y799D01*
Y761D02*
X2964D01*
X2897Y799D02*
X2964D01*
X2188Y761D02*
Y799D01*
X2121Y761D02*
Y799D01*
Y761D02*
X2188D01*
X2121Y799D02*
X2188D01*
X1413Y761D02*
Y799D01*
X1346Y761D02*
Y799D01*
Y761D02*
X1413D01*
X1346Y799D02*
X1413D01*
X1506Y1639D02*
X1544D01*
X1506Y1572D02*
X1544D01*
Y1639D01*
X1506Y1572D02*
Y1639D01*
X1666D02*
X1704D01*
X1666Y1572D02*
X1704D01*
Y1639D01*
X1666Y1572D02*
Y1639D01*
X1841D02*
X1879D01*
X1841Y1572D02*
X1879D01*
Y1639D01*
X1841Y1572D02*
Y1639D01*
X2011D02*
X2049D01*
X2011Y1572D02*
X2049D01*
Y1639D01*
X2011Y1572D02*
Y1639D01*
X427Y586D02*
Y624D01*
X493Y586D02*
Y624D01*
X427D02*
X493D01*
X427Y586D02*
X493D01*
X2708Y1556D02*
Y1594D01*
X2641Y1556D02*
Y1594D01*
Y1556D02*
X2708D01*
X2641Y1594D02*
X2708D01*
X2398Y1060D02*
X2552D01*
X2398D02*
Y1450D01*
X2552D01*
Y1060D02*
Y1450D01*
X2527Y1060D02*
X2552Y1085D01*
X2112Y1319D02*
X2199D01*
X2112Y1261D02*
X2199D01*
X2112D02*
Y1319D01*
X2199Y1261D02*
Y1319D01*
X2727Y1396D02*
X2813D01*
X2727Y1454D02*
X2813D01*
Y1396D02*
Y1454D01*
X2727Y1396D02*
Y1454D01*
X2112Y1119D02*
X2199D01*
X2112Y1061D02*
X2199D01*
X2112D02*
Y1119D01*
X2199Y1061D02*
Y1119D01*
D12*
X4097Y0D02*
G03*
X4165Y68I0J68D01*
G01*
Y1717D02*
G03*
X4097Y1785I-68J0D01*
G01*
X0Y67D02*
G03*
X67Y-0I67J-0D01*
G01*
X68Y1785D02*
G03*
X0Y1717I0J-68D01*
G01*
X3432Y53D02*
Y330D01*
X3979Y53D02*
Y330D01*
X3432D02*
X3979D01*
X2657Y53D02*
Y330D01*
X3204Y53D02*
Y330D01*
X2657D02*
X3204D01*
X1881Y53D02*
Y330D01*
X2428Y53D02*
Y330D01*
X1881D02*
X2428D01*
X1106Y53D02*
Y330D01*
X1653Y53D02*
Y330D01*
X1106D02*
X1653D01*
X78Y1264D02*
X355D01*
X78Y717D02*
X355D01*
Y1264D01*
X4165Y68D02*
Y1717D01*
X67Y0D02*
X4097D01*
X68Y1785D02*
X4097D01*
X0Y67D02*
Y1717D01*
M02*
