G04*
G04 #@! TF.GenerationSoftware,Altium Limited,Altium Designer,18.1.7 (191)*
G04*
G04 Layer_Color=8388736*
%FSLAX23Y23*%
%MOIN*%
G70*
G01*
G75*
%ADD18R,0.036X0.043*%
%ADD19R,0.043X0.036*%
%ADD20R,0.068X0.025*%
%ADD21R,0.051X0.063*%
%ADD22R,0.086X0.086*%
%ADD23C,0.086*%
%ADD24R,0.086X0.086*%
%ADD25C,0.063*%
%ADD26C,0.091*%
%ADD27R,0.067X0.067*%
%ADD28C,0.067*%
%ADD29C,0.108*%
%ADD30C,0.047*%
%ADD31C,0.142*%
%ADD32C,0.008*%
%ADD33C,0.058*%
D18*
X3735Y780D02*
D03*
X3676D02*
D03*
X2960Y780D02*
D03*
X2901D02*
D03*
X2184Y780D02*
D03*
X2125D02*
D03*
X1409Y780D02*
D03*
X1350D02*
D03*
X430Y605D02*
D03*
X490D02*
D03*
X2704Y1575D02*
D03*
X2645D02*
D03*
D19*
X1525Y1635D02*
D03*
Y1576D02*
D03*
X1685Y1635D02*
D03*
Y1576D02*
D03*
X1860Y1635D02*
D03*
Y1576D02*
D03*
X2030Y1635D02*
D03*
Y1576D02*
D03*
D20*
X2582Y1091D02*
D03*
Y1116D02*
D03*
Y1142D02*
D03*
Y1167D02*
D03*
Y1192D02*
D03*
Y1217D02*
D03*
Y1242D02*
D03*
Y1268D02*
D03*
Y1293D02*
D03*
Y1318D02*
D03*
Y1343D02*
D03*
Y1368D02*
D03*
Y1394D02*
D03*
Y1419D02*
D03*
X2368D02*
D03*
Y1394D02*
D03*
Y1368D02*
D03*
Y1343D02*
D03*
Y1318D02*
D03*
Y1293D02*
D03*
Y1268D02*
D03*
Y1242D02*
D03*
Y1217D02*
D03*
Y1192D02*
D03*
Y1167D02*
D03*
Y1142D02*
D03*
Y1116D02*
D03*
Y1091D02*
D03*
D21*
X2126Y1290D02*
D03*
X2185D02*
D03*
X2800Y1425D02*
D03*
X2740D02*
D03*
X2126Y1090D02*
D03*
X2185D02*
D03*
D22*
X645Y1280D02*
D03*
X945D02*
D03*
X1245D02*
D03*
X1545D02*
D03*
D23*
X645Y1180D02*
D03*
Y1080D02*
D03*
X945Y1180D02*
D03*
Y1080D02*
D03*
X1245Y1180D02*
D03*
Y1080D02*
D03*
X1545Y1180D02*
D03*
Y1080D02*
D03*
X3706Y535D02*
D03*
X3806D02*
D03*
X2930Y535D02*
D03*
X3031D02*
D03*
X2155Y550D02*
D03*
X2255D02*
D03*
X1379Y525D02*
D03*
X1480D02*
D03*
D24*
X3605Y535D02*
D03*
X2830Y535D02*
D03*
X2054Y550D02*
D03*
X1279Y525D02*
D03*
D25*
X715Y263D02*
D03*
Y578D02*
D03*
Y420D02*
D03*
D26*
X640Y125D02*
D03*
X888Y716D02*
D03*
D27*
X1230Y1610D02*
D03*
X970Y1610D02*
D03*
X490D02*
D03*
X3210Y1565D02*
D03*
D28*
X1330Y1610D02*
D03*
X870Y1610D02*
D03*
X770D02*
D03*
X390D02*
D03*
X290D02*
D03*
X3843Y285D02*
D03*
X3745D02*
D03*
X3666D02*
D03*
X3568D02*
D03*
X3068D02*
D03*
X2970D02*
D03*
X2891D02*
D03*
X2792D02*
D03*
X2293D02*
D03*
X2194D02*
D03*
X2115D02*
D03*
X2017D02*
D03*
X1517D02*
D03*
X1419D02*
D03*
X1340D02*
D03*
X1242D02*
D03*
X310Y853D02*
D03*
Y951D02*
D03*
Y1030D02*
D03*
Y1128D02*
D03*
X3410Y1565D02*
D03*
X3510D02*
D03*
X3610D02*
D03*
X3710D02*
D03*
X3810D02*
D03*
X3910D02*
D03*
X4010D02*
D03*
X3310D02*
D03*
D29*
X340Y241D02*
D03*
X143D02*
D03*
X240Y135D02*
D03*
D30*
X2571Y870D02*
D03*
X2379D02*
D03*
D31*
X3964Y178D02*
D03*
X3447D02*
D03*
X3189D02*
D03*
X2672D02*
D03*
X2413D02*
D03*
X1896D02*
D03*
X1638D02*
D03*
X1121D02*
D03*
X203Y732D02*
D03*
Y1249D02*
D03*
D32*
X4050Y1695D02*
D03*
X203Y565D02*
D03*
D33*
X2740Y1360D02*
D03*
X2020Y1091D02*
D03*
X2022Y1225D02*
D03*
X2875Y1575D02*
D03*
X2845Y1360D02*
D03*
X2640Y1025D02*
D03*
X2760Y1155D02*
D03*
X2915Y1135D02*
D03*
X2945Y1045D02*
D03*
X2845Y1215D02*
D03*
X2785Y1255D02*
D03*
X2800Y1030D02*
D03*
X2845Y1147D02*
D03*
X2620Y700D02*
D03*
X2475Y1000D02*
D03*
X2545Y705D02*
D03*
X2405Y505D02*
D03*
X1850Y640D02*
D03*
X2020Y1300D02*
D03*
X501Y825D02*
D03*
X1850Y720D02*
D03*
X2675Y1505D02*
D03*
X1771Y716D02*
D03*
X1685Y870D02*
D03*
X2022Y1372D02*
D03*
Y1460D02*
D03*
M02*
